<svg width="380" height="260" viewBox="0 0 380 260" fill="none" xmlns="http://www.w3.org/2000/svg">
<rect width="380" height="260" rx="10" fill="white"/>
<path d="M29.864 52.7C29.864 51.464 30.134 50.36 30.674 49.388C31.214 48.404 31.952 47.642 32.888 47.102C33.824 46.55 34.868 46.274 36.02 46.274C37.424 46.274 38.624 46.61 39.62 47.282C40.628 47.942 41.36 48.878 41.816 50.09H40.34C39.98 49.238 39.428 48.572 38.684 48.092C37.952 47.612 37.064 47.372 36.02 47.372C35.096 47.372 34.262 47.588 33.518 48.02C32.786 48.452 32.21 49.076 31.79 49.892C31.37 50.696 31.16 51.632 31.16 52.7C31.16 53.768 31.37 54.704 31.79 55.508C32.21 56.312 32.786 56.93 33.518 57.362C34.262 57.794 35.096 58.01 36.02 58.01C37.064 58.01 37.952 57.776 38.684 57.308C39.428 56.828 39.98 56.168 40.34 55.328H41.816C41.36 56.528 40.628 57.458 39.62 58.118C38.612 58.778 37.412 59.108 36.02 59.108C34.868 59.108 33.824 58.838 32.888 58.298C31.952 57.746 31.214 56.984 30.674 56.012C30.134 55.04 29.864 53.936 29.864 52.7ZM51.6167 56.012H45.8927L44.7947 59H43.4627L48.0527 46.58H49.4747L54.0467 59H52.7147L51.6167 56.012ZM51.2387 54.968L48.7547 48.164L46.2707 54.968H51.2387ZM59.7949 46.418C61.1869 46.418 62.3809 46.67 63.3769 47.174C64.3729 47.678 65.1349 48.404 65.6629 49.352C66.1909 50.3 66.4549 51.428 66.4549 52.736C66.4549 54.032 66.1909 55.154 65.6629 56.102C65.1349 57.038 64.3729 57.758 63.3769 58.262C62.3809 58.754 61.1869 59 59.7949 59H56.0689V46.418H59.7949ZM59.7949 57.956C61.5469 57.956 62.8789 57.5 63.7909 56.588C64.7149 55.664 65.1769 54.38 65.1769 52.736C65.1769 51.08 64.7149 49.79 63.7909 48.866C62.8789 47.93 61.5469 47.462 59.7949 47.462H57.3289V57.956H59.7949ZM76.0679 56.012H70.3439L69.2459 59H67.9139L72.5039 46.58H73.9259L78.4979 59H77.1659L76.0679 56.012ZM75.6899 54.968L73.2059 48.164L70.7219 54.968H75.6899ZM84.3361 59.126C83.5081 59.126 82.7761 58.982 82.1401 58.694C81.5161 58.406 81.0241 58.004 80.6641 57.488C80.3041 56.972 80.1121 56.396 80.0881 55.76H81.4201C81.4801 56.372 81.7501 56.912 82.2301 57.38C82.7101 57.836 83.4121 58.064 84.3361 58.064C85.1881 58.064 85.8601 57.848 86.3521 57.416C86.8561 56.972 87.1081 56.414 87.1081 55.742C87.1081 55.202 86.9701 54.77 86.6941 54.446C86.4181 54.11 86.0761 53.864 85.6681 53.708C85.2601 53.54 84.6961 53.36 83.9761 53.168C83.1361 52.94 82.4701 52.718 81.9781 52.502C81.4861 52.286 81.0661 51.95 80.7181 51.494C80.3701 51.038 80.1961 50.42 80.1961 49.64C80.1961 48.992 80.3641 48.416 80.7001 47.912C81.0361 47.396 81.5101 46.994 82.1221 46.706C82.7341 46.418 83.4361 46.274 84.2281 46.274C85.3921 46.274 86.3281 46.562 87.0361 47.138C87.7561 47.702 88.1701 48.434 88.2781 49.334H86.9101C86.8261 48.818 86.5441 48.362 86.0641 47.966C85.5841 47.558 84.9361 47.354 84.1201 47.354C83.3641 47.354 82.7341 47.558 82.2301 47.966C81.7261 48.362 81.4741 48.908 81.4741 49.604C81.4741 50.132 81.6121 50.558 81.8881 50.882C82.1641 51.206 82.5061 51.452 82.9141 51.62C83.3341 51.788 83.8981 51.968 84.6061 52.16C85.4221 52.388 86.0821 52.616 86.5861 52.844C87.0901 53.06 87.5161 53.396 87.8641 53.852C88.2121 54.308 88.3861 54.92 88.3861 55.688C88.3861 56.276 88.2301 56.834 87.9181 57.362C87.6061 57.89 87.1441 58.316 86.5321 58.64C85.9201 58.964 85.1881 59.126 84.3361 59.126ZM98.1829 46.418V47.462H94.6909V59H93.4309V47.462H89.9209V46.418H98.1829ZM106.868 59L103.754 53.744H101.432V59H100.172V46.418H103.952C105.356 46.418 106.418 46.754 107.138 47.426C107.87 48.098 108.236 48.98 108.236 50.072C108.236 50.984 107.972 51.764 107.444 52.412C106.928 53.048 106.16 53.462 105.14 53.654L108.38 59H106.868ZM101.432 52.718H103.97C104.954 52.718 105.692 52.478 106.184 51.998C106.688 51.518 106.94 50.876 106.94 50.072C106.94 49.244 106.7 48.608 106.22 48.164C105.74 47.708 104.984 47.48 103.952 47.48H101.432V52.718ZM111.997 47.444V52.142H116.767V53.186H111.997V57.956H117.307V59H110.737V46.4H117.307V47.444H111.997ZM125.892 51.8V52.862H118.89V51.8H125.892ZM132.94 59.126C132.112 59.126 131.38 58.982 130.744 58.694C130.12 58.406 129.628 58.004 129.268 57.488C128.908 56.972 128.716 56.396 128.692 55.76H130.024C130.084 56.372 130.354 56.912 130.834 57.38C131.314 57.836 132.016 58.064 132.94 58.064C133.792 58.064 134.464 57.848 134.956 57.416C135.46 56.972 135.712 56.414 135.712 55.742C135.712 55.202 135.574 54.77 135.298 54.446C135.022 54.11 134.68 53.864 134.272 53.708C133.864 53.54 133.3 53.36 132.58 53.168C131.74 52.94 131.074 52.718 130.582 52.502C130.09 52.286 129.67 51.95 129.322 51.494C128.974 51.038 128.8 50.42 128.8 49.64C128.8 48.992 128.968 48.416 129.304 47.912C129.64 47.396 130.114 46.994 130.726 46.706C131.338 46.418 132.04 46.274 132.832 46.274C133.996 46.274 134.932 46.562 135.64 47.138C136.36 47.702 136.774 48.434 136.882 49.334H135.514C135.43 48.818 135.148 48.362 134.668 47.966C134.188 47.558 133.54 47.354 132.724 47.354C131.968 47.354 131.338 47.558 130.834 47.966C130.33 48.362 130.078 48.908 130.078 49.604C130.078 50.132 130.216 50.558 130.492 50.882C130.768 51.206 131.11 51.452 131.518 51.62C131.938 51.788 132.502 51.968 133.21 52.16C134.026 52.388 134.686 52.616 135.19 52.844C135.694 53.06 136.12 53.396 136.468 53.852C136.816 54.308 136.99 54.92 136.99 55.688C136.99 56.276 136.834 56.834 136.522 57.362C136.21 57.89 135.748 58.316 135.136 58.64C134.524 58.964 133.792 59.126 132.94 59.126ZM140.684 47.444V52.142H145.454V53.186H140.684V57.956H145.994V59H139.424V46.4H145.994V47.444H140.684ZM154.677 47.444V52.142H159.447V53.186H154.677V57.956H159.987V59H153.417V46.4H159.987V47.444H154.677ZM174.105 59L170.991 53.744H168.669V59H167.409V46.418H171.189C172.593 46.418 173.655 46.754 174.375 47.426C175.107 48.098 175.473 48.98 175.473 50.072C175.473 50.984 175.209 51.764 174.681 52.412C174.165 53.048 173.397 53.462 172.377 53.654L175.617 59H174.105ZM168.669 52.718H171.207C172.191 52.718 172.929 52.478 173.421 51.998C173.925 51.518 174.177 50.876 174.177 50.072C174.177 49.244 173.937 48.608 173.457 48.164C172.977 47.708 172.221 47.48 171.189 47.48H168.669V52.718ZM179.233 47.444V52.142H184.003V53.186H179.233V57.956H184.543V59H177.973V46.4H184.543V47.444H179.233ZM186.45 52.7C186.45 51.464 186.72 50.36 187.26 49.388C187.8 48.404 188.538 47.642 189.474 47.102C190.41 46.55 191.454 46.274 192.606 46.274C194.01 46.274 195.21 46.61 196.206 47.282C197.214 47.942 197.946 48.878 198.402 50.09H196.926C196.566 49.238 196.014 48.572 195.27 48.092C194.538 47.612 193.65 47.372 192.606 47.372C191.682 47.372 190.848 47.588 190.104 48.02C189.372 48.452 188.796 49.076 188.376 49.892C187.956 50.696 187.746 51.632 187.746 52.7C187.746 53.768 187.956 54.704 188.376 55.508C188.796 56.312 189.372 56.93 190.104 57.362C190.848 57.794 191.682 58.01 192.606 58.01C193.65 58.01 194.538 57.776 195.27 57.308C196.014 56.828 196.566 56.168 196.926 55.328H198.402C197.946 56.528 197.214 57.458 196.206 58.118C195.198 58.778 193.998 59.108 192.606 59.108C191.454 59.108 190.41 58.838 189.474 58.298C188.538 57.746 187.8 56.984 187.26 56.012C186.72 55.04 186.45 53.936 186.45 52.7ZM202.173 47.444V52.142H206.943V53.186H202.173V57.956H207.483V59H200.913V46.4H207.483V47.444H202.173ZM215.851 52.502C216.559 52.634 217.159 52.994 217.651 53.582C218.143 54.17 218.389 54.854 218.389 55.634C218.389 56.27 218.227 56.846 217.903 57.362C217.591 57.866 217.129 58.268 216.517 58.568C215.905 58.856 215.173 59 214.321 59H209.965V46.418H214.195C215.467 46.418 216.433 46.712 217.093 47.3C217.765 47.888 218.101 48.65 218.101 49.586C218.101 50.366 217.891 51.002 217.471 51.494C217.051 51.974 216.511 52.31 215.851 52.502ZM211.225 51.98H214.159C215.011 51.98 215.665 51.782 216.121 51.386C216.589 50.978 216.823 50.42 216.823 49.712C216.823 49.016 216.589 48.47 216.121 48.074C215.665 47.678 214.993 47.48 214.105 47.48H211.225V51.98ZM214.231 57.938C215.143 57.938 215.851 57.722 216.355 57.29C216.871 56.858 217.129 56.264 217.129 55.508C217.129 54.752 216.859 54.152 216.319 53.708C215.791 53.252 215.077 53.024 214.177 53.024H211.225V57.938H214.231ZM227.996 56.012H222.272L221.174 59H219.842L224.432 46.58H225.854L230.426 59H229.094L227.996 56.012ZM227.618 54.968L225.134 48.164L222.65 54.968H227.618ZM246.873 59H245.613L238.647 48.416V59H237.387V46.418H238.647L245.613 56.984V46.418H246.873V59ZM255.379 59.126C254.215 59.126 253.159 58.856 252.211 58.316C251.263 57.764 250.513 57.002 249.961 56.03C249.421 55.046 249.151 53.936 249.151 52.7C249.151 51.464 249.421 50.36 249.961 49.388C250.513 48.404 251.263 47.642 252.211 47.102C253.159 46.55 254.215 46.274 255.379 46.274C256.555 46.274 257.617 46.55 258.565 47.102C259.513 47.642 260.257 48.404 260.797 49.388C261.337 50.36 261.607 51.464 261.607 52.7C261.607 53.936 261.337 55.046 260.797 56.03C260.257 57.002 259.513 57.764 258.565 58.316C257.617 58.856 256.555 59.126 255.379 59.126ZM255.379 58.028C256.315 58.028 257.155 57.812 257.899 57.38C258.643 56.948 259.231 56.33 259.663 55.526C260.095 54.71 260.311 53.768 260.311 52.7C260.311 51.632 260.095 50.696 259.663 49.892C259.231 49.088 258.643 48.47 257.899 48.038C257.155 47.606 256.315 47.39 255.379 47.39C254.443 47.39 253.603 47.606 252.859 48.038C252.115 48.47 251.527 49.088 251.095 49.892C250.663 50.696 250.447 51.632 250.447 52.7C250.447 53.768 250.663 54.71 251.095 55.526C251.527 56.33 252.115 56.948 252.859 57.38C253.603 57.812 254.443 58.028 255.379 58.028ZM267.729 59.126C266.901 59.126 266.169 58.982 265.533 58.694C264.909 58.406 264.417 58.004 264.057 57.488C263.697 56.972 263.505 56.396 263.481 55.76H264.813C264.873 56.372 265.143 56.912 265.623 57.38C266.103 57.836 266.805 58.064 267.729 58.064C268.581 58.064 269.253 57.848 269.745 57.416C270.249 56.972 270.501 56.414 270.501 55.742C270.501 55.202 270.363 54.77 270.087 54.446C269.811 54.11 269.469 53.864 269.061 53.708C268.653 53.54 268.089 53.36 267.369 53.168C266.529 52.94 265.863 52.718 265.371 52.502C264.879 52.286 264.459 51.95 264.111 51.494C263.763 51.038 263.589 50.42 263.589 49.64C263.589 48.992 263.757 48.416 264.093 47.912C264.429 47.396 264.903 46.994 265.515 46.706C266.127 46.418 266.829 46.274 267.621 46.274C268.785 46.274 269.721 46.562 270.429 47.138C271.149 47.702 271.563 48.434 271.671 49.334H270.303C270.219 48.818 269.937 48.362 269.457 47.966C268.977 47.558 268.329 47.354 267.513 47.354C266.757 47.354 266.127 47.558 265.623 47.966C265.119 48.362 264.867 48.908 264.867 49.604C264.867 50.132 265.005 50.558 265.281 50.882C265.557 51.206 265.899 51.452 266.307 51.62C266.727 51.788 267.291 51.968 267.999 52.16C268.815 52.388 269.475 52.616 269.979 52.844C270.483 53.06 270.909 53.396 271.257 53.852C271.605 54.308 271.779 54.92 271.779 55.688C271.779 56.276 271.623 56.834 271.311 57.362C270.999 57.89 270.537 58.316 269.925 58.64C269.313 58.964 268.581 59.126 267.729 59.126ZM278.029 59.126C277.201 59.126 276.469 58.982 275.833 58.694C275.209 58.406 274.717 58.004 274.357 57.488C273.997 56.972 273.805 56.396 273.781 55.76H275.113C275.173 56.372 275.443 56.912 275.923 57.38C276.403 57.836 277.105 58.064 278.029 58.064C278.881 58.064 279.553 57.848 280.045 57.416C280.549 56.972 280.801 56.414 280.801 55.742C280.801 55.202 280.663 54.77 280.387 54.446C280.111 54.11 279.769 53.864 279.361 53.708C278.953 53.54 278.389 53.36 277.669 53.168C276.829 52.94 276.163 52.718 275.671 52.502C275.179 52.286 274.759 51.95 274.411 51.494C274.063 51.038 273.889 50.42 273.889 49.64C273.889 48.992 274.057 48.416 274.393 47.912C274.729 47.396 275.203 46.994 275.815 46.706C276.427 46.418 277.129 46.274 277.921 46.274C279.085 46.274 280.021 46.562 280.729 47.138C281.449 47.702 281.863 48.434 281.971 49.334H280.603C280.519 48.818 280.237 48.362 279.757 47.966C279.277 47.558 278.629 47.354 277.813 47.354C277.057 47.354 276.427 47.558 275.923 47.966C275.419 48.362 275.167 48.908 275.167 49.604C275.167 50.132 275.305 50.558 275.581 50.882C275.857 51.206 276.199 51.452 276.607 51.62C277.027 51.788 277.591 51.968 278.299 52.16C279.115 52.388 279.775 52.616 280.279 52.844C280.783 53.06 281.209 53.396 281.557 53.852C281.905 54.308 282.079 54.92 282.079 55.688C282.079 56.276 281.923 56.834 281.611 57.362C281.299 57.89 280.837 58.316 280.225 58.64C279.613 58.964 278.881 59.126 278.029 59.126ZM291.804 56.012H286.08L284.982 59H283.65L288.24 46.58H289.662L294.234 59H292.902L291.804 56.012ZM291.426 54.968L288.942 48.164L286.458 54.968H291.426ZM300.072 59.126C299.244 59.126 298.512 58.982 297.876 58.694C297.252 58.406 296.76 58.004 296.4 57.488C296.04 56.972 295.848 56.396 295.824 55.76H297.156C297.216 56.372 297.486 56.912 297.966 57.38C298.446 57.836 299.148 58.064 300.072 58.064C300.924 58.064 301.596 57.848 302.088 57.416C302.592 56.972 302.844 56.414 302.844 55.742C302.844 55.202 302.706 54.77 302.43 54.446C302.154 54.11 301.812 53.864 301.404 53.708C300.996 53.54 300.432 53.36 299.712 53.168C298.872 52.94 298.206 52.718 297.714 52.502C297.222 52.286 296.802 51.95 296.454 51.494C296.106 51.038 295.932 50.42 295.932 49.64C295.932 48.992 296.1 48.416 296.436 47.912C296.772 47.396 297.246 46.994 297.858 46.706C298.47 46.418 299.172 46.274 299.964 46.274C301.128 46.274 302.064 46.562 302.772 47.138C303.492 47.702 303.906 48.434 304.014 49.334H302.646C302.562 48.818 302.28 48.362 301.8 47.966C301.32 47.558 300.672 47.354 299.856 47.354C299.1 47.354 298.47 47.558 297.966 47.966C297.462 48.362 297.21 48.908 297.21 49.604C297.21 50.132 297.348 50.558 297.624 50.882C297.9 51.206 298.242 51.452 298.65 51.62C299.07 51.788 299.634 51.968 300.342 52.16C301.158 52.388 301.818 52.616 302.322 52.844C302.826 53.06 303.252 53.396 303.6 53.852C303.948 54.308 304.122 54.92 304.122 55.688C304.122 56.276 303.966 56.834 303.654 57.362C303.342 57.89 302.88 58.316 302.268 58.64C301.656 58.964 300.924 59.126 300.072 59.126ZM43.49 85H39.899L33.893 75.907V85H30.302V70.258H33.893L39.899 79.393V70.258H43.49V85ZM53.065 85.147C51.679 85.147 50.405 84.825 49.243 84.181C48.095 83.537 47.178 82.641 46.492 81.493C45.82 80.331 45.484 79.029 45.484 77.587C45.484 76.145 45.82 74.85 46.492 73.702C47.178 72.554 48.095 71.658 49.243 71.014C50.405 70.37 51.679 70.048 53.065 70.048C54.451 70.048 55.718 70.37 56.866 71.014C58.028 71.658 58.938 72.554 59.596 73.702C60.268 74.85 60.604 76.145 60.604 77.587C60.604 79.029 60.268 80.331 59.596 81.493C58.924 82.641 58.014 83.537 56.866 84.181C55.718 84.825 54.451 85.147 53.065 85.147ZM53.065 81.871C54.241 81.871 55.179 81.479 55.879 80.695C56.593 79.911 56.95 78.875 56.95 77.587C56.95 76.285 56.593 75.249 55.879 74.479C55.179 73.695 54.241 73.303 53.065 73.303C51.875 73.303 50.923 73.688 50.209 74.458C49.509 75.228 49.159 76.271 49.159 77.587C49.159 78.889 49.509 79.932 50.209 80.716C50.923 81.486 51.875 81.871 53.065 81.871ZM76.4408 70.258L71.2118 85H66.7178L61.4888 70.258H65.3108L68.9648 81.388L72.6398 70.258H76.4408ZM81.5326 70.258V85H77.9416V70.258H81.5326ZM89.658 70.258C91.212 70.258 92.57 70.566 93.732 71.182C94.894 71.798 95.79 72.666 96.42 73.786C97.064 74.892 97.386 76.173 97.386 77.629C97.386 79.071 97.064 80.352 96.42 81.472C95.79 82.592 94.887 83.46 93.711 84.076C92.549 84.692 91.198 85 89.658 85H84.135V70.258H89.658ZM89.427 81.892C90.785 81.892 91.842 81.521 92.598 80.779C93.354 80.037 93.732 78.987 93.732 77.629C93.732 76.271 93.354 75.214 92.598 74.458C91.842 73.702 90.785 73.324 89.427 73.324H87.726V81.892H89.427ZM108.57 82.396H103.068L102.186 85H98.4268L103.761 70.258H107.919L113.253 85H109.452L108.57 82.396ZM107.646 79.624L105.819 74.227L104.013 79.624H107.646ZM120.399 70.258C121.953 70.258 123.311 70.566 124.473 71.182C125.635 71.798 126.531 72.666 127.161 73.786C127.805 74.892 128.127 76.173 128.127 77.629C128.127 79.071 127.805 80.352 127.161 81.472C126.531 82.592 125.628 83.46 124.452 84.076C123.29 84.692 121.939 85 120.399 85H114.876V70.258H120.399ZM120.168 81.892C121.526 81.892 122.583 81.521 123.339 80.779C124.095 80.037 124.473 78.987 124.473 77.629C124.473 76.271 124.095 75.214 123.339 74.458C122.583 73.702 121.526 73.324 120.168 73.324H118.467V81.892H120.168ZM133.725 73.135V76.117H138.534V78.889H133.725V82.123H139.164V85H130.134V70.258H139.164V73.135H133.725ZM146.829 85.147C145.751 85.147 144.785 84.972 143.931 84.622C143.077 84.272 142.391 83.754 141.873 83.068C141.369 82.382 141.103 81.556 141.075 80.59H144.897C144.953 81.136 145.142 81.556 145.464 81.85C145.786 82.13 146.206 82.27 146.724 82.27C147.256 82.27 147.676 82.151 147.984 81.913C148.292 81.661 148.446 81.318 148.446 80.884C148.446 80.52 148.32 80.219 148.068 79.981C147.83 79.743 147.529 79.547 147.165 79.393C146.815 79.239 146.311 79.064 145.653 78.868C144.701 78.574 143.924 78.28 143.322 77.986C142.72 77.692 142.202 77.258 141.768 76.684C141.334 76.11 141.117 75.361 141.117 74.437C141.117 73.065 141.614 71.994 142.608 71.224C143.602 70.44 144.897 70.048 146.493 70.048C148.117 70.048 149.426 70.44 150.42 71.224C151.414 71.994 151.946 73.072 152.016 74.458H148.131C148.103 73.982 147.928 73.611 147.606 73.345C147.284 73.065 146.871 72.925 146.367 72.925C145.933 72.925 145.583 73.044 145.317 73.282C145.051 73.506 144.918 73.835 144.918 74.269C144.918 74.745 145.142 75.116 145.59 75.382C146.038 75.648 146.738 75.935 147.69 76.243C148.642 76.565 149.412 76.873 150 77.167C150.602 77.461 151.12 77.888 151.554 78.448C151.988 79.008 152.205 79.729 152.205 80.611C152.205 81.451 151.988 82.214 151.554 82.9C151.134 83.586 150.518 84.132 149.706 84.538C148.894 84.944 147.935 85.147 146.829 85.147ZM162.456 73.135V76.117H167.265V78.889H162.456V82.123H167.895V85H158.865V70.258H167.895V73.135H162.456ZM185.912 75.004C185.912 75.858 185.716 76.642 185.324 77.356C184.932 78.056 184.33 78.623 183.518 79.057C182.706 79.491 181.698 79.708 180.494 79.708H178.268V85H174.677V70.258H180.494C181.67 70.258 182.664 70.461 183.476 70.867C184.288 71.273 184.897 71.833 185.303 72.547C185.709 73.261 185.912 74.08 185.912 75.004ZM180.221 76.852C180.907 76.852 181.418 76.691 181.754 76.369C182.09 76.047 182.258 75.592 182.258 75.004C182.258 74.416 182.09 73.961 181.754 73.639C181.418 73.317 180.907 73.156 180.221 73.156H178.268V76.852H180.221ZM195.299 85L192.233 79.435H191.372V85H187.781V70.258H193.808C194.97 70.258 195.957 70.461 196.769 70.867C197.595 71.273 198.211 71.833 198.617 72.547C199.023 73.247 199.226 74.031 199.226 74.899C199.226 75.879 198.946 76.754 198.386 77.524C197.84 78.294 197.028 78.84 195.95 79.162L199.352 85H195.299ZM191.372 76.894H193.598C194.256 76.894 194.746 76.733 195.068 76.411C195.404 76.089 195.572 75.634 195.572 75.046C195.572 74.486 195.404 74.045 195.068 73.723C194.746 73.401 194.256 73.24 193.598 73.24H191.372V76.894ZM208.453 85.147C207.067 85.147 205.793 84.825 204.631 84.181C203.483 83.537 202.566 82.641 201.88 81.493C201.208 80.331 200.872 79.029 200.872 77.587C200.872 76.145 201.208 74.85 201.88 73.702C202.566 72.554 203.483 71.658 204.631 71.014C205.793 70.37 207.067 70.048 208.453 70.048C209.839 70.048 211.106 70.37 212.254 71.014C213.416 71.658 214.326 72.554 214.984 73.702C215.656 74.85 215.992 76.145 215.992 77.587C215.992 79.029 215.656 80.331 214.984 81.493C214.312 82.641 213.402 83.537 212.254 84.181C211.106 84.825 209.839 85.147 208.453 85.147ZM208.453 81.871C209.629 81.871 210.567 81.479 211.267 80.695C211.981 79.911 212.338 78.875 212.338 77.587C212.338 76.285 211.981 75.249 211.267 74.479C210.567 73.695 209.629 73.303 208.453 73.303C207.263 73.303 206.311 73.688 205.597 74.458C204.897 75.228 204.547 76.271 204.547 77.587C204.547 78.889 204.897 79.932 205.597 80.716C206.311 81.486 207.263 81.871 208.453 81.871ZM234.685 70.258V85H231.094V76.159L227.797 85H224.899L221.581 76.138V85H217.99V70.258H222.231L226.369 80.464L230.464 70.258H234.685ZM244.239 85.147C242.853 85.147 241.579 84.825 240.417 84.181C239.269 83.537 238.352 82.641 237.666 81.493C236.994 80.331 236.658 79.029 236.658 77.587C236.658 76.145 236.994 74.85 237.666 73.702C238.352 72.554 239.269 71.658 240.417 71.014C241.579 70.37 242.853 70.048 244.239 70.048C245.625 70.048 246.892 70.37 248.04 71.014C249.202 71.658 250.112 72.554 250.77 73.702C251.442 74.85 251.778 76.145 251.778 77.587C251.778 79.029 251.442 80.331 250.77 81.493C250.098 82.641 249.188 83.537 248.04 84.181C246.892 84.825 245.625 85.147 244.239 85.147ZM244.239 81.871C245.415 81.871 246.353 81.479 247.053 80.695C247.767 79.911 248.124 78.875 248.124 77.587C248.124 76.285 247.767 75.249 247.053 74.479C246.353 73.695 245.415 73.303 244.239 73.303C243.049 73.303 242.097 73.688 241.383 74.458C240.683 75.228 240.333 76.271 240.333 77.587C240.333 78.889 240.683 79.932 241.383 80.716C242.097 81.486 243.049 81.871 244.239 81.871ZM260.538 81.85C261.224 81.85 261.833 81.689 262.365 81.367C262.911 81.045 263.331 80.576 263.625 79.96H267.573C267.195 81.374 266.488 82.529 265.452 83.425C264.43 84.307 263.184 84.846 261.714 85.042V85.861C262.442 85.861 263.079 86.057 263.625 86.449C264.171 86.855 264.444 87.457 264.444 88.255C264.444 89.053 264.157 89.655 263.583 90.061C263.009 90.481 262.323 90.691 261.525 90.691H258.291V88.717H261.042C261.322 88.717 261.532 88.675 261.672 88.591C261.812 88.507 261.882 88.367 261.882 88.171C261.882 87.975 261.812 87.835 261.672 87.751C261.532 87.681 261.322 87.646 261.042 87.646H259.551V85.042C258.291 84.902 257.178 84.503 256.212 83.845C255.246 83.173 254.497 82.298 253.965 81.22C253.433 80.142 253.167 78.938 253.167 77.608C253.167 76.152 253.482 74.857 254.112 73.723C254.742 72.575 255.617 71.686 256.737 71.056C257.871 70.412 259.152 70.09 260.58 70.09C262.33 70.09 263.828 70.552 265.074 71.476C266.32 72.4 267.153 73.66 267.573 75.256H263.625C263.331 74.64 262.911 74.171 262.365 73.849C261.833 73.527 261.224 73.366 260.538 73.366C259.432 73.366 258.536 73.751 257.85 74.521C257.164 75.291 256.821 76.32 256.821 77.608C256.821 78.896 257.164 79.925 257.85 80.695C258.536 81.465 259.432 81.85 260.538 81.85ZM276.744 85.147C275.358 85.147 274.084 84.825 272.922 84.181C271.774 83.537 270.857 82.641 270.171 81.493C269.499 80.331 269.163 79.029 269.163 77.587C269.163 76.145 269.499 74.85 270.171 73.702C270.857 72.554 271.774 71.658 272.922 71.014C274.084 70.37 275.358 70.048 276.744 70.048C278.13 70.048 279.397 70.37 280.545 71.014C281.707 71.658 282.617 72.554 283.275 73.702C283.947 74.85 284.283 76.145 284.283 77.587C284.283 79.029 283.947 80.331 283.275 81.493C282.603 82.641 281.693 83.537 280.545 84.181C279.397 84.825 278.13 85.147 276.744 85.147ZM276.744 81.871C277.92 81.871 278.858 81.479 279.558 80.695C280.272 79.911 280.629 78.875 280.629 77.587C280.629 76.285 280.272 75.249 279.558 74.479C278.858 73.695 277.92 73.303 276.744 73.303C275.554 73.303 274.602 73.688 273.888 74.458C273.188 75.228 272.838 76.271 272.838 77.587C272.838 78.889 273.188 79.932 273.888 80.716C274.602 81.486 275.554 81.871 276.744 81.871ZM272.523 69.229C272.859 67.157 273.825 66.121 275.421 66.121C275.729 66.121 275.995 66.17 276.219 66.268C276.457 66.352 276.744 66.485 277.08 66.667C277.332 66.807 277.535 66.912 277.689 66.982C277.843 67.038 278.004 67.066 278.172 67.066C278.69 67.066 278.991 66.751 279.075 66.121H280.923C280.587 68.193 279.621 69.229 278.025 69.229C277.717 69.229 277.444 69.187 277.206 69.103C276.982 69.005 276.702 68.865 276.366 68.683C276.114 68.543 275.911 68.445 275.757 68.389C275.603 68.319 275.442 68.284 275.274 68.284C274.756 68.284 274.448 68.599 274.35 69.229H272.523ZM289.872 73.135V76.117H294.681V78.889H289.872V82.123H295.311V85H286.281V70.258H295.311V73.135H289.872ZM302.976 85.147C301.898 85.147 300.932 84.972 300.078 84.622C299.224 84.272 298.538 83.754 298.02 83.068C297.516 82.382 297.25 81.556 297.222 80.59H301.044C301.1 81.136 301.289 81.556 301.611 81.85C301.933 82.13 302.353 82.27 302.871 82.27C303.403 82.27 303.823 82.151 304.131 81.913C304.439 81.661 304.593 81.318 304.593 80.884C304.593 80.52 304.467 80.219 304.215 79.981C303.977 79.743 303.676 79.547 303.312 79.393C302.962 79.239 302.458 79.064 301.8 78.868C300.848 78.574 300.071 78.28 299.469 77.986C298.867 77.692 298.349 77.258 297.915 76.684C297.481 76.11 297.264 75.361 297.264 74.437C297.264 73.065 297.761 71.994 298.755 71.224C299.749 70.44 301.044 70.048 302.64 70.048C304.264 70.048 305.573 70.44 306.567 71.224C307.561 71.994 308.093 73.072 308.163 74.458H304.278C304.25 73.982 304.075 73.611 303.753 73.345C303.431 73.065 303.018 72.925 302.514 72.925C302.08 72.925 301.73 73.044 301.464 73.282C301.198 73.506 301.065 73.835 301.065 74.269C301.065 74.745 301.289 75.116 301.737 75.382C302.185 75.648 302.885 75.935 303.837 76.243C304.789 76.565 305.559 76.873 306.147 77.167C306.749 77.461 307.267 77.888 307.701 78.448C308.135 79.008 308.352 79.729 308.352 80.611C308.352 81.451 308.135 82.214 307.701 82.9C307.281 83.586 306.665 84.132 305.853 84.538C305.041 84.944 304.082 85.147 302.976 85.147Z" fill="#3F3F40"/>
<path d="M48.9641 112.296V115.428H52.1441V116.124H48.9641V119.304H52.5041V120H48.1241V111.6H52.5041V112.296H48.9641ZM57.5912 120L55.8992 117.36L54.2672 120H53.3792L55.4912 116.724L53.4032 113.448H54.3512L56.0192 116.052L57.6392 113.448H58.5152L56.4272 116.688L58.5392 120H57.5912ZM59.2948 116.724C59.2948 116.044 59.4308 115.452 59.7028 114.948C59.9748 114.436 60.3508 114.044 60.8308 113.772C61.3108 113.492 61.8588 113.352 62.4748 113.352C63.2828 113.352 63.9468 113.552 64.4668 113.952C64.9948 114.352 65.3348 114.896 65.4868 115.584H64.5868C64.4748 115.112 64.2308 114.744 63.8548 114.48C63.4868 114.208 63.0268 114.072 62.4748 114.072C62.0348 114.072 61.6388 114.172 61.2868 114.372C60.9348 114.572 60.6548 114.872 60.4468 115.272C60.2468 115.664 60.1468 116.148 60.1468 116.724C60.1468 117.3 60.2468 117.788 60.4468 118.188C60.6548 118.588 60.9348 118.888 61.2868 119.088C61.6388 119.288 62.0348 119.388 62.4748 119.388C63.0268 119.388 63.4868 119.256 63.8548 118.992C64.2308 118.72 64.4748 118.344 64.5868 117.864H65.4868C65.3348 118.536 64.9948 119.076 64.4668 119.484C63.9388 119.892 63.2748 120.096 62.4748 120.096C61.8588 120.096 61.3108 119.96 60.8308 119.688C60.3508 119.408 59.9748 119.016 59.7028 118.512C59.4308 118 59.2948 117.404 59.2948 116.724ZM72.9661 116.388C72.9661 116.676 72.9581 116.896 72.9421 117.048H67.5061C67.5301 117.544 67.6501 117.968 67.8661 118.32C68.0821 118.672 68.3661 118.94 68.7181 119.124C69.0701 119.3 69.4541 119.388 69.8701 119.388C70.4141 119.388 70.8701 119.256 71.2381 118.992C71.6141 118.728 71.8621 118.372 71.9821 117.924H72.8701C72.7101 118.564 72.3661 119.088 71.8381 119.496C71.3181 119.896 70.6621 120.096 69.8701 120.096C69.2541 120.096 68.7021 119.96 68.2141 119.688C67.7261 119.408 67.3421 119.016 67.0621 118.512C66.7901 118 66.6541 117.404 66.6541 116.724C66.6541 116.044 66.7901 115.448 67.0621 114.936C67.3341 114.424 67.7141 114.032 68.2021 113.76C68.6901 113.488 69.2461 113.352 69.8701 113.352C70.4941 113.352 71.0381 113.488 71.5021 113.76C71.9741 114.032 72.3341 114.4 72.5821 114.864C72.8381 115.32 72.9661 115.828 72.9661 116.388ZM72.1141 116.364C72.1221 115.876 72.0221 115.46 71.8141 115.116C71.6141 114.772 71.3381 114.512 70.9861 114.336C70.6341 114.16 70.2501 114.072 69.8341 114.072C69.2101 114.072 68.6781 114.272 68.2381 114.672C67.7981 115.072 67.5541 115.636 67.5061 116.364H72.1141ZM75.331 114.888C75.539 114.448 75.867 114.084 76.315 113.796C76.771 113.5 77.311 113.352 77.935 113.352C78.527 113.352 79.059 113.492 79.531 113.772C80.011 114.044 80.383 114.436 80.647 114.948C80.919 115.452 81.055 116.04 81.055 116.712C81.055 117.384 80.919 117.976 80.647 118.488C80.383 119 80.011 119.396 79.531 119.676C79.059 119.956 78.527 120.096 77.935 120.096C77.319 120.096 76.783 119.952 76.327 119.664C75.871 119.368 75.539 119 75.331 118.56V123.096H74.503V113.448H75.331V114.888ZM80.203 116.712C80.203 116.168 80.095 115.7 79.879 115.308C79.671 114.908 79.383 114.604 79.015 114.396C78.647 114.188 78.231 114.084 77.767 114.084C77.319 114.084 76.907 114.192 76.531 114.408C76.163 114.624 75.871 114.932 75.655 115.332C75.439 115.732 75.331 116.196 75.331 116.724C75.331 117.252 75.439 117.716 75.655 118.116C75.871 118.516 76.163 118.824 76.531 119.04C76.907 119.256 77.319 119.364 77.767 119.364C78.231 119.364 78.647 119.26 79.015 119.052C79.383 118.836 79.671 118.528 79.879 118.128C80.095 117.72 80.203 117.248 80.203 116.712ZM83.6926 114.156V118.224C83.6926 118.624 83.7686 118.9 83.9206 119.052C84.0726 119.204 84.3406 119.28 84.7246 119.28H85.4926V120H84.5926C84.0006 120 83.5606 119.864 83.2726 119.592C82.9846 119.312 82.8406 118.856 82.8406 118.224V114.156H81.9286V113.448H82.8406V111.804H83.6926V113.448H85.4926V114.156H83.6926ZM92.806 116.388C92.806 116.676 92.798 116.896 92.782 117.048H87.346C87.37 117.544 87.49 117.968 87.706 118.32C87.922 118.672 88.206 118.94 88.558 119.124C88.91 119.3 89.294 119.388 89.71 119.388C90.254 119.388 90.71 119.256 91.078 118.992C91.454 118.728 91.702 118.372 91.822 117.924H92.71C92.55 118.564 92.206 119.088 91.678 119.496C91.158 119.896 90.502 120.096 89.71 120.096C89.094 120.096 88.542 119.96 88.054 119.688C87.566 119.408 87.182 119.016 86.902 118.512C86.63 118 86.494 117.404 86.494 116.724C86.494 116.044 86.63 115.448 86.902 114.936C87.174 114.424 87.554 114.032 88.042 113.76C88.53 113.488 89.086 113.352 89.71 113.352C90.334 113.352 90.878 113.488 91.342 113.76C91.814 114.032 92.174 114.4 92.422 114.864C92.678 115.32 92.806 115.828 92.806 116.388ZM91.954 116.364C91.962 115.876 91.862 115.46 91.654 115.116C91.454 114.772 91.178 114.512 90.826 114.336C90.474 114.16 90.09 114.072 89.674 114.072C89.05 114.072 88.518 114.272 88.078 114.672C87.638 115.072 87.394 115.636 87.346 116.364H91.954ZM100.019 113.448V120H99.1788V118.848C98.9868 119.256 98.6908 119.568 98.2908 119.784C97.8908 120 97.4428 120.108 96.9468 120.108C96.1628 120.108 95.5228 119.868 95.0268 119.388C94.5308 118.9 94.2828 118.196 94.2828 117.276V113.448H95.1108V117.18C95.1108 117.892 95.2868 118.436 95.6388 118.812C95.9988 119.188 96.4868 119.376 97.1028 119.376C97.7348 119.376 98.2388 119.176 98.6148 118.776C98.9908 118.376 99.1788 117.788 99.1788 117.012V113.448H100.019ZM102.777 114.612C102.961 114.204 103.241 113.888 103.617 113.664C104.001 113.44 104.469 113.328 105.021 113.328V114.204H104.793C104.185 114.204 103.697 114.368 103.329 114.696C102.961 115.024 102.777 115.572 102.777 116.34V120H101.937V113.448H102.777V114.612ZM111.833 120.096C111.081 120.096 110.465 119.924 109.985 119.58C109.513 119.228 109.249 118.752 109.193 118.152H110.057C110.097 118.52 110.269 118.82 110.573 119.052C110.885 119.276 111.301 119.388 111.821 119.388C112.277 119.388 112.633 119.28 112.889 119.064C113.153 118.848 113.285 118.58 113.285 118.26C113.285 118.036 113.213 117.852 113.069 117.708C112.925 117.564 112.741 117.452 112.517 117.372C112.301 117.284 112.005 117.192 111.629 117.096C111.141 116.968 110.745 116.84 110.441 116.712C110.137 116.584 109.877 116.396 109.661 116.148C109.453 115.892 109.349 115.552 109.349 115.128C109.349 114.808 109.445 114.512 109.637 114.24C109.829 113.968 110.101 113.752 110.453 113.592C110.805 113.432 111.205 113.352 111.653 113.352C112.357 113.352 112.925 113.532 113.357 113.892C113.789 114.244 114.021 114.732 114.053 115.356H113.213C113.189 114.972 113.037 114.664 112.757 114.432C112.485 114.192 112.109 114.072 111.629 114.072C111.205 114.072 110.861 114.172 110.597 114.372C110.333 114.572 110.201 114.82 110.201 115.116C110.201 115.372 110.277 115.584 110.429 115.752C110.589 115.912 110.785 116.04 111.017 116.136C111.249 116.224 111.561 116.324 111.953 116.436C112.425 116.564 112.801 116.688 113.081 116.808C113.361 116.928 113.601 117.104 113.801 117.336C114.001 117.568 114.105 117.876 114.113 118.26C114.113 118.612 114.017 118.928 113.825 119.208C113.633 119.48 113.365 119.696 113.021 119.856C112.677 120.016 112.281 120.096 111.833 120.096ZM116.114 112.212C115.946 112.212 115.802 112.152 115.682 112.032C115.562 111.912 115.502 111.764 115.502 111.588C115.502 111.412 115.562 111.268 115.682 111.156C115.802 111.036 115.946 110.976 116.114 110.976C116.282 110.976 116.426 111.036 116.546 111.156C116.666 111.268 116.726 111.412 116.726 111.588C116.726 111.764 116.666 111.912 116.546 112.032C116.426 112.152 116.282 112.212 116.114 112.212ZM116.534 113.448V120H115.694V113.448H116.534ZM121.509 113.328C122.293 113.328 122.933 113.572 123.429 114.06C123.925 114.54 124.173 115.24 124.173 116.16V120H123.345V116.256C123.345 115.544 123.165 115 122.805 114.624C122.453 114.248 121.969 114.06 121.353 114.06C120.721 114.06 120.217 114.26 119.841 114.66C119.465 115.06 119.277 115.648 119.277 116.424V120H118.437V113.448H119.277V114.564C119.485 114.164 119.785 113.86 120.177 113.652C120.569 113.436 121.013 113.328 121.509 113.328ZM127.122 114.156V118.224C127.122 118.624 127.198 118.9 127.35 119.052C127.502 119.204 127.77 119.28 128.154 119.28H128.922V120H128.022C127.43 120 126.99 119.864 126.702 119.592C126.414 119.312 126.27 118.856 126.27 118.224V114.156H125.358V113.448H126.27V111.804H127.122V113.448H128.922V114.156H127.122ZM136.469 120.096C135.853 120.096 135.297 119.96 134.801 119.688C134.313 119.408 133.925 119.016 133.637 118.512C133.357 118 133.217 117.404 133.217 116.724C133.217 116.044 133.361 115.452 133.649 114.948C133.937 114.436 134.329 114.044 134.825 113.772C135.321 113.492 135.877 113.352 136.493 113.352C137.109 113.352 137.665 113.492 138.161 113.772C138.665 114.044 139.057 114.436 139.337 114.948C139.625 115.452 139.769 116.044 139.769 116.724C139.769 117.396 139.625 117.988 139.337 118.5C139.049 119.012 138.653 119.408 138.149 119.688C137.645 119.96 137.085 120.096 136.469 120.096ZM136.469 119.364C136.901 119.364 137.301 119.268 137.669 119.076C138.037 118.876 138.333 118.58 138.557 118.188C138.789 117.788 138.905 117.3 138.905 116.724C138.905 116.148 138.793 115.664 138.569 115.272C138.345 114.872 138.049 114.576 137.681 114.384C137.313 114.184 136.913 114.084 136.481 114.084C136.049 114.084 135.649 114.184 135.281 114.384C134.913 114.576 134.617 114.872 134.393 115.272C134.177 115.664 134.069 116.148 134.069 116.724C134.069 117.3 134.177 117.788 134.393 118.188C134.617 118.58 134.909 118.876 135.269 119.076C135.637 119.268 136.037 119.364 136.469 119.364ZM140.916 116.724C140.916 116.044 141.052 115.452 141.324 114.948C141.596 114.436 141.972 114.044 142.452 113.772C142.932 113.492 143.48 113.352 144.096 113.352C144.904 113.352 145.568 113.552 146.088 113.952C146.616 114.352 146.956 114.896 147.108 115.584H146.208C146.096 115.112 145.852 114.744 145.476 114.48C145.108 114.208 144.648 114.072 144.096 114.072C143.656 114.072 143.26 114.172 142.908 114.372C142.556 114.572 142.276 114.872 142.068 115.272C141.868 115.664 141.768 116.148 141.768 116.724C141.768 117.3 141.868 117.788 142.068 118.188C142.276 118.588 142.556 118.888 142.908 119.088C143.26 119.288 143.656 119.388 144.096 119.388C144.648 119.388 145.108 119.256 145.476 118.992C145.852 118.72 146.096 118.344 146.208 117.864H147.108C146.956 118.536 146.616 119.076 146.088 119.484C145.56 119.892 144.896 120.096 144.096 120.096C143.48 120.096 142.932 119.96 142.452 119.688C141.972 119.408 141.596 119.016 141.324 118.512C141.052 118 140.916 117.404 140.916 116.724ZM148.275 116.724C148.275 116.044 148.411 115.452 148.683 114.948C148.955 114.436 149.331 114.044 149.811 113.772C150.291 113.492 150.839 113.352 151.455 113.352C152.263 113.352 152.927 113.552 153.447 113.952C153.975 114.352 154.315 114.896 154.467 115.584H153.567C153.455 115.112 153.211 114.744 152.835 114.48C152.467 114.208 152.007 114.072 151.455 114.072C151.015 114.072 150.619 114.172 150.267 114.372C149.915 114.572 149.635 114.872 149.427 115.272C149.227 115.664 149.127 116.148 149.127 116.724C149.127 117.3 149.227 117.788 149.427 118.188C149.635 118.588 149.915 118.888 150.267 119.088C150.619 119.288 151.015 119.388 151.455 119.388C152.007 119.388 152.467 119.256 152.835 118.992C153.211 118.72 153.455 118.344 153.567 117.864H154.467C154.315 118.536 153.975 119.076 153.447 119.484C152.919 119.892 152.255 120.096 151.455 120.096C150.839 120.096 150.291 119.96 149.811 119.688C149.331 119.408 148.955 119.016 148.683 118.512C148.411 118 148.275 117.404 148.275 116.724ZM155.635 116.712C155.635 116.04 155.767 115.452 156.031 114.948C156.303 114.436 156.675 114.044 157.147 113.772C157.627 113.492 158.167 113.352 158.767 113.352C159.391 113.352 159.927 113.496 160.375 113.784C160.831 114.072 161.159 114.44 161.359 114.888V113.448H162.199V120H161.359V118.548C161.151 118.996 160.819 119.368 160.363 119.664C159.915 119.952 159.379 120.096 158.755 120.096C158.163 120.096 157.627 119.956 157.147 119.676C156.675 119.396 156.303 119 156.031 118.488C155.767 117.976 155.635 117.384 155.635 116.712ZM161.359 116.724C161.359 116.196 161.251 115.732 161.035 115.332C160.819 114.932 160.523 114.624 160.147 114.408C159.779 114.192 159.371 114.084 158.923 114.084C158.459 114.084 158.043 114.188 157.675 114.396C157.307 114.604 157.015 114.908 156.799 115.308C156.591 115.7 156.487 116.168 156.487 116.712C156.487 117.248 156.591 117.72 156.799 118.128C157.015 118.528 157.307 118.836 157.675 119.052C158.043 119.26 158.459 119.364 158.923 119.364C159.371 119.364 159.779 119.256 160.147 119.04C160.523 118.824 160.819 118.516 161.035 118.116C161.251 117.716 161.359 117.252 161.359 116.724ZM170.044 116.388C170.044 116.676 170.036 116.896 170.02 117.048H164.584C164.608 117.544 164.728 117.968 164.944 118.32C165.16 118.672 165.444 118.94 165.796 119.124C166.148 119.3 166.532 119.388 166.948 119.388C167.492 119.388 167.948 119.256 168.316 118.992C168.692 118.728 168.94 118.372 169.06 117.924H169.948C169.788 118.564 169.444 119.088 168.916 119.496C168.396 119.896 167.74 120.096 166.948 120.096C166.332 120.096 165.78 119.96 165.292 119.688C164.804 119.408 164.42 119.016 164.14 118.512C163.868 118 163.732 117.404 163.732 116.724C163.732 116.044 163.868 115.448 164.14 114.936C164.412 114.424 164.792 114.032 165.28 113.76C165.768 113.488 166.324 113.352 166.948 113.352C167.572 113.352 168.116 113.488 168.58 113.76C169.052 114.032 169.412 114.4 169.66 114.864C169.916 115.32 170.044 115.828 170.044 116.388ZM169.192 116.364C169.2 115.876 169.1 115.46 168.892 115.116C168.692 114.772 168.416 114.512 168.064 114.336C167.712 114.16 167.328 114.072 166.912 114.072C166.288 114.072 165.756 114.272 165.316 114.672C164.876 115.072 164.632 115.636 164.584 116.364H169.192ZM171.197 116.724C171.197 116.044 171.333 115.452 171.605 114.948C171.877 114.436 172.253 114.044 172.733 113.772C173.213 113.492 173.761 113.352 174.377 113.352C175.185 113.352 175.849 113.552 176.369 113.952C176.897 114.352 177.237 114.896 177.389 115.584H176.489C176.377 115.112 176.133 114.744 175.757 114.48C175.389 114.208 174.929 114.072 174.377 114.072C173.937 114.072 173.541 114.172 173.189 114.372C172.837 114.572 172.557 114.872 172.349 115.272C172.149 115.664 172.049 116.148 172.049 116.724C172.049 117.3 172.149 117.788 172.349 118.188C172.557 118.588 172.837 118.888 173.189 119.088C173.541 119.288 173.937 119.388 174.377 119.388C174.929 119.388 175.389 119.256 175.757 118.992C176.133 118.72 176.377 118.344 176.489 117.864H177.389C177.237 118.536 176.897 119.076 176.369 119.484C175.841 119.892 175.177 120.096 174.377 120.096C173.761 120.096 173.213 119.96 172.733 119.688C172.253 119.408 171.877 119.016 171.605 118.512C171.333 118 171.197 117.404 171.197 116.724ZM178.556 116.712C178.556 116.04 178.688 115.452 178.952 114.948C179.224 114.436 179.596 114.044 180.068 113.772C180.548 113.492 181.088 113.352 181.688 113.352C182.312 113.352 182.848 113.496 183.296 113.784C183.752 114.072 184.08 114.44 184.28 114.888V113.448H185.12V120H184.28V118.548C184.072 118.996 183.74 119.368 183.284 119.664C182.836 119.952 182.3 120.096 181.676 120.096C181.084 120.096 180.548 119.956 180.068 119.676C179.596 119.396 179.224 119 178.952 118.488C178.688 117.976 178.556 117.384 178.556 116.712ZM184.28 116.724C184.28 116.196 184.172 115.732 183.956 115.332C183.74 114.932 183.444 114.624 183.068 114.408C182.7 114.192 182.292 114.084 181.844 114.084C181.38 114.084 180.964 114.188 180.596 114.396C180.228 114.604 179.936 114.908 179.72 115.308C179.512 115.7 179.408 116.168 179.408 116.712C179.408 117.248 179.512 117.72 179.72 118.128C179.936 118.528 180.228 118.836 180.596 119.052C180.964 119.26 181.38 119.364 181.844 119.364C182.292 119.364 182.7 119.256 183.068 119.04C183.444 118.824 183.74 118.516 183.956 118.116C184.172 117.716 184.28 117.252 184.28 116.724ZM188.13 114.156V118.224C188.13 118.624 188.206 118.9 188.358 119.052C188.51 119.204 188.778 119.28 189.162 119.28H189.93V120H189.03C188.438 120 187.998 119.864 187.71 119.592C187.422 119.312 187.278 118.856 187.278 118.224V114.156H186.366V113.448H187.278V111.804H188.13V113.448H189.93V114.156H188.13ZM194.224 116.724C194.224 116.044 194.36 115.452 194.632 114.948C194.904 114.436 195.28 114.044 195.76 113.772C196.24 113.492 196.788 113.352 197.404 113.352C198.212 113.352 198.876 113.552 199.396 113.952C199.924 114.352 200.264 114.896 200.416 115.584H199.516C199.404 115.112 199.16 114.744 198.784 114.48C198.416 114.208 197.956 114.072 197.404 114.072C196.964 114.072 196.568 114.172 196.216 114.372C195.864 114.572 195.584 114.872 195.376 115.272C195.176 115.664 195.076 116.148 195.076 116.724C195.076 117.3 195.176 117.788 195.376 118.188C195.584 118.588 195.864 118.888 196.216 119.088C196.568 119.288 196.964 119.388 197.404 119.388C197.956 119.388 198.416 119.256 198.784 118.992C199.16 118.72 199.404 118.344 199.516 117.864H200.416C200.264 118.536 199.924 119.076 199.396 119.484C198.868 119.892 198.204 120.096 197.404 120.096C196.788 120.096 196.24 119.96 195.76 119.688C195.28 119.408 194.904 119.016 194.632 118.512C194.36 118 194.224 117.404 194.224 116.724ZM207.644 113.448V120H206.804V118.848C206.612 119.256 206.316 119.568 205.916 119.784C205.516 120 205.068 120.108 204.572 120.108C203.788 120.108 203.148 119.868 202.652 119.388C202.156 118.9 201.908 118.196 201.908 117.276V113.448H202.736V117.18C202.736 117.892 202.912 118.436 203.264 118.812C203.624 119.188 204.112 119.376 204.728 119.376C205.36 119.376 205.864 119.176 206.24 118.776C206.616 118.376 206.804 117.788 206.804 117.012V113.448H207.644ZM209.178 116.712C209.178 116.04 209.314 115.452 209.586 114.948C209.858 114.436 210.23 114.044 210.702 113.772C211.182 113.492 211.722 113.352 212.322 113.352C212.898 113.352 213.418 113.492 213.882 113.772C214.346 114.052 214.686 114.416 214.902 114.864V111.12H215.742V120H214.902V118.536C214.702 118.992 214.374 119.368 213.918 119.664C213.462 119.952 212.926 120.096 212.31 120.096C211.71 120.096 211.17 119.956 210.69 119.676C210.218 119.396 209.846 119 209.574 118.488C209.31 117.976 209.178 117.384 209.178 116.712ZM214.902 116.724C214.902 116.196 214.794 115.732 214.578 115.332C214.362 114.932 214.066 114.624 213.69 114.408C213.322 114.192 212.914 114.084 212.466 114.084C212.002 114.084 211.586 114.188 211.218 114.396C210.85 114.604 210.558 114.908 210.342 115.308C210.134 115.7 210.03 116.168 210.03 116.712C210.03 117.248 210.134 117.72 210.342 118.128C210.558 118.528 210.85 118.836 211.218 119.052C211.586 119.26 212.002 119.364 212.466 119.364C212.914 119.364 213.322 119.256 213.69 119.04C214.066 118.824 214.362 118.516 214.578 118.116C214.794 117.716 214.902 117.252 214.902 116.724ZM217.275 116.712C217.275 116.04 217.407 115.452 217.671 114.948C217.943 114.436 218.315 114.044 218.787 113.772C219.267 113.492 219.807 113.352 220.407 113.352C221.031 113.352 221.567 113.496 222.015 113.784C222.471 114.072 222.799 114.44 222.999 114.888V113.448H223.839V120H222.999V118.548C222.791 118.996 222.459 119.368 222.003 119.664C221.555 119.952 221.019 120.096 220.395 120.096C219.803 120.096 219.267 119.956 218.787 119.676C218.315 119.396 217.943 119 217.671 118.488C217.407 117.976 217.275 117.384 217.275 116.712ZM222.999 116.724C222.999 116.196 222.891 115.732 222.675 115.332C222.459 114.932 222.163 114.624 221.787 114.408C221.419 114.192 221.011 114.084 220.563 114.084C220.099 114.084 219.683 114.188 219.315 114.396C218.947 114.604 218.655 114.908 218.439 115.308C218.231 115.7 218.127 116.168 218.127 116.712C218.127 117.248 218.231 117.72 218.439 118.128C218.655 118.528 218.947 118.836 219.315 119.052C219.683 119.26 220.099 119.364 220.563 119.364C221.011 119.364 221.419 119.256 221.787 119.04C222.163 118.824 222.459 118.516 222.675 118.116C222.891 117.716 222.999 117.252 222.999 116.724ZM226.849 114.156V118.224C226.849 118.624 226.925 118.9 227.077 119.052C227.229 119.204 227.497 119.28 227.881 119.28H228.649V120H227.749C227.157 120 226.717 119.864 226.429 119.592C226.141 119.312 225.997 118.856 225.997 118.224V114.156H225.085V113.448H225.997V111.804H226.849V113.448H228.649V114.156H226.849ZM229.65 116.712C229.65 116.04 229.782 115.452 230.046 114.948C230.318 114.436 230.69 114.044 231.162 113.772C231.642 113.492 232.182 113.352 232.782 113.352C233.406 113.352 233.942 113.496 234.39 113.784C234.846 114.072 235.174 114.44 235.374 114.888V113.448H236.214V120H235.374V118.548C235.166 118.996 234.834 119.368 234.378 119.664C233.93 119.952 233.394 120.096 232.77 120.096C232.178 120.096 231.642 119.956 231.162 119.676C230.69 119.396 230.318 119 230.046 118.488C229.782 117.976 229.65 117.384 229.65 116.712ZM235.374 116.724C235.374 116.196 235.266 115.732 235.05 115.332C234.834 114.932 234.538 114.624 234.162 114.408C233.794 114.192 233.386 114.084 232.938 114.084C232.474 114.084 232.058 114.188 231.69 114.396C231.322 114.604 231.03 114.908 230.814 115.308C230.606 115.7 230.502 116.168 230.502 116.712C230.502 117.248 230.606 117.72 230.814 118.128C231.03 118.528 231.322 118.836 231.69 119.052C232.058 119.26 232.474 119.364 232.938 119.364C233.386 119.364 233.794 119.256 234.162 119.04C234.538 118.824 234.834 118.516 235.05 118.116C235.266 117.716 235.374 117.252 235.374 116.724ZM239.224 114.156V118.224C239.224 118.624 239.3 118.9 239.452 119.052C239.604 119.204 239.872 119.28 240.256 119.28H241.024V120H240.124C239.532 120 239.092 119.864 238.804 119.592C238.516 119.312 238.372 118.856 238.372 118.224V114.156H237.46V113.448H238.372V111.804H239.224V113.448H241.024V114.156H239.224ZM248.774 113.328C249.558 113.328 250.198 113.572 250.694 114.06C251.19 114.54 251.438 115.24 251.438 116.16V120H250.61V116.256C250.61 115.544 250.43 115 250.07 114.624C249.718 114.248 249.234 114.06 248.618 114.06C247.986 114.06 247.482 114.26 247.106 114.66C246.73 115.06 246.542 115.648 246.542 116.424V120H245.702V113.448H246.542V114.564C246.75 114.164 247.05 113.86 247.442 113.652C247.834 113.436 248.278 113.328 248.774 113.328ZM256.164 120.096C255.548 120.096 254.992 119.96 254.496 119.688C254.008 119.408 253.62 119.016 253.332 118.512C253.052 118 252.912 117.404 252.912 116.724C252.912 116.044 253.056 115.452 253.344 114.948C253.632 114.436 254.024 114.044 254.52 113.772C255.016 113.492 255.572 113.352 256.188 113.352C256.804 113.352 257.36 113.492 257.856 113.772C258.36 114.044 258.752 114.436 259.032 114.948C259.32 115.452 259.464 116.044 259.464 116.724C259.464 117.396 259.32 117.988 259.032 118.5C258.744 119.012 258.348 119.408 257.844 119.688C257.34 119.96 256.78 120.096 256.164 120.096ZM256.164 119.364C256.596 119.364 256.996 119.268 257.364 119.076C257.732 118.876 258.028 118.58 258.252 118.188C258.484 117.788 258.6 117.3 258.6 116.724C258.6 116.148 258.488 115.664 258.264 115.272C258.04 114.872 257.744 114.576 257.376 114.384C257.008 114.184 256.608 114.084 256.176 114.084C255.744 114.084 255.344 114.184 254.976 114.384C254.608 114.576 254.312 114.872 254.088 115.272C253.872 115.664 253.764 116.148 253.764 116.724C253.764 117.3 253.872 117.788 254.088 118.188C254.312 118.58 254.604 118.876 254.964 119.076C255.332 119.268 255.732 119.364 256.164 119.364ZM264.067 113.328C264.851 113.328 265.491 113.572 265.987 114.06C266.483 114.54 266.731 115.24 266.731 116.16V120H265.903V116.256C265.903 115.544 265.723 115 265.363 114.624C265.011 114.248 264.527 114.06 263.911 114.06C263.279 114.06 262.775 114.26 262.399 114.66C262.023 115.06 261.835 115.648 261.835 116.424V120H260.995V113.448H261.835V114.564C262.043 114.164 262.343 113.86 262.735 113.652C263.127 113.436 263.571 113.328 264.067 113.328ZM277.81 116.388C277.81 116.676 277.802 116.896 277.786 117.048H272.35C272.374 117.544 272.494 117.968 272.71 118.32C272.926 118.672 273.21 118.94 273.562 119.124C273.914 119.3 274.298 119.388 274.714 119.388C275.258 119.388 275.714 119.256 276.082 118.992C276.458 118.728 276.706 118.372 276.826 117.924H277.714C277.554 118.564 277.21 119.088 276.682 119.496C276.162 119.896 275.506 120.096 274.714 120.096C274.098 120.096 273.546 119.96 273.058 119.688C272.57 119.408 272.186 119.016 271.906 118.512C271.634 118 271.498 117.404 271.498 116.724C271.498 116.044 271.634 115.448 271.906 114.936C272.178 114.424 272.558 114.032 273.046 113.76C273.534 113.488 274.09 113.352 274.714 113.352C275.338 113.352 275.882 113.488 276.346 113.76C276.818 114.032 277.178 114.4 277.426 114.864C277.682 115.32 277.81 115.828 277.81 116.388ZM276.958 116.364C276.966 115.876 276.866 115.46 276.658 115.116C276.458 114.772 276.182 114.512 275.83 114.336C275.478 114.16 275.094 114.072 274.678 114.072C274.054 114.072 273.522 114.272 273.082 114.672C272.642 115.072 272.398 115.636 272.35 116.364H276.958ZM282.419 113.328C283.203 113.328 283.843 113.572 284.339 114.06C284.835 114.54 285.083 115.24 285.083 116.16V120H284.255V116.256C284.255 115.544 284.075 115 283.715 114.624C283.363 114.248 282.879 114.06 282.263 114.06C281.631 114.06 281.127 114.26 280.751 114.66C280.375 115.06 280.187 115.648 280.187 116.424V120H279.347V113.448H280.187V114.564C280.395 114.164 280.695 113.86 281.087 113.652C281.479 113.436 281.923 113.328 282.419 113.328ZM288.032 114.156V118.224C288.032 118.624 288.108 118.9 288.26 119.052C288.412 119.204 288.68 119.28 289.064 119.28H289.832V120H288.932C288.34 120 287.9 119.864 287.612 119.592C287.324 119.312 287.18 118.856 287.18 118.224V114.156H286.268V113.448H287.18V111.804H288.032V113.448H289.832V114.156H288.032ZM291.986 118.608L290.738 121.752H290.162L291.05 118.608H291.986ZM298.841 120.096C298.089 120.096 297.473 119.924 296.993 119.58C296.521 119.228 296.257 118.752 296.201 118.152H297.065C297.105 118.52 297.277 118.82 297.581 119.052C297.893 119.276 298.309 119.388 298.829 119.388C299.285 119.388 299.641 119.28 299.897 119.064C300.161 118.848 300.293 118.58 300.293 118.26C300.293 118.036 300.221 117.852 300.077 117.708C299.933 117.564 299.749 117.452 299.525 117.372C299.309 117.284 299.013 117.192 298.637 117.096C298.149 116.968 297.753 116.84 297.449 116.712C297.145 116.584 296.885 116.396 296.669 116.148C296.461 115.892 296.357 115.552 296.357 115.128C296.357 114.808 296.453 114.512 296.645 114.24C296.837 113.968 297.109 113.752 297.461 113.592C297.813 113.432 298.213 113.352 298.661 113.352C299.365 113.352 299.933 113.532 300.365 113.892C300.797 114.244 301.029 114.732 301.061 115.356H300.221C300.197 114.972 300.045 114.664 299.765 114.432C299.493 114.192 299.117 114.072 298.637 114.072C298.213 114.072 297.869 114.172 297.605 114.372C297.341 114.572 297.209 114.82 297.209 115.116C297.209 115.372 297.285 115.584 297.437 115.752C297.597 115.912 297.793 116.04 298.025 116.136C298.257 116.224 298.569 116.324 298.961 116.436C299.433 116.564 299.809 116.688 300.089 116.808C300.369 116.928 300.609 117.104 300.809 117.336C301.009 117.568 301.113 117.876 301.121 118.26C301.121 118.612 301.025 118.928 300.833 119.208C300.641 119.48 300.373 119.696 300.029 119.856C299.685 120.016 299.289 120.096 298.841 120.096ZM308.378 113.448V120H307.538V118.848C307.346 119.256 307.05 119.568 306.65 119.784C306.25 120 305.802 120.108 305.306 120.108C304.522 120.108 303.882 119.868 303.386 119.388C302.89 118.9 302.642 118.196 302.642 117.276V113.448H303.47V117.18C303.47 117.892 303.646 118.436 303.998 118.812C304.358 119.188 304.846 119.376 305.462 119.376C306.094 119.376 306.598 119.176 306.974 118.776C307.35 118.376 307.538 117.788 307.538 117.012V113.448H308.378ZM313.368 113.328C314.152 113.328 314.792 113.572 315.288 114.06C315.784 114.54 316.032 115.24 316.032 116.16V120H315.204V116.256C315.204 115.544 315.024 115 314.664 114.624C314.312 114.248 313.828 114.06 313.212 114.06C312.58 114.06 312.076 114.26 311.7 114.66C311.324 115.06 311.136 115.648 311.136 116.424V120H310.296V113.448H311.136V114.564C311.344 114.164 311.644 113.86 312.036 113.652C312.428 113.436 312.872 113.328 313.368 113.328ZM318.982 114.156V118.224C318.982 118.624 319.058 118.9 319.21 119.052C319.362 119.204 319.63 119.28 320.014 119.28H320.782V120H319.882C319.29 120 318.85 119.864 318.562 119.592C318.274 119.312 318.13 118.856 318.13 118.224V114.156H317.218V113.448H318.13V111.804H318.982V113.448H320.782V114.156H318.982ZM325.88 112.212C325.712 112.212 325.568 112.152 325.448 112.032C325.328 111.912 325.268 111.764 325.268 111.588C325.268 111.412 325.328 111.268 325.448 111.156C325.568 111.036 325.712 110.976 325.88 110.976C326.048 110.976 326.192 111.036 326.312 111.156C326.432 111.268 326.492 111.412 326.492 111.588C326.492 111.764 326.432 111.912 326.312 112.032C326.192 112.152 326.048 112.212 325.88 112.212ZM326.3 113.448V120H325.46V113.448H326.3ZM331.274 113.328C332.058 113.328 332.698 113.572 333.194 114.06C333.69 114.54 333.938 115.24 333.938 116.16V120H333.11V116.256C333.11 115.544 332.93 115 332.57 114.624C332.218 114.248 331.734 114.06 331.118 114.06C330.486 114.06 329.982 114.26 329.606 114.66C329.23 115.06 329.042 115.648 329.042 116.424V120H328.202V113.448H329.042V114.564C329.25 114.164 329.55 113.86 329.942 113.652C330.334 113.436 330.778 113.328 331.274 113.328ZM104.933 135.724C104.933 135.044 105.069 134.452 105.341 133.948C105.613 133.436 105.989 133.044 106.469 132.772C106.949 132.492 107.497 132.352 108.113 132.352C108.921 132.352 109.585 132.552 110.105 132.952C110.633 133.352 110.973 133.896 111.125 134.584H110.225C110.113 134.112 109.869 133.744 109.493 133.48C109.125 133.208 108.665 133.072 108.113 133.072C107.673 133.072 107.277 133.172 106.925 133.372C106.573 133.572 106.293 133.872 106.085 134.272C105.885 134.664 105.785 135.148 105.785 135.724C105.785 136.3 105.885 136.788 106.085 137.188C106.293 137.588 106.573 137.888 106.925 138.088C107.277 138.288 107.673 138.388 108.113 138.388C108.665 138.388 109.125 138.256 109.493 137.992C109.869 137.72 110.113 137.344 110.225 136.864H111.125C110.973 137.536 110.633 138.076 110.105 138.484C109.577 138.892 108.913 139.096 108.113 139.096C107.497 139.096 106.949 138.96 106.469 138.688C105.989 138.408 105.613 138.016 105.341 137.512C105.069 137 104.933 136.404 104.933 135.724ZM118.353 132.448V139H117.513V137.848C117.321 138.256 117.025 138.568 116.625 138.784C116.225 139 115.777 139.108 115.281 139.108C114.497 139.108 113.857 138.868 113.361 138.388C112.865 137.9 112.617 137.196 112.617 136.276V132.448H113.445V136.18C113.445 136.892 113.621 137.436 113.973 137.812C114.333 138.188 114.821 138.376 115.437 138.376C116.069 138.376 116.573 138.176 116.949 137.776C117.325 137.376 117.513 136.788 117.513 136.012V132.448H118.353ZM121.111 130.12V139H120.271V130.12H121.111ZM123.841 133.888C124.049 133.448 124.377 133.084 124.825 132.796C125.281 132.5 125.821 132.352 126.445 132.352C127.037 132.352 127.569 132.492 128.041 132.772C128.521 133.044 128.893 133.436 129.157 133.948C129.429 134.452 129.565 135.04 129.565 135.712C129.565 136.384 129.429 136.976 129.157 137.488C128.893 138 128.521 138.396 128.041 138.676C127.569 138.956 127.037 139.096 126.445 139.096C125.829 139.096 125.293 138.952 124.837 138.664C124.381 138.368 124.049 138 123.841 137.56V142.096H123.013V132.448H123.841V133.888ZM128.713 135.712C128.713 135.168 128.605 134.7 128.389 134.308C128.181 133.908 127.893 133.604 127.525 133.396C127.157 133.188 126.741 133.084 126.277 133.084C125.829 133.084 125.417 133.192 125.041 133.408C124.673 133.624 124.381 133.932 124.165 134.332C123.949 134.732 123.841 135.196 123.841 135.724C123.841 136.252 123.949 136.716 124.165 137.116C124.381 137.516 124.673 137.824 125.041 138.04C125.417 138.256 125.829 138.364 126.277 138.364C126.741 138.364 127.157 138.26 127.525 138.052C127.893 137.836 128.181 137.528 128.389 137.128C128.605 136.72 128.713 136.248 128.713 135.712ZM130.726 135.712C130.726 135.04 130.858 134.452 131.122 133.948C131.394 133.436 131.766 133.044 132.238 132.772C132.718 132.492 133.258 132.352 133.858 132.352C134.482 132.352 135.018 132.496 135.466 132.784C135.922 133.072 136.25 133.44 136.45 133.888V132.448H137.29V139H136.45V137.548C136.242 137.996 135.91 138.368 135.454 138.664C135.006 138.952 134.47 139.096 133.846 139.096C133.254 139.096 132.718 138.956 132.238 138.676C131.766 138.396 131.394 138 131.122 137.488C130.858 136.976 130.726 136.384 130.726 135.712ZM136.45 135.724C136.45 135.196 136.342 134.732 136.126 134.332C135.91 133.932 135.614 133.624 135.238 133.408C134.87 133.192 134.462 133.084 134.014 133.084C133.55 133.084 133.134 133.188 132.766 133.396C132.398 133.604 132.106 133.908 131.89 134.308C131.682 134.7 131.578 135.168 131.578 135.712C131.578 136.248 131.682 136.72 131.89 137.128C132.106 137.528 132.398 137.836 132.766 138.052C133.134 138.26 133.55 138.364 134.014 138.364C134.462 138.364 134.87 138.256 135.238 138.04C135.614 137.824 135.91 137.516 136.126 137.116C136.342 136.716 136.45 136.252 136.45 135.724ZM142.117 135.712C142.117 135.04 142.253 134.452 142.525 133.948C142.797 133.436 143.169 133.044 143.641 132.772C144.121 132.492 144.661 132.352 145.261 132.352C145.877 132.352 146.413 132.5 146.869 132.796C147.325 133.084 147.649 133.448 147.841 133.888V132.448H148.681V142.096H147.841V137.56C147.649 138 147.321 138.368 146.857 138.664C146.401 138.952 145.861 139.096 145.237 139.096C144.645 139.096 144.109 138.956 143.629 138.676C143.157 138.396 142.785 138 142.513 137.488C142.249 136.976 142.117 136.384 142.117 135.712ZM147.841 135.724C147.841 135.196 147.733 134.732 147.517 134.332C147.301 133.932 147.005 133.624 146.629 133.408C146.261 133.192 145.853 133.084 145.405 133.084C144.941 133.084 144.525 133.188 144.157 133.396C143.789 133.604 143.497 133.908 143.281 134.308C143.073 134.7 142.969 135.168 142.969 135.712C142.969 136.248 143.073 136.72 143.281 137.128C143.497 137.528 143.789 137.836 144.157 138.052C144.525 138.26 144.941 138.364 145.405 138.364C145.853 138.364 146.261 138.256 146.629 138.04C147.005 137.824 147.301 137.516 147.517 137.116C147.733 136.716 147.841 136.252 147.841 135.724ZM156.275 132.448V139H155.435V137.848C155.243 138.256 154.947 138.568 154.547 138.784C154.147 139 153.699 139.108 153.203 139.108C152.419 139.108 151.779 138.868 151.283 138.388C150.787 137.9 150.539 137.196 150.539 136.276V132.448H151.367V136.18C151.367 136.892 151.543 137.436 151.895 137.812C152.255 138.188 152.743 138.376 153.359 138.376C153.991 138.376 154.495 138.176 154.871 137.776C155.247 137.376 155.435 136.788 155.435 136.012V132.448H156.275ZM158.612 131.212C158.444 131.212 158.3 131.152 158.18 131.032C158.06 130.912 158 130.764 158 130.588C158 130.412 158.06 130.268 158.18 130.156C158.3 130.036 158.444 129.976 158.612 129.976C158.78 129.976 158.924 130.036 159.044 130.156C159.164 130.268 159.224 130.412 159.224 130.588C159.224 130.764 159.164 130.912 159.044 131.032C158.924 131.152 158.78 131.212 158.612 131.212ZM159.032 132.448V139H158.192V132.448H159.032ZM167.096 139.096C166.48 139.096 165.924 138.96 165.428 138.688C164.94 138.408 164.552 138.016 164.264 137.512C163.984 137 163.844 136.404 163.844 135.724C163.844 135.044 163.988 134.452 164.276 133.948C164.564 133.436 164.956 133.044 165.452 132.772C165.948 132.492 166.504 132.352 167.12 132.352C167.736 132.352 168.292 132.492 168.788 132.772C169.292 133.044 169.684 133.436 169.964 133.948C170.252 134.452 170.396 135.044 170.396 135.724C170.396 136.396 170.252 136.988 169.964 137.5C169.676 138.012 169.28 138.408 168.776 138.688C168.272 138.96 167.712 139.096 167.096 139.096ZM167.096 138.364C167.528 138.364 167.928 138.268 168.296 138.076C168.664 137.876 168.96 137.58 169.184 137.188C169.416 136.788 169.532 136.3 169.532 135.724C169.532 135.148 169.42 134.664 169.196 134.272C168.972 133.872 168.676 133.576 168.308 133.384C167.94 133.184 167.54 133.084 167.108 133.084C166.676 133.084 166.276 133.184 165.908 133.384C165.54 133.576 165.244 133.872 165.02 134.272C164.804 134.664 164.696 135.148 164.696 135.724C164.696 136.3 164.804 136.788 165.02 137.188C165.244 137.58 165.536 137.876 165.896 138.076C166.264 138.268 166.664 138.364 167.096 138.364ZM174.507 133.156H172.983V139H172.143V133.156H171.231V132.448H172.143V131.992C172.143 131.28 172.323 130.756 172.683 130.42C173.051 130.084 173.643 129.916 174.459 129.916V130.636C173.915 130.636 173.531 130.74 173.307 130.948C173.091 131.156 172.983 131.504 172.983 131.992V132.448H174.507V133.156ZM178.409 133.156H176.885V139H176.045V133.156H175.133V132.448H176.045V131.992C176.045 131.28 176.225 130.756 176.585 130.42C176.953 130.084 177.545 129.916 178.361 129.916V130.636C177.817 130.636 177.433 130.74 177.209 130.948C176.993 131.156 176.885 131.504 176.885 131.992V132.448H178.409V133.156ZM180.151 131.212C179.983 131.212 179.839 131.152 179.719 131.032C179.599 130.912 179.539 130.764 179.539 130.588C179.539 130.412 179.599 130.268 179.719 130.156C179.839 130.036 179.983 129.976 180.151 129.976C180.319 129.976 180.463 130.036 180.583 130.156C180.703 130.268 180.763 130.412 180.763 130.588C180.763 130.764 180.703 130.912 180.583 131.032C180.463 131.152 180.319 131.212 180.151 131.212ZM180.571 132.448V139H179.731V132.448H180.571ZM182.09 135.724C182.09 135.044 182.226 134.452 182.498 133.948C182.77 133.436 183.146 133.044 183.626 132.772C184.106 132.492 184.654 132.352 185.27 132.352C186.078 132.352 186.742 132.552 187.262 132.952C187.79 133.352 188.13 133.896 188.282 134.584H187.382C187.27 134.112 187.026 133.744 186.65 133.48C186.282 133.208 185.822 133.072 185.27 133.072C184.83 133.072 184.434 133.172 184.082 133.372C183.73 133.572 183.45 133.872 183.242 134.272C183.042 134.664 182.942 135.148 182.942 135.724C182.942 136.3 183.042 136.788 183.242 137.188C183.45 137.588 183.73 137.888 184.082 138.088C184.434 138.288 184.83 138.388 185.27 138.388C185.822 138.388 186.282 138.256 186.65 137.992C187.026 137.72 187.27 137.344 187.382 136.864H188.282C188.13 137.536 187.79 138.076 187.262 138.484C186.734 138.892 186.07 139.096 185.27 139.096C184.654 139.096 184.106 138.96 183.626 138.688C183.146 138.408 182.77 138.016 182.498 137.512C182.226 137 182.09 136.404 182.09 135.724ZM190.253 131.212C190.085 131.212 189.941 131.152 189.821 131.032C189.701 130.912 189.641 130.764 189.641 130.588C189.641 130.412 189.701 130.268 189.821 130.156C189.941 130.036 190.085 129.976 190.253 129.976C190.421 129.976 190.565 130.036 190.685 130.156C190.805 130.268 190.865 130.412 190.865 130.588C190.865 130.764 190.805 130.912 190.685 131.032C190.565 131.152 190.421 131.212 190.253 131.212ZM190.673 132.448V139H189.833V132.448H190.673ZM192.191 135.712C192.191 135.04 192.323 134.452 192.587 133.948C192.859 133.436 193.231 133.044 193.703 132.772C194.183 132.492 194.723 132.352 195.323 132.352C195.947 132.352 196.483 132.496 196.931 132.784C197.387 133.072 197.715 133.44 197.915 133.888V132.448H198.755V139H197.915V137.548C197.707 137.996 197.375 138.368 196.919 138.664C196.471 138.952 195.935 139.096 195.311 139.096C194.719 139.096 194.183 138.956 193.703 138.676C193.231 138.396 192.859 138 192.587 137.488C192.323 136.976 192.191 136.384 192.191 135.712ZM197.915 135.724C197.915 135.196 197.807 134.732 197.591 134.332C197.375 133.932 197.079 133.624 196.703 133.408C196.335 133.192 195.927 133.084 195.479 133.084C195.015 133.084 194.599 133.188 194.231 133.396C193.863 133.604 193.571 133.908 193.355 134.308C193.147 134.7 193.043 135.168 193.043 135.712C193.043 136.248 193.147 136.72 193.355 137.128C193.571 137.528 193.863 137.836 194.231 138.052C194.599 138.26 195.015 138.364 195.479 138.364C195.927 138.364 196.335 138.256 196.703 138.04C197.079 137.824 197.375 137.516 197.591 137.116C197.807 136.716 197.915 136.252 197.915 135.724ZM204.806 130.12V139H203.966V130.12H204.806ZM209.576 139.096C208.96 139.096 208.404 138.96 207.908 138.688C207.42 138.408 207.032 138.016 206.744 137.512C206.464 137 206.324 136.404 206.324 135.724C206.324 135.044 206.468 134.452 206.756 133.948C207.044 133.436 207.436 133.044 207.932 132.772C208.428 132.492 208.984 132.352 209.6 132.352C210.216 132.352 210.772 132.492 211.268 132.772C211.772 133.044 212.164 133.436 212.444 133.948C212.732 134.452 212.876 135.044 212.876 135.724C212.876 136.396 212.732 136.988 212.444 137.5C212.156 138.012 211.76 138.408 211.256 138.688C210.752 138.96 210.192 139.096 209.576 139.096ZM209.576 138.364C210.008 138.364 210.408 138.268 210.776 138.076C211.144 137.876 211.44 137.58 211.664 137.188C211.896 136.788 212.012 136.3 212.012 135.724C212.012 135.148 211.9 134.664 211.676 134.272C211.452 133.872 211.156 133.576 210.788 133.384C210.42 133.184 210.02 133.084 209.588 133.084C209.156 133.084 208.756 133.184 208.388 133.384C208.02 133.576 207.724 133.872 207.5 134.272C207.284 134.664 207.176 135.148 207.176 135.724C207.176 136.3 207.284 136.788 207.5 137.188C207.724 137.58 208.016 137.876 208.376 138.076C208.744 138.268 209.144 138.364 209.576 138.364ZM215.247 133.612C215.431 133.204 215.711 132.888 216.087 132.664C216.471 132.44 216.939 132.328 217.491 132.328V133.204H217.263C216.655 133.204 216.167 133.368 215.799 133.696C215.431 134.024 215.247 134.572 215.247 135.34V139H214.407V132.448H215.247V133.612ZM224.683 135.388C224.683 135.676 224.675 135.896 224.659 136.048H219.223C219.247 136.544 219.367 136.968 219.583 137.32C219.799 137.672 220.083 137.94 220.435 138.124C220.787 138.3 221.171 138.388 221.587 138.388C222.131 138.388 222.587 138.256 222.955 137.992C223.331 137.728 223.579 137.372 223.699 136.924H224.587C224.427 137.564 224.083 138.088 223.555 138.496C223.035 138.896 222.379 139.096 221.587 139.096C220.971 139.096 220.419 138.96 219.931 138.688C219.443 138.408 219.059 138.016 218.779 137.512C218.507 137 218.371 136.404 218.371 135.724C218.371 135.044 218.507 134.448 218.779 133.936C219.051 133.424 219.431 133.032 219.919 132.76C220.407 132.488 220.963 132.352 221.587 132.352C222.211 132.352 222.755 132.488 223.219 132.76C223.691 133.032 224.051 133.4 224.299 133.864C224.555 134.32 224.683 134.828 224.683 135.388ZM223.831 135.364C223.839 134.876 223.739 134.46 223.531 134.116C223.331 133.772 223.055 133.512 222.703 133.336C222.351 133.16 221.967 133.072 221.551 133.072C220.927 133.072 220.395 133.272 219.955 133.672C219.515 134.072 219.271 134.636 219.223 135.364H223.831ZM234.02 132.328C234.788 132.328 235.412 132.572 235.892 133.06C236.38 133.54 236.624 134.24 236.624 135.16V139H235.796V135.256C235.796 134.544 235.624 134 235.28 133.624C234.936 133.248 234.468 133.06 233.876 133.06C233.26 133.06 232.768 133.264 232.4 133.672C232.032 134.08 231.848 134.672 231.848 135.448V139H231.02V135.256C231.02 134.544 230.848 134 230.504 133.624C230.16 133.248 229.688 133.06 229.088 133.06C228.472 133.06 227.98 133.264 227.612 133.672C227.244 134.08 227.06 134.672 227.06 135.448V139H226.22V132.448H227.06V133.576C227.268 133.168 227.564 132.86 227.948 132.652C228.332 132.436 228.76 132.328 229.232 132.328C229.8 132.328 230.296 132.464 230.72 132.736C231.152 133.008 231.464 133.408 231.656 133.936C231.832 133.416 232.132 133.02 232.556 132.748C232.988 132.468 233.476 132.328 234.02 132.328ZM242.202 131.212C242.034 131.212 241.89 131.152 241.77 131.032C241.65 130.912 241.59 130.764 241.59 130.588C241.59 130.412 241.65 130.268 241.77 130.156C241.89 130.036 242.034 129.976 242.202 129.976C242.37 129.976 242.514 130.036 242.634 130.156C242.754 130.268 242.814 130.412 242.814 130.588C242.814 130.764 242.754 130.912 242.634 131.032C242.514 131.152 242.37 131.212 242.202 131.212ZM242.622 132.448V139H241.782V132.448H242.622ZM245.352 133.888C245.56 133.448 245.888 133.084 246.336 132.796C246.792 132.5 247.332 132.352 247.956 132.352C248.548 132.352 249.08 132.492 249.552 132.772C250.032 133.044 250.404 133.436 250.668 133.948C250.94 134.452 251.076 135.04 251.076 135.712C251.076 136.384 250.94 136.976 250.668 137.488C250.404 138 250.032 138.396 249.552 138.676C249.08 138.956 248.548 139.096 247.956 139.096C247.34 139.096 246.804 138.952 246.348 138.664C245.892 138.368 245.56 138 245.352 137.56V142.096H244.524V132.448H245.352V133.888ZM250.224 135.712C250.224 135.168 250.116 134.7 249.9 134.308C249.692 133.908 249.404 133.604 249.036 133.396C248.668 133.188 248.252 133.084 247.788 133.084C247.34 133.084 246.928 133.192 246.552 133.408C246.184 133.624 245.892 133.932 245.676 134.332C245.46 134.732 245.352 135.196 245.352 135.724C245.352 136.252 245.46 136.716 245.676 137.116C245.892 137.516 246.184 137.824 246.552 138.04C246.928 138.256 247.34 138.364 247.788 138.364C248.252 138.364 248.668 138.26 249.036 138.052C249.404 137.836 249.692 137.528 249.9 137.128C250.116 136.72 250.224 136.248 250.224 135.712ZM254.878 139.096C254.126 139.096 253.51 138.924 253.03 138.58C252.558 138.228 252.294 137.752 252.238 137.152H253.102C253.142 137.52 253.314 137.82 253.618 138.052C253.93 138.276 254.346 138.388 254.866 138.388C255.322 138.388 255.678 138.28 255.934 138.064C256.198 137.848 256.33 137.58 256.33 137.26C256.33 137.036 256.258 136.852 256.114 136.708C255.97 136.564 255.786 136.452 255.562 136.372C255.346 136.284 255.05 136.192 254.674 136.096C254.186 135.968 253.79 135.84 253.486 135.712C253.182 135.584 252.922 135.396 252.706 135.148C252.498 134.892 252.394 134.552 252.394 134.128C252.394 133.808 252.49 133.512 252.682 133.24C252.874 132.968 253.146 132.752 253.498 132.592C253.85 132.432 254.25 132.352 254.698 132.352C255.402 132.352 255.97 132.532 256.402 132.892C256.834 133.244 257.066 133.732 257.098 134.356H256.258C256.234 133.972 256.082 133.664 255.802 133.432C255.53 133.192 255.154 133.072 254.674 133.072C254.25 133.072 253.906 133.172 253.642 133.372C253.378 133.572 253.246 133.82 253.246 134.116C253.246 134.372 253.322 134.584 253.474 134.752C253.634 134.912 253.83 135.04 254.062 135.136C254.294 135.224 254.606 135.324 254.998 135.436C255.47 135.564 255.846 135.688 256.126 135.808C256.406 135.928 256.646 136.104 256.846 136.336C257.046 136.568 257.15 136.876 257.158 137.26C257.158 137.612 257.062 137.928 256.87 138.208C256.678 138.48 256.41 138.696 256.066 138.856C255.722 139.016 255.326 139.096 254.878 139.096ZM264.415 132.448V139H263.575V137.848C263.383 138.256 263.087 138.568 262.687 138.784C262.287 139 261.839 139.108 261.343 139.108C260.559 139.108 259.919 138.868 259.423 138.388C258.927 137.9 258.679 137.196 258.679 136.276V132.448H259.507V136.18C259.507 136.892 259.683 137.436 260.035 137.812C260.395 138.188 260.883 138.376 261.499 138.376C262.131 138.376 262.635 138.176 263.011 137.776C263.387 137.376 263.575 136.788 263.575 136.012V132.448H264.415ZM274.133 132.328C274.901 132.328 275.525 132.572 276.005 133.06C276.493 133.54 276.737 134.24 276.737 135.16V139H275.909V135.256C275.909 134.544 275.737 134 275.393 133.624C275.049 133.248 274.581 133.06 273.989 133.06C273.373 133.06 272.881 133.264 272.513 133.672C272.145 134.08 271.961 134.672 271.961 135.448V139H271.133V135.256C271.133 134.544 270.961 134 270.617 133.624C270.273 133.248 269.801 133.06 269.201 133.06C268.585 133.06 268.093 133.264 267.725 133.672C267.357 134.08 267.173 134.672 267.173 135.448V139H266.333V132.448H267.173V133.576C267.381 133.168 267.677 132.86 268.061 132.652C268.445 132.436 268.873 132.328 269.345 132.328C269.913 132.328 270.409 132.464 270.833 132.736C271.265 133.008 271.577 133.408 271.769 133.936C271.945 133.416 272.245 133.02 272.669 132.748C273.101 132.468 273.589 132.328 274.133 132.328Z" fill="#3F3F40"/>
<rect x="40.5" y="175.5" width="229" height="44" rx="3.5" fill="white" stroke="#2A2A2A"/>
<path d="M68.6717 202.084C68.1197 202.084 67.6237 201.988 67.1837 201.796C66.7517 201.596 66.4117 201.324 66.1637 200.98C65.9157 200.628 65.7877 200.224 65.7797 199.768H66.9437C66.9837 200.16 67.1437 200.492 67.4237 200.764C67.7117 201.028 68.1277 201.16 68.6717 201.16C69.1917 201.16 69.5997 201.032 69.8957 200.776C70.1997 200.512 70.3517 200.176 70.3517 199.768C70.3517 199.448 70.2637 199.188 70.0877 198.988C69.9117 198.788 69.6917 198.636 69.4277 198.532C69.1637 198.428 68.8077 198.316 68.3597 198.196C67.8077 198.052 67.3637 197.908 67.0277 197.764C66.6997 197.62 66.4157 197.396 66.1757 197.092C65.9437 196.78 65.8277 196.364 65.8277 195.844C65.8277 195.388 65.9437 194.984 66.1757 194.632C66.4077 194.28 66.7317 194.008 67.1477 193.816C67.5717 193.624 68.0557 193.528 68.5997 193.528C69.3837 193.528 70.0237 193.724 70.5197 194.116C71.0237 194.508 71.3077 195.028 71.3717 195.676H70.1717C70.1317 195.356 69.9637 195.076 69.6677 194.836C69.3717 194.588 68.9797 194.464 68.4917 194.464C68.0357 194.464 67.6637 194.584 67.3757 194.824C67.0877 195.056 66.9437 195.384 66.9437 195.808C66.9437 196.112 67.0277 196.36 67.1957 196.552C67.3717 196.744 67.5837 196.892 67.8317 196.996C68.0877 197.092 68.4437 197.204 68.8997 197.332C69.4517 197.484 69.8957 197.636 70.2317 197.788C70.5677 197.932 70.8557 198.16 71.0957 198.472C71.3357 198.776 71.4557 199.192 71.4557 199.72C71.4557 200.128 71.3477 200.512 71.1317 200.872C70.9157 201.232 70.5957 201.524 70.1717 201.748C69.7477 201.972 69.2477 202.084 68.6717 202.084ZM74.1547 194.524V197.32H77.2027V198.22H74.1547V201.1H77.5627V202H73.0627V193.624H77.5627V194.524H74.1547ZM80.283 193.636V198.928C80.283 199.672 80.463 200.224 80.823 200.584C81.191 200.944 81.699 201.124 82.347 201.124C82.987 201.124 83.487 200.944 83.847 200.584C84.215 200.224 84.399 199.672 84.399 198.928V193.636H85.491V198.916C85.491 199.612 85.351 200.2 85.071 200.68C84.791 201.152 84.411 201.504 83.931 201.736C83.459 201.968 82.927 202.084 82.335 202.084C81.743 202.084 81.207 201.968 80.727 201.736C80.255 201.504 79.879 201.152 79.599 200.68C79.327 200.2 79.191 199.612 79.191 198.916V193.636H80.283ZM91.6039 194.524V197.32H94.6519V198.22H91.6039V201.1H95.0119V202H90.5119V193.624H95.0119V194.524H91.6039ZM101.224 197.14V198.064H96.4362V197.14H101.224ZM111.758 193.696V202H110.666V195.808L107.906 202H107.138L104.366 195.796V202H103.274V193.696H104.45L107.522 200.56L110.594 193.696H111.758ZM118.554 200.14H114.906L114.234 202H113.082L116.106 193.684H117.366L120.378 202H119.226L118.554 200.14ZM118.242 199.252L116.73 195.028L115.218 199.252H118.242ZM122.787 193.636V202H121.695V193.636H122.787ZM125.741 201.112H128.669V202H124.649V193.636H125.741V201.112Z" fill="#C0C0C0"/>
<rect x="279" y="175" width="62" height="45" rx="4" fill="#F71963"/>
<path d="M305.632 203.098C304.708 203.098 303.859 202.883 303.084 202.454C302.319 202.025 301.708 201.427 301.25 200.662C300.802 199.887 300.578 199.019 300.578 198.058C300.578 197.097 300.802 196.233 301.25 195.468C301.708 194.703 302.319 194.105 303.084 193.676C303.859 193.247 304.708 193.032 305.632 193.032C306.556 193.032 307.401 193.247 308.166 193.676C308.941 194.105 309.548 194.703 309.986 195.468C310.434 196.233 310.658 197.097 310.658 198.058C310.658 199.019 310.434 199.887 309.986 200.662C309.538 201.427 308.932 202.025 308.166 202.454C307.401 202.883 306.556 203.098 305.632 203.098ZM305.632 200.914C306.416 200.914 307.042 200.653 307.508 200.13C307.984 199.607 308.222 198.917 308.222 198.058C308.222 197.19 307.984 196.499 307.508 195.986C307.042 195.463 306.416 195.202 305.632 195.202C304.839 195.202 304.204 195.459 303.728 195.972C303.262 196.485 303.028 197.181 303.028 198.058C303.028 198.926 303.262 199.621 303.728 200.144C304.204 200.657 304.839 200.914 305.632 200.914ZM317.688 203L314.384 198.66V203H311.99V193.172H314.384V197.484L317.66 193.172H320.474L316.666 197.988L320.614 203H317.688Z" fill="white"/>
</svg>
