<svg width="150" height="236" viewBox="0 0 150 236" fill="none" xmlns="http://www.w3.org/2000/svg">
<path d="M5.496 55.612V56.308H1.8V59.44H4.92V60.136H1.8V64H0.96V55.612H5.496ZM11.738 62.008H7.92197L7.18997 64H6.30197L9.36197 55.72H10.31L13.358 64H12.47L11.738 62.008ZM11.486 61.312L9.82997 56.776L8.17397 61.312H11.486ZM15.5461 63.316H18.5581V64H14.7061V55.612H15.5461V63.316ZM20.5969 56.296V59.428H23.7769V60.124H20.5969V63.304H24.1369V64H19.7569V55.6H24.1369V56.296H20.5969ZM28.701 59.8C28.701 58.976 28.881 58.24 29.241 57.592C29.601 56.936 30.093 56.428 30.717 56.068C31.341 55.7 32.037 55.516 32.805 55.516C33.741 55.516 34.541 55.74 35.205 56.188C35.877 56.628 36.365 57.252 36.669 58.06H35.685C35.445 57.492 35.077 57.048 34.581 56.728C34.093 56.408 33.501 56.248 32.805 56.248C32.189 56.248 31.633 56.392 31.137 56.68C30.649 56.968 30.265 57.384 29.985 57.928C29.705 58.464 29.565 59.088 29.565 59.8C29.565 60.512 29.705 61.136 29.985 61.672C30.265 62.208 30.649 62.62 31.137 62.908C31.633 63.196 32.189 63.34 32.805 63.34C33.501 63.34 34.093 63.184 34.581 62.872C35.077 62.552 35.445 62.112 35.685 61.552H36.669C36.365 62.352 35.877 62.972 35.205 63.412C34.533 63.852 33.733 64.072 32.805 64.072C32.037 64.072 31.341 63.892 30.717 63.532C30.093 63.164 29.601 62.656 29.241 62.008C28.881 61.36 28.701 60.624 28.701 59.8ZM42.1108 64.084C41.3348 64.084 40.6308 63.904 39.9988 63.544C39.3668 63.176 38.8668 62.668 38.4988 62.02C38.1388 61.364 37.9588 60.624 37.9588 59.8C37.9588 58.976 38.1388 58.24 38.4988 57.592C38.8668 56.936 39.3668 56.428 39.9988 56.068C40.6308 55.7 41.3348 55.516 42.1108 55.516C42.8948 55.516 43.6028 55.7 44.2348 56.068C44.8668 56.428 45.3628 56.936 45.7228 57.592C46.0828 58.24 46.2628 58.976 46.2628 59.8C46.2628 60.624 46.0828 61.364 45.7228 62.02C45.3628 62.668 44.8668 63.176 44.2348 63.544C43.6028 63.904 42.8948 64.084 42.1108 64.084ZM42.1108 63.352C42.7348 63.352 43.2948 63.208 43.7908 62.92C44.2868 62.632 44.6788 62.22 44.9668 61.684C45.2548 61.14 45.3988 60.512 45.3988 59.8C45.3988 59.088 45.2548 58.464 44.9668 57.928C44.6788 57.392 44.2868 56.98 43.7908 56.692C43.2948 56.404 42.7348 56.26 42.1108 56.26C41.4868 56.26 40.9268 56.404 40.4308 56.692C39.9348 56.98 39.5428 57.392 39.2548 57.928C38.9668 58.464 38.8228 59.088 38.8228 59.8C38.8228 60.512 38.9668 61.14 39.2548 61.684C39.5428 62.22 39.9348 62.632 40.4308 62.92C40.9268 63.208 41.4868 63.352 42.1108 63.352ZM54.1238 64H53.2838L48.6398 56.944V64H47.7998V55.612H48.6398L53.2838 62.656V55.612H54.1238V64ZM59.7944 64.084C59.0184 64.084 58.3144 63.904 57.6824 63.544C57.0504 63.176 56.5504 62.668 56.1824 62.02C55.8224 61.364 55.6424 60.624 55.6424 59.8C55.6424 58.976 55.8224 58.24 56.1824 57.592C56.5504 56.936 57.0504 56.428 57.6824 56.068C58.3144 55.7 59.0184 55.516 59.7944 55.516C60.5784 55.516 61.2864 55.7 61.9184 56.068C62.5504 56.428 63.0464 56.936 63.4064 57.592C63.7664 58.24 63.9464 58.976 63.9464 59.8C63.9464 60.624 63.7664 61.364 63.4064 62.02C63.0464 62.668 62.5504 63.176 61.9184 63.544C61.2864 63.904 60.5784 64.084 59.7944 64.084ZM59.7944 63.352C60.4184 63.352 60.9784 63.208 61.4744 62.92C61.9704 62.632 62.3624 62.22 62.6504 61.684C62.9384 61.14 63.0824 60.512 63.0824 59.8C63.0824 59.088 62.9384 58.464 62.6504 57.928C62.3624 57.392 61.9704 56.98 61.4744 56.692C60.9784 56.404 60.4184 56.26 59.7944 56.26C59.1704 56.26 58.6104 56.404 58.1144 56.692C57.6184 56.98 57.2264 57.392 56.9384 57.928C56.6504 58.464 56.5064 59.088 56.5064 59.8C56.5064 60.512 56.6504 61.14 56.9384 61.684C57.2264 62.22 57.6184 62.632 58.1144 62.92C58.6104 63.208 59.1704 63.352 59.7944 63.352ZM68.0274 64.084C67.4754 64.084 66.9874 63.988 66.5634 63.796C66.1474 63.604 65.8194 63.336 65.5794 62.992C65.3394 62.648 65.2114 62.264 65.1954 61.84H66.0834C66.1234 62.248 66.3034 62.608 66.6234 62.92C66.9434 63.224 67.4114 63.376 68.0274 63.376C68.5954 63.376 69.0434 63.232 69.3714 62.944C69.7074 62.648 69.8754 62.276 69.8754 61.828C69.8754 61.468 69.7834 61.18 69.5994 60.964C69.4154 60.74 69.1874 60.576 68.9154 60.472C68.6434 60.36 68.2674 60.24 67.7874 60.112C67.2274 59.96 66.7834 59.812 66.4554 59.668C66.1274 59.524 65.8474 59.3 65.6154 58.996C65.3834 58.692 65.2674 58.28 65.2674 57.76C65.2674 57.328 65.3794 56.944 65.6034 56.608C65.8274 56.264 66.1434 55.996 66.5514 55.804C66.9594 55.612 67.4274 55.516 67.9554 55.516C68.7314 55.516 69.3554 55.708 69.8274 56.092C70.3074 56.468 70.5834 56.956 70.6554 57.556H69.7434C69.6874 57.212 69.4994 56.908 69.1794 56.644C68.8594 56.372 68.4274 56.236 67.8834 56.236C67.3794 56.236 66.9594 56.372 66.6234 56.644C66.2874 56.908 66.1194 57.272 66.1194 57.736C66.1194 58.088 66.2114 58.372 66.3954 58.588C66.5794 58.804 66.8074 58.968 67.0794 59.08C67.3594 59.192 67.7354 59.312 68.2074 59.44C68.7514 59.592 69.1914 59.744 69.5274 59.896C69.8634 60.04 70.1474 60.264 70.3794 60.568C70.6114 60.872 70.7274 61.28 70.7274 61.792C70.7274 62.184 70.6234 62.556 70.4154 62.908C70.2074 63.26 69.8994 63.544 69.4914 63.76C69.0834 63.976 68.5954 64.084 68.0274 64.084ZM71.9666 59.8C71.9666 58.976 72.1466 58.24 72.5066 57.592C72.8666 56.936 73.3586 56.428 73.9826 56.068C74.6066 55.7 75.3026 55.516 76.0706 55.516C77.0066 55.516 77.8066 55.74 78.4706 56.188C79.1426 56.628 79.6306 57.252 79.9346 58.06H78.9506C78.7106 57.492 78.3426 57.048 77.8466 56.728C77.3586 56.408 76.7666 56.248 76.0706 56.248C75.4546 56.248 74.8986 56.392 74.4026 56.68C73.9146 56.968 73.5306 57.384 73.2506 57.928C72.9706 58.464 72.8306 59.088 72.8306 59.8C72.8306 60.512 72.9706 61.136 73.2506 61.672C73.5306 62.208 73.9146 62.62 74.4026 62.908C74.8986 63.196 75.4546 63.34 76.0706 63.34C76.7666 63.34 77.3586 63.184 77.8466 62.872C78.3426 62.552 78.7106 62.112 78.9506 61.552H79.9346C79.6306 62.352 79.1426 62.972 78.4706 63.412C77.7986 63.852 76.9986 64.072 76.0706 64.072C75.3026 64.072 74.6066 63.892 73.9826 63.532C73.3586 63.164 72.8666 62.656 72.5066 62.008C72.1466 61.36 71.9666 60.624 71.9666 59.8ZM85.3764 64.084C84.6004 64.084 83.8964 63.904 83.2644 63.544C82.6324 63.176 82.1324 62.668 81.7644 62.02C81.4044 61.364 81.2244 60.624 81.2244 59.8C81.2244 58.976 81.4044 58.24 81.7644 57.592C82.1324 56.936 82.6324 56.428 83.2644 56.068C83.8964 55.7 84.6004 55.516 85.3764 55.516C86.1604 55.516 86.8684 55.7 87.5004 56.068C88.1324 56.428 88.6284 56.936 88.9884 57.592C89.3484 58.24 89.5284 58.976 89.5284 59.8C89.5284 60.624 89.3484 61.364 88.9884 62.02C88.6284 62.668 88.1324 63.176 87.5004 63.544C86.8684 63.904 86.1604 64.084 85.3764 64.084ZM85.3764 63.352C86.0004 63.352 86.5604 63.208 87.0564 62.92C87.5524 62.632 87.9444 62.22 88.2324 61.684C88.5204 61.14 88.6644 60.512 88.6644 59.8C88.6644 59.088 88.5204 58.464 88.2324 57.928C87.9444 57.392 87.5524 56.98 87.0564 56.692C86.5604 56.404 86.0004 56.26 85.3764 56.26C84.7524 56.26 84.1924 56.404 83.6964 56.692C83.2004 56.98 82.8084 57.392 82.5204 57.928C82.2324 58.464 82.0884 59.088 82.0884 59.8C82.0884 60.512 82.2324 61.14 82.5204 61.684C82.8084 62.22 83.2004 62.632 83.6964 62.92C84.1924 63.208 84.7524 63.352 85.3764 63.352ZM3.444 87.612C4.372 87.612 5.168 87.78 5.832 88.116C6.496 88.452 7.004 88.936 7.356 89.568C7.708 90.2 7.884 90.952 7.884 91.824C7.884 92.688 7.708 93.436 7.356 94.068C7.004 94.692 6.496 95.172 5.832 95.508C5.168 95.836 4.372 96 3.444 96H0.96V87.612H3.444ZM3.444 95.304C4.612 95.304 5.5 95 6.108 94.392C6.724 93.776 7.032 92.92 7.032 91.824C7.032 90.72 6.724 89.86 6.108 89.244C5.5 88.62 4.612 88.308 3.444 88.308H1.8V95.304H3.444ZM10.2367 87.612V92.892C10.2367 93.724 10.4327 94.34 10.8247 94.74C11.2247 95.14 11.7687 95.34 12.4567 95.34C13.1447 95.34 13.6807 95.144 14.0647 94.752C14.4567 94.352 14.6527 93.732 14.6527 92.892V87.612H15.4927V92.88C15.4927 93.944 15.2087 94.744 14.6407 95.28C14.0807 95.816 13.3487 96.084 12.4447 96.084C11.5407 96.084 10.8047 95.816 10.2367 95.28C9.67666 94.744 9.39666 93.944 9.39666 92.88V87.612H10.2367ZM13.5487 85.788L11.0887 87.216V86.568L13.5487 85.032V85.788ZM24.0143 87.612L20.8343 96H19.8743L16.6943 87.612H17.6063L20.3543 95.088L23.1263 87.612H24.0143ZM26.1164 87.612V96H25.2764V87.612H26.1164ZM30.5026 87.612C31.4306 87.612 32.2266 87.78 32.8906 88.116C33.5546 88.452 34.0626 88.936 34.4146 89.568C34.7666 90.2 34.9426 90.952 34.9426 91.824C34.9426 92.688 34.7666 93.436 34.4146 94.068C34.0626 94.692 33.5546 95.172 32.8906 95.508C32.2266 95.836 31.4306 96 30.5026 96H28.0186V87.612H30.5026ZM30.5026 95.304C31.6706 95.304 32.5586 95 33.1666 94.392C33.7826 93.776 34.0906 92.92 34.0906 91.824C34.0906 90.72 33.7826 89.86 33.1666 89.244C32.5586 88.62 31.6706 88.308 30.5026 88.308H28.8586V95.304H30.5026ZM41.3513 94.008H37.5353L36.8033 96H35.9153L38.9753 87.72H39.9233L42.9713 96H42.0833L41.3513 94.008ZM41.0993 93.312L39.4433 88.776L37.7873 93.312H41.0993ZM46.8634 96.084C46.3114 96.084 45.8234 95.988 45.3994 95.796C44.9834 95.604 44.6554 95.336 44.4154 94.992C44.1754 94.648 44.0474 94.264 44.0314 93.84H44.9194C44.9594 94.248 45.1394 94.608 45.4594 94.92C45.7794 95.224 46.2474 95.376 46.8634 95.376C47.4314 95.376 47.8794 95.232 48.2074 94.944C48.5434 94.648 48.7114 94.276 48.7114 93.828C48.7114 93.468 48.6194 93.18 48.4354 92.964C48.2514 92.74 48.0234 92.576 47.7514 92.472C47.4794 92.36 47.1034 92.24 46.6234 92.112C46.0634 91.96 45.6194 91.812 45.2914 91.668C44.9634 91.524 44.6834 91.3 44.4514 90.996C44.2194 90.692 44.1034 90.28 44.1034 89.76C44.1034 89.328 44.2154 88.944 44.4394 88.608C44.6634 88.264 44.9794 87.996 45.3874 87.804C45.7954 87.612 46.2634 87.516 46.7914 87.516C47.5674 87.516 48.1914 87.708 48.6634 88.092C49.1434 88.468 49.4194 88.956 49.4914 89.556H48.5794C48.5234 89.212 48.3354 88.908 48.0154 88.644C47.6954 88.372 47.2634 88.236 46.7194 88.236C46.2154 88.236 45.7954 88.372 45.4594 88.644C45.1234 88.908 44.9554 89.272 44.9554 89.736C44.9554 90.088 45.0474 90.372 45.2314 90.588C45.4154 90.804 45.6434 90.968 45.9154 91.08C46.1954 91.192 46.5714 91.312 47.0434 91.44C47.5874 91.592 48.0274 91.744 48.3634 91.896C48.6994 92.04 48.9834 92.264 49.2154 92.568C49.4474 92.872 49.5634 93.28 49.5634 93.792C49.5634 94.184 49.4594 94.556 49.2514 94.908C49.0434 95.26 48.7354 95.544 48.3274 95.76C47.9194 95.976 47.4314 96.084 46.8634 96.084ZM6.324 122.024C6.324 122.744 6.088 123.324 5.616 123.764C5.144 124.204 4.436 124.424 3.492 124.424H1.8V128H0.96V119.612H3.492C4.428 119.612 5.132 119.832 5.604 120.272C6.084 120.712 6.324 121.296 6.324 122.024ZM3.492 123.704C4.804 123.704 5.46 123.144 5.46 122.024C5.46 121.464 5.304 121.04 4.992 120.752C4.68 120.464 4.18 120.32 3.492 120.32H1.8V123.704H3.492ZM12.1974 128L10.1214 124.496H8.57344V128H7.73344V119.612H10.2534C11.1894 119.612 11.8974 119.836 12.3774 120.284C12.8654 120.732 13.1094 121.32 13.1094 122.048C13.1094 122.656 12.9334 123.176 12.5814 123.608C12.2374 124.032 11.7254 124.308 11.0454 124.436L13.2054 128H12.1974ZM8.57344 123.812H10.2654C10.9214 123.812 11.4134 123.652 11.7414 123.332C12.0774 123.012 12.2454 122.584 12.2454 122.048C12.2454 121.496 12.0854 121.072 11.7654 120.776C11.4454 120.472 10.9414 120.32 10.2534 120.32H8.57344V123.812ZM19.6364 126.008H15.8204L15.0884 128H14.2004L17.2604 119.72H18.2084L21.2564 128H20.3684L19.6364 126.008ZM19.3844 125.312L17.7284 120.776L16.0724 125.312H19.3844ZM23.1445 127.256H27.4285V128H22.1605V127.328L26.3845 120.356H22.2325V119.612H27.3685V120.284L23.1445 127.256ZM32.6772 128.084C31.9012 128.084 31.1972 127.904 30.5652 127.544C29.9332 127.176 29.4332 126.668 29.0652 126.02C28.7052 125.364 28.5252 124.624 28.5252 123.8C28.5252 122.976 28.7052 122.24 29.0652 121.592C29.4332 120.936 29.9332 120.428 30.5652 120.068C31.1972 119.7 31.9012 119.516 32.6772 119.516C33.4612 119.516 34.1692 119.7 34.8012 120.068C35.4332 120.428 35.9292 120.936 36.2892 121.592C36.6492 122.24 36.8292 122.976 36.8292 123.8C36.8292 124.624 36.6492 125.364 36.2892 126.02C35.9292 126.668 35.4332 127.176 34.8012 127.544C34.1692 127.904 33.4612 128.084 32.6772 128.084ZM32.6772 127.352C33.3012 127.352 33.8612 127.208 34.3572 126.92C34.8532 126.632 35.2452 126.22 35.5332 125.684C35.8212 125.14 35.9652 124.512 35.9652 123.8C35.9652 123.088 35.8212 122.464 35.5332 121.928C35.2452 121.392 34.8532 120.98 34.3572 120.692C33.8612 120.404 33.3012 120.26 32.6772 120.26C32.0532 120.26 31.4932 120.404 30.9972 120.692C30.5012 120.98 30.1092 121.392 29.8212 121.928C29.5332 122.464 29.3892 123.088 29.3892 123.8C29.3892 124.512 29.5332 125.14 29.8212 125.684C30.1092 126.22 30.5012 126.632 30.9972 126.92C31.4932 127.208 32.0532 127.352 32.6772 127.352ZM40.9103 128.084C40.3583 128.084 39.8703 127.988 39.4463 127.796C39.0303 127.604 38.7023 127.336 38.4623 126.992C38.2223 126.648 38.0943 126.264 38.0783 125.84H38.9663C39.0063 126.248 39.1863 126.608 39.5063 126.92C39.8263 127.224 40.2943 127.376 40.9103 127.376C41.4783 127.376 41.9263 127.232 42.2543 126.944C42.5903 126.648 42.7583 126.276 42.7583 125.828C42.7583 125.468 42.6663 125.18 42.4823 124.964C42.2983 124.74 42.0703 124.576 41.7983 124.472C41.5263 124.36 41.1503 124.24 40.6703 124.112C40.1103 123.96 39.6663 123.812 39.3383 123.668C39.0103 123.524 38.7303 123.3 38.4983 122.996C38.2663 122.692 38.1503 122.28 38.1503 121.76C38.1503 121.328 38.2623 120.944 38.4863 120.608C38.7103 120.264 39.0263 119.996 39.4343 119.804C39.8423 119.612 40.3103 119.516 40.8383 119.516C41.6143 119.516 42.2383 119.708 42.7103 120.092C43.1903 120.468 43.4663 120.956 43.5383 121.556H42.6263C42.5703 121.212 42.3823 120.908 42.0623 120.644C41.7423 120.372 41.3103 120.236 40.7663 120.236C40.2623 120.236 39.8423 120.372 39.5063 120.644C39.1703 120.908 39.0023 121.272 39.0023 121.736C39.0023 122.088 39.0943 122.372 39.2783 122.588C39.4623 122.804 39.6903 122.968 39.9623 123.08C40.2423 123.192 40.6183 123.312 41.0903 123.44C41.6343 123.592 42.0743 123.744 42.4103 123.896C42.7463 124.04 43.0303 124.264 43.2623 124.568C43.4943 124.872 43.6103 125.28 43.6103 125.792C43.6103 126.184 43.5063 126.556 43.2983 126.908C43.0903 127.26 42.7823 127.544 42.3743 127.76C41.9663 127.976 41.4783 128.084 40.9103 128.084ZM51.0104 119.612C51.9384 119.612 52.7344 119.78 53.3984 120.116C54.0624 120.452 54.5704 120.936 54.9224 121.568C55.2744 122.2 55.4504 122.952 55.4504 123.824C55.4504 124.688 55.2744 125.436 54.9224 126.068C54.5704 126.692 54.0624 127.172 53.3984 127.508C52.7344 127.836 51.9384 128 51.0104 128H48.5264V119.612H51.0104ZM51.0104 127.304C52.1784 127.304 53.0664 127 53.6744 126.392C54.2904 125.776 54.5984 124.92 54.5984 123.824C54.5984 122.72 54.2904 121.86 53.6744 121.244C53.0664 120.62 52.1784 120.308 51.0104 120.308H49.3664V127.304H51.0104ZM57.8391 120.296V123.428H61.0191V124.124H57.8391V127.304H61.3791V128H56.9991V119.6H61.3791V120.296H57.8391ZM67.1672 120.296V123.428H70.3472V124.124H67.1672V127.304H70.7072V128H66.3272V119.6H70.7072V120.296H67.1672ZM78.6863 128H77.8463L73.2023 120.944V128H72.3623V119.612H73.2023L77.8463 126.656V119.612H78.6863V128ZM85.4969 119.612V120.308H83.1689V128H82.3289V120.308H79.9889V119.612H85.4969ZM91.2873 128L89.2113 124.496H87.6633V128H86.8233V119.612H89.3433C90.2793 119.612 90.9873 119.836 91.4673 120.284C91.9553 120.732 92.1993 121.32 92.1993 122.048C92.1993 122.656 92.0233 123.176 91.6713 123.608C91.3273 124.032 90.8153 124.308 90.1353 124.436L92.2953 128H91.2873ZM87.6633 123.812H89.3553C90.0113 123.812 90.5033 123.652 90.8313 123.332C91.1673 123.012 91.3353 122.584 91.3353 122.048C91.3353 121.496 91.1753 121.072 90.8553 120.776C90.5353 120.472 90.0313 120.32 89.3433 120.32H87.6633V123.812ZM94.7063 120.296V123.428H97.8863V124.124H94.7063V127.304H98.2463V128H93.8663V119.6H98.2463V120.296H94.7063ZM106.501 122.06C106.261 121.508 105.893 121.076 105.397 120.764C104.909 120.444 104.333 120.284 103.669 120.284C103.045 120.284 102.485 120.428 101.989 120.716C101.493 121.004 101.101 121.416 100.813 121.952C100.525 122.48 100.381 123.096 100.381 123.8C100.381 124.504 100.525 125.124 100.813 125.66C101.101 126.196 101.493 126.608 101.989 126.896C102.485 127.184 103.045 127.328 103.669 127.328C104.253 127.328 104.777 127.204 105.241 126.956C105.713 126.7 106.089 126.34 106.369 125.876C106.657 125.404 106.821 124.856 106.861 124.232H103.333V123.548H107.749V124.16C107.709 124.896 107.509 125.564 107.149 126.164C106.789 126.756 106.305 127.224 105.697 127.568C105.097 127.912 104.421 128.084 103.669 128.084C102.893 128.084 102.189 127.904 101.557 127.544C100.925 127.176 100.425 126.668 100.057 126.02C99.6974 125.364 99.5174 124.624 99.5174 123.8C99.5174 122.976 99.6974 122.24 100.057 121.592C100.425 120.936 100.925 120.428 101.557 120.068C102.189 119.7 102.893 119.516 103.669 119.516C104.565 119.516 105.349 119.74 106.021 120.188C106.693 120.636 107.181 121.26 107.485 122.06H106.501ZM114.148 126.008H110.332L109.6 128H108.712L111.772 119.72H112.72L115.768 128H114.88L114.148 126.008ZM113.896 125.312L112.24 120.776L110.584 125.312H113.896ZM5.496 151.612V152.308H1.8V155.44H4.92V156.136H1.8V160H0.96V151.612H5.496ZM10.646 160.084C9.86997 160.084 9.16597 159.904 8.53397 159.544C7.90197 159.176 7.40197 158.668 7.03397 158.02C6.67397 157.364 6.49397 156.624 6.49397 155.8C6.49397 154.976 6.67397 154.24 7.03397 153.592C7.40197 152.936 7.90197 152.428 8.53397 152.068C9.16597 151.7 9.86997 151.516 10.646 151.516C11.43 151.516 12.138 151.7 12.77 152.068C13.402 152.428 13.898 152.936 14.258 153.592C14.618 154.24 14.798 154.976 14.798 155.8C14.798 156.624 14.618 157.364 14.258 158.02C13.898 158.668 13.402 159.176 12.77 159.544C12.138 159.904 11.43 160.084 10.646 160.084ZM10.646 159.352C11.27 159.352 11.83 159.208 12.326 158.92C12.822 158.632 13.214 158.22 13.502 157.684C13.79 157.14 13.934 156.512 13.934 155.8C13.934 155.088 13.79 154.464 13.502 153.928C13.214 153.392 12.822 152.98 12.326 152.692C11.83 152.404 11.27 152.26 10.646 152.26C10.022 152.26 9.46197 152.404 8.96597 152.692C8.46997 152.98 8.07797 153.392 7.78997 153.928C7.50197 154.464 7.35797 155.088 7.35797 155.8C7.35797 156.512 7.50197 157.14 7.78997 157.684C8.07797 158.22 8.46997 158.632 8.96597 158.92C9.46197 159.208 10.022 159.352 10.646 159.352ZM20.799 160L18.723 156.496H17.175V160H16.335V151.612H18.855C19.791 151.612 20.499 151.836 20.979 152.284C21.467 152.732 21.711 153.32 21.711 154.048C21.711 154.656 21.535 155.176 21.183 155.608C20.839 156.032 20.327 156.308 19.647 156.436L21.807 160H20.799ZM17.175 155.812H18.867C19.523 155.812 20.015 155.652 20.343 155.332C20.679 155.012 20.847 154.584 20.847 154.048C20.847 153.496 20.687 153.072 20.367 152.776C20.047 152.472 19.543 152.32 18.855 152.32H17.175V155.812ZM31.574 151.72V160H30.734V153.388L27.782 160H27.17L24.218 153.412V160H23.378V151.72H24.266L27.47 158.896L30.674 151.72H31.574ZM38.3395 158.008H34.5235L33.7915 160H32.9035L35.9635 151.72H36.9115L39.9595 160H39.0715L38.3395 158.008ZM38.0875 157.312L36.4315 152.776L34.7755 157.312H38.0875ZM43.8517 160.084C43.2997 160.084 42.8117 159.988 42.3877 159.796C41.9717 159.604 41.6437 159.336 41.4037 158.992C41.1637 158.648 41.0357 158.264 41.0197 157.84H41.9077C41.9477 158.248 42.1277 158.608 42.4477 158.92C42.7677 159.224 43.2357 159.376 43.8517 159.376C44.4197 159.376 44.8677 159.232 45.1957 158.944C45.5317 158.648 45.6997 158.276 45.6997 157.828C45.6997 157.468 45.6077 157.18 45.4237 156.964C45.2397 156.74 45.0117 156.576 44.7397 156.472C44.4677 156.36 44.0917 156.24 43.6117 156.112C43.0517 155.96 42.6077 155.812 42.2797 155.668C41.9517 155.524 41.6717 155.3 41.4397 154.996C41.2077 154.692 41.0917 154.28 41.0917 153.76C41.0917 153.328 41.2037 152.944 41.4277 152.608C41.6517 152.264 41.9677 151.996 42.3757 151.804C42.7837 151.612 43.2517 151.516 43.7797 151.516C44.5557 151.516 45.1797 151.708 45.6517 152.092C46.1317 152.468 46.4077 152.956 46.4797 153.556H45.5677C45.5117 153.212 45.3237 152.908 45.0037 152.644C44.6837 152.372 44.2517 152.236 43.7077 152.236C43.2037 152.236 42.7837 152.372 42.4477 152.644C42.1117 152.908 41.9437 153.272 41.9437 153.736C41.9437 154.088 42.0357 154.372 42.2197 154.588C42.4037 154.804 42.6317 154.968 42.9037 155.08C43.1837 155.192 43.5597 155.312 44.0317 155.44C44.5757 155.592 45.0157 155.744 45.3517 155.896C45.6877 156.04 45.9717 156.264 46.2037 156.568C46.4357 156.872 46.5517 157.28 46.5517 157.792C46.5517 158.184 46.4477 158.556 46.2397 158.908C46.0317 159.26 45.7237 159.544 45.3157 159.76C44.9077 159.976 44.4197 160.084 43.8517 160.084ZM53.9518 151.612C54.8798 151.612 55.6758 151.78 56.3398 152.116C57.0038 152.452 57.5118 152.936 57.8638 153.568C58.2158 154.2 58.3918 154.952 58.3918 155.824C58.3918 156.688 58.2158 157.436 57.8638 158.068C57.5118 158.692 57.0038 159.172 56.3398 159.508C55.6758 159.836 54.8798 160 53.9518 160H51.4678V151.612H53.9518ZM53.9518 159.304C55.1198 159.304 56.0078 159 56.6158 158.392C57.2318 157.776 57.5398 156.92 57.5398 155.824C57.5398 154.72 57.2318 153.86 56.6158 153.244C56.0078 152.62 55.1198 152.308 53.9518 152.308H52.3078V159.304H53.9518ZM60.7805 152.296V155.428H63.9605V156.124H60.7805V159.304H64.3205V160H59.9405V151.6H64.3205V152.296H60.7805ZM74.6326 154.024C74.6326 154.744 74.3966 155.324 73.9246 155.764C73.4526 156.204 72.7446 156.424 71.8006 156.424H70.1086V160H69.2686V151.612H71.8006C72.7366 151.612 73.4406 151.832 73.9126 152.272C74.3926 152.712 74.6326 153.296 74.6326 154.024ZM71.8006 155.704C73.1126 155.704 73.7686 155.144 73.7686 154.024C73.7686 153.464 73.6126 153.04 73.3006 152.752C72.9886 152.464 72.4886 152.32 71.8006 152.32H70.1086V155.704H71.8006ZM80.902 158.008H77.086L76.354 160H75.466L78.526 151.72H79.474L82.522 160H81.634L80.902 158.008ZM80.65 157.312L78.994 152.776L77.338 157.312H80.65ZM90.4702 154.06C90.2302 153.508 89.8622 153.076 89.3662 152.764C88.8782 152.444 88.3022 152.284 87.6382 152.284C87.0142 152.284 86.4542 152.428 85.9582 152.716C85.4622 153.004 85.0702 153.416 84.7822 153.952C84.4942 154.48 84.3502 155.096 84.3502 155.8C84.3502 156.504 84.4942 157.124 84.7822 157.66C85.0702 158.196 85.4622 158.608 85.9582 158.896C86.4542 159.184 87.0142 159.328 87.6382 159.328C88.2222 159.328 88.7462 159.204 89.2102 158.956C89.6822 158.7 90.0582 158.34 90.3382 157.876C90.6262 157.404 90.7902 156.856 90.8302 156.232H87.3022V155.548H91.7182V156.16C91.6782 156.896 91.4782 157.564 91.1182 158.164C90.7582 158.756 90.2742 159.224 89.6662 159.568C89.0662 159.912 88.3902 160.084 87.6382 160.084C86.8622 160.084 86.1582 159.904 85.5262 159.544C84.8942 159.176 84.3942 158.668 84.0262 158.02C83.6662 157.364 83.4862 156.624 83.4862 155.8C83.4862 154.976 83.6662 154.24 84.0262 153.592C84.3942 152.936 84.8942 152.428 85.5262 152.068C86.1582 151.7 86.8622 151.516 87.6382 151.516C88.5342 151.516 89.3182 151.74 89.9902 152.188C90.6622 152.636 91.1502 153.26 91.4542 154.06H90.4702ZM98.1169 158.008H94.3009L93.5689 160H92.6809L95.7409 151.72H96.6889L99.7369 160H98.8489L98.1169 158.008ZM97.8649 157.312L96.2089 152.776L94.5529 157.312H97.8649ZM109.281 151.72V160H108.441V153.388L105.489 160H104.877L101.925 153.412V160H101.085V151.72H101.973L105.177 158.896L108.381 151.72H109.281ZM112.027 152.296V155.428H115.207V156.124H112.027V159.304H115.567V160H111.187V151.6H115.567V152.296H112.027ZM123.546 160H122.706L118.062 152.944V160H117.222V151.612H118.062L122.706 158.656V151.612H123.546V160ZM130.356 151.612V152.308H128.028V160H127.188V152.308H124.848V151.612H130.356ZM135.451 160.084C134.675 160.084 133.971 159.904 133.339 159.544C132.707 159.176 132.207 158.668 131.839 158.02C131.479 157.364 131.299 156.624 131.299 155.8C131.299 154.976 131.479 154.24 131.839 153.592C132.207 152.936 132.707 152.428 133.339 152.068C133.971 151.7 134.675 151.516 135.451 151.516C136.235 151.516 136.943 151.7 137.575 152.068C138.207 152.428 138.703 152.936 139.063 153.592C139.423 154.24 139.603 154.976 139.603 155.8C139.603 156.624 139.423 157.364 139.063 158.02C138.703 158.668 138.207 159.176 137.575 159.544C136.943 159.904 136.235 160.084 135.451 160.084ZM135.451 159.352C136.075 159.352 136.635 159.208 137.131 158.92C137.627 158.632 138.019 158.22 138.307 157.684C138.595 157.14 138.739 156.512 138.739 155.8C138.739 155.088 138.595 154.464 138.307 153.928C138.019 153.392 137.627 152.98 137.131 152.692C136.635 152.404 136.075 152.26 135.451 152.26C134.827 152.26 134.267 152.404 133.771 152.692C133.275 152.98 132.883 153.392 132.595 153.928C132.307 154.464 132.163 155.088 132.163 155.8C132.163 156.512 132.307 157.14 132.595 157.684C132.883 158.22 133.275 158.632 133.771 158.92C134.267 159.208 134.827 159.352 135.451 159.352ZM6.324 186.024C6.324 186.744 6.088 187.324 5.616 187.764C5.144 188.204 4.436 188.424 3.492 188.424H1.8V192H0.96V183.612H3.492C4.428 183.612 5.132 183.832 5.604 184.272C6.084 184.712 6.324 185.296 6.324 186.024ZM3.492 187.704C4.804 187.704 5.46 187.144 5.46 186.024C5.46 185.464 5.304 185.04 4.992 184.752C4.68 184.464 4.18 184.32 3.492 184.32H1.8V187.704H3.492ZM11.5014 192.084C10.7254 192.084 10.0214 191.904 9.38944 191.544C8.75744 191.176 8.25744 190.668 7.88944 190.02C7.52944 189.364 7.34944 188.624 7.34944 187.8C7.34944 186.976 7.52944 186.24 7.88944 185.592C8.25744 184.936 8.75744 184.428 9.38944 184.068C10.0214 183.7 10.7254 183.516 11.5014 183.516C12.2854 183.516 12.9934 183.7 13.6254 184.068C14.2574 184.428 14.7534 184.936 15.1134 185.592C15.4734 186.24 15.6534 186.976 15.6534 187.8C15.6534 188.624 15.4734 189.364 15.1134 190.02C14.7534 190.668 14.2574 191.176 13.6254 191.544C12.9934 191.904 12.2854 192.084 11.5014 192.084ZM11.5014 191.352C12.1254 191.352 12.6854 191.208 13.1814 190.92C13.6774 190.632 14.0694 190.22 14.3574 189.684C14.6454 189.14 14.7894 188.512 14.7894 187.8C14.7894 187.088 14.6454 186.464 14.3574 185.928C14.0694 185.392 13.6774 184.98 13.1814 184.692C12.6854 184.404 12.1254 184.26 11.5014 184.26C10.8774 184.26 10.3174 184.404 9.82144 184.692C9.32544 184.98 8.93344 185.392 8.64544 185.928C8.35744 186.464 8.21344 187.088 8.21344 187.8C8.21344 188.512 8.35744 189.14 8.64544 189.684C8.93344 190.22 9.32544 190.632 9.82144 190.92C10.3174 191.208 10.8774 191.352 11.5014 191.352ZM18.0305 191.316H21.0425V192H17.1905V183.612H18.0305V191.316ZM23.0813 183.612V192H22.2413V183.612H23.0813ZM23.7653 181.788L21.3053 183.216V182.568L23.7653 181.032V181.788ZM29.8914 183.612V184.308H27.5634V192H26.7234V184.308H24.3834V183.612H29.8914ZM32.0578 183.612V192H31.2178V183.612H32.0578ZM33.576 187.8C33.576 186.976 33.756 186.24 34.116 185.592C34.476 184.936 34.968 184.428 35.592 184.068C36.216 183.7 36.912 183.516 37.68 183.516C38.616 183.516 39.416 183.74 40.08 184.188C40.752 184.628 41.24 185.252 41.544 186.06H40.56C40.32 185.492 39.952 185.048 39.456 184.728C38.968 184.408 38.376 184.248 37.68 184.248C37.064 184.248 36.508 184.392 36.012 184.68C35.524 184.968 35.14 185.384 34.86 185.928C34.58 186.464 34.44 187.088 34.44 187.8C34.44 188.512 34.58 189.136 34.86 189.672C35.14 190.208 35.524 190.62 36.012 190.908C36.508 191.196 37.064 191.34 37.68 191.34C38.376 191.34 38.968 191.184 39.456 190.872C39.952 190.552 40.32 190.112 40.56 189.552H41.544C41.24 190.352 40.752 190.972 40.08 191.412C39.408 191.852 38.608 192.072 37.68 192.072C36.912 192.072 36.216 191.892 35.592 191.532C34.968 191.164 34.476 190.656 34.116 190.008C33.756 189.36 33.576 188.624 33.576 187.8ZM48.0778 190.008H44.2618L43.5298 192H42.6418L45.7018 183.72H46.6498L49.6978 192H48.8098L48.0778 190.008ZM47.8258 189.312L46.1698 184.776L44.5138 189.312H47.8258ZM56.8229 183.612C57.7509 183.612 58.5469 183.78 59.2109 184.116C59.8749 184.452 60.3829 184.936 60.7349 185.568C61.0869 186.2 61.2629 186.952 61.2629 187.824C61.2629 188.688 61.0869 189.436 60.7349 190.068C60.3829 190.692 59.8749 191.172 59.2109 191.508C58.5469 191.836 57.7509 192 56.8229 192H54.3389V183.612H56.8229ZM56.8229 191.304C57.9909 191.304 58.8789 191 59.4869 190.392C60.1029 189.776 60.4109 188.92 60.4109 187.824C60.4109 186.72 60.1029 185.86 59.4869 185.244C58.8789 184.62 57.9909 184.308 56.8229 184.308H55.1789V191.304H56.8229ZM63.6516 184.296V187.428H66.8316V188.124H63.6516V191.304H67.1916V192H62.8116V183.6H67.1916V184.296H63.6516ZM77.5037 186.024C77.5037 186.744 77.2677 187.324 76.7957 187.764C76.3237 188.204 75.6157 188.424 74.6717 188.424H72.9797V192H72.1397V183.612H74.6717C75.6077 183.612 76.3117 183.832 76.7837 184.272C77.2637 184.712 77.5037 185.296 77.5037 186.024ZM74.6717 187.704C75.9837 187.704 76.6397 187.144 76.6397 186.024C76.6397 185.464 76.4837 185.04 76.1717 184.752C75.8597 184.464 75.3597 184.32 74.6717 184.32H72.9797V187.704H74.6717ZM83.3771 192L81.3011 188.496H79.7531V192H78.9131V183.612H81.4331C82.3691 183.612 83.0771 183.836 83.5571 184.284C84.0451 184.732 84.2891 185.32 84.2891 186.048C84.2891 186.656 84.1131 187.176 83.7611 187.608C83.4171 188.032 82.9051 188.308 82.2251 188.436L84.3851 192H83.3771ZM79.7531 187.812H81.4451C82.1011 187.812 82.5931 187.652 82.9211 187.332C83.2571 187.012 83.4251 186.584 83.4251 186.048C83.4251 185.496 83.2651 185.072 82.9451 184.776C82.6251 184.472 82.1211 184.32 81.4331 184.32H79.7531V187.812ZM86.7961 183.612V192H85.9561V183.612H86.7961ZM95.3463 183.612L92.1663 192H91.2063L88.0263 183.612H88.9383L91.6863 191.088L94.4583 183.612H95.3463ZM101.468 190.008H97.6524L96.9204 192H96.0324L99.0924 183.72H100.04L103.088 192H102.2L101.468 190.008ZM101.216 189.312L99.5604 184.776L97.9044 189.312H101.216ZM104.053 187.8C104.053 186.976 104.233 186.24 104.593 185.592C104.953 184.936 105.445 184.428 106.069 184.068C106.693 183.7 107.389 183.516 108.157 183.516C109.093 183.516 109.893 183.74 110.557 184.188C111.229 184.628 111.717 185.252 112.021 186.06H111.037C110.797 185.492 110.429 185.048 109.933 184.728C109.445 184.408 108.853 184.248 108.157 184.248C107.541 184.248 106.985 184.392 106.489 184.68C106.001 184.968 105.617 185.384 105.337 185.928C105.057 186.464 104.917 187.088 104.917 187.8C104.917 188.512 105.057 189.136 105.337 189.672C105.617 190.208 106.001 190.62 106.489 190.908C106.985 191.196 107.541 191.34 108.157 191.34C108.853 191.34 109.445 191.184 109.933 190.872C110.429 190.552 110.797 190.112 111.037 189.552H112.021C111.717 190.352 111.229 190.972 110.557 191.412C109.885 191.852 109.085 192.072 108.157 192.072C107.389 192.072 106.693 191.892 106.069 191.532C105.445 191.164 104.953 190.656 104.593 190.008C104.233 189.36 104.053 188.624 104.053 187.8ZM114.534 183.612V192H113.694V183.612H114.534ZM118.921 183.612C119.849 183.612 120.645 183.78 121.309 184.116C121.973 184.452 122.481 184.936 122.833 185.568C123.185 186.2 123.361 186.952 123.361 187.824C123.361 188.688 123.185 189.436 122.833 190.068C122.481 190.692 121.973 191.172 121.309 191.508C120.645 191.836 119.849 192 118.921 192H116.437V183.612H118.921ZM118.921 191.304C120.089 191.304 120.977 191 121.585 190.392C122.201 189.776 122.509 188.92 122.509 187.824C122.509 186.72 122.201 185.86 121.585 185.244C120.977 184.62 120.089 184.308 118.921 184.308H117.277V191.304H118.921ZM129.769 190.008H125.953L125.221 192H124.333L127.393 183.72H128.341L131.389 192H130.501L129.769 190.008ZM129.517 189.312L127.861 184.776L126.205 189.312H129.517ZM135.221 183.612C136.149 183.612 136.945 183.78 137.609 184.116C138.273 184.452 138.781 184.936 139.133 185.568C139.485 186.2 139.661 186.952 139.661 187.824C139.661 188.688 139.485 189.436 139.133 190.068C138.781 190.692 138.273 191.172 137.609 191.508C136.945 191.836 136.149 192 135.221 192H132.737V183.612H135.221ZM135.221 191.304C136.389 191.304 137.277 191 137.885 190.392C138.501 189.776 138.809 188.92 138.809 187.824C138.809 186.72 138.501 185.86 137.885 185.244C137.277 184.62 136.389 184.308 135.221 184.308H133.577V191.304H135.221ZM142.05 184.296V187.428H145.23V188.124H142.05V191.304H145.59V192H141.21V183.6H145.59V184.296H142.05ZM5.868 215.612V216.308H3.54V224H2.7V216.308H0.36V215.612H5.868ZM11.6584 224L9.58238 220.496H8.03438V224H7.19438V215.612H9.71438C10.6504 215.612 11.3584 215.836 11.8384 216.284C12.3264 216.732 12.5704 217.32 12.5704 218.048C12.5704 218.656 12.3944 219.176 12.0424 219.608C11.6984 220.032 11.1864 220.308 10.5064 220.436L12.6664 224H11.6584ZM8.03438 219.812H9.72638C10.3824 219.812 10.8744 219.652 11.2024 219.332C11.5384 219.012 11.7064 218.584 11.7064 218.048C11.7064 217.496 11.5464 217.072 11.2264 216.776C10.9064 216.472 10.4024 216.32 9.71438 216.32H8.03438V219.812ZM18.0053 224.084C17.2293 224.084 16.5253 223.904 15.8933 223.544C15.2613 223.176 14.7613 222.668 14.3933 222.02C14.0333 221.364 13.8533 220.624 13.8533 219.8C13.8533 218.976 14.0333 218.24 14.3933 217.592C14.7613 216.936 15.2613 216.428 15.8933 216.068C16.5253 215.7 17.2293 215.516 18.0053 215.516C18.7893 215.516 19.4973 215.7 20.1293 216.068C20.7613 216.428 21.2573 216.936 21.6173 217.592C21.9773 218.24 22.1573 218.976 22.1573 219.8C22.1573 220.624 21.9773 221.364 21.6173 222.02C21.2573 222.668 20.7613 223.176 20.1293 223.544C19.4973 223.904 18.7893 224.084 18.0053 224.084ZM18.0053 223.352C18.6293 223.352 19.1893 223.208 19.6853 222.92C20.1813 222.632 20.5733 222.22 20.8613 221.684C21.1493 221.14 21.2933 220.512 21.2933 219.8C21.2933 219.088 21.1493 218.464 20.8613 217.928C20.5733 217.392 20.1813 216.98 19.6853 216.692C19.1893 216.404 18.6293 216.26 18.0053 216.26C17.3813 216.26 16.8213 216.404 16.3253 216.692C15.8293 216.98 15.4373 217.392 15.1493 217.928C14.8613 218.464 14.7173 219.088 14.7173 219.8C14.7173 220.512 14.8613 221.14 15.1493 221.684C15.4373 222.22 15.8293 222.632 16.3253 222.92C16.8213 223.208 17.3813 223.352 18.0053 223.352ZM23.3104 219.8C23.3104 218.976 23.4904 218.24 23.8504 217.592C24.2104 216.936 24.7024 216.428 25.3264 216.068C25.9504 215.7 26.6464 215.516 27.4144 215.516C28.3504 215.516 29.1504 215.74 29.8144 216.188C30.4864 216.628 30.9744 217.252 31.2784 218.06H30.2944C30.0544 217.492 29.6864 217.048 29.1904 216.728C28.7024 216.408 28.1104 216.248 27.4144 216.248C26.7984 216.248 26.2424 216.392 25.7464 216.68C25.2584 216.968 24.8744 217.384 24.5944 217.928C24.3144 218.464 24.1744 219.088 24.1744 219.8C24.1744 220.512 24.3144 221.136 24.5944 221.672C24.8744 222.208 25.2584 222.62 25.7464 222.908C26.2424 223.196 26.7984 223.34 27.4144 223.34C28.1104 223.34 28.7024 223.184 29.1904 222.872C29.6864 222.552 30.0544 222.112 30.2944 221.552H31.2784C30.9744 222.352 30.4864 222.972 29.8144 223.412C29.1424 223.852 28.3424 224.072 27.4144 224.072C26.6464 224.072 25.9504 223.892 25.3264 223.532C24.7024 223.164 24.2104 222.656 23.8504 222.008C23.4904 221.36 23.3104 220.624 23.3104 219.8ZM37.8122 222.008H33.9962L33.2642 224H32.3762L35.4362 215.72H36.3842L39.4322 224H38.5442L37.8122 222.008ZM37.5602 221.312L35.9042 216.776L34.2482 221.312H37.5602ZM43.3243 224.084C42.7723 224.084 42.2843 223.988 41.8603 223.796C41.4443 223.604 41.1163 223.336 40.8763 222.992C40.6363 222.648 40.5083 222.264 40.4923 221.84H41.3803C41.4203 222.248 41.6003 222.608 41.9203 222.92C42.2403 223.224 42.7083 223.376 43.3243 223.376C43.8923 223.376 44.3403 223.232 44.6683 222.944C45.0043 222.648 45.1723 222.276 45.1723 221.828C45.1723 221.468 45.0803 221.18 44.8963 220.964C44.7123 220.74 44.4843 220.576 44.2123 220.472C43.9403 220.36 43.5643 220.24 43.0843 220.112C42.5243 219.96 42.0803 219.812 41.7523 219.668C41.4243 219.524 41.1443 219.3 40.9123 218.996C40.6803 218.692 40.5643 218.28 40.5643 217.76C40.5643 217.328 40.6763 216.944 40.9003 216.608C41.1243 216.264 41.4403 215.996 41.8483 215.804C42.2563 215.612 42.7243 215.516 43.2523 215.516C44.0283 215.516 44.6523 215.708 45.1243 216.092C45.6043 216.468 45.8803 216.956 45.9523 217.556H45.0403C44.9843 217.212 44.7963 216.908 44.4763 216.644C44.1563 216.372 43.7243 216.236 43.1803 216.236C42.6763 216.236 42.2563 216.372 41.9203 216.644C41.5843 216.908 41.4163 217.272 41.4163 217.736C41.4163 218.088 41.5083 218.372 41.6923 218.588C41.8763 218.804 42.1043 218.968 42.3763 219.08C42.6563 219.192 43.0323 219.312 43.5043 219.44C44.0483 219.592 44.4883 219.744 44.8243 219.896C45.1603 220.04 45.4443 220.264 45.6763 220.568C45.9083 220.872 46.0243 221.28 46.0243 221.792C46.0243 222.184 45.9203 222.556 45.7123 222.908C45.5043 223.26 45.1963 223.544 44.7883 223.76C44.3803 223.976 43.8923 224.084 43.3243 224.084ZM51.7805 216.296V219.428H54.9605V220.124H51.7805V223.304H55.3205V224H50.9405V215.6H55.3205V216.296H51.7805ZM62.7526 215.612C63.6806 215.612 64.4766 215.78 65.1406 216.116C65.8046 216.452 66.3126 216.936 66.6646 217.568C67.0166 218.2 67.1926 218.952 67.1926 219.824C67.1926 220.688 67.0166 221.436 66.6646 222.068C66.3126 222.692 65.8046 223.172 65.1406 223.508C64.4766 223.836 63.6806 224 62.7526 224H60.2686V215.612H62.7526ZM62.7526 223.304C63.9206 223.304 64.8086 223 65.4166 222.392C66.0326 221.776 66.3406 220.92 66.3406 219.824C66.3406 218.72 66.0326 217.86 65.4166 217.244C64.8086 216.62 63.9206 216.308 62.7526 216.308H61.1086V223.304H62.7526ZM69.5813 216.296V219.428H72.7613V220.124H69.5813V223.304H73.1213V224H68.7413V215.6H73.1213V216.296H69.5813ZM81.4244 215.612L78.2444 224H77.2844L74.1044 215.612H75.0164L77.7644 223.088L80.5364 215.612H81.4244ZM86.4546 224.084C85.6786 224.084 84.9746 223.904 84.3426 223.544C83.7106 223.176 83.2106 222.668 82.8426 222.02C82.4826 221.364 82.3026 220.624 82.3026 219.8C82.3026 218.976 82.4826 218.24 82.8426 217.592C83.2106 216.936 83.7106 216.428 84.3426 216.068C84.9746 215.7 85.6786 215.516 86.4546 215.516C87.2386 215.516 87.9466 215.7 88.5786 216.068C89.2106 216.428 89.7066 216.936 90.0666 217.592C90.4266 218.24 90.6066 218.976 90.6066 219.8C90.6066 220.624 90.4266 221.364 90.0666 222.02C89.7066 222.668 89.2106 223.176 88.5786 223.544C87.9466 223.904 87.2386 224.084 86.4546 224.084ZM86.4546 223.352C87.0786 223.352 87.6386 223.208 88.1346 222.92C88.6306 222.632 89.0226 222.22 89.3106 221.684C89.5986 221.14 89.7426 220.512 89.7426 219.8C89.7426 219.088 89.5986 218.464 89.3106 217.928C89.0226 217.392 88.6306 216.98 88.1346 216.692C87.6386 216.404 87.0786 216.26 86.4546 216.26C85.8306 216.26 85.2706 216.404 84.7746 216.692C84.2786 216.98 83.8866 217.392 83.5986 217.928C83.3106 218.464 83.1666 219.088 83.1666 219.8C83.1666 220.512 83.3106 221.14 83.5986 221.684C83.8866 222.22 84.2786 222.632 84.7746 222.92C85.2706 223.208 85.8306 223.352 86.4546 223.352ZM92.9836 223.316H95.9956V224H92.1436V215.612H92.9836V223.316ZM97.9984 215.612V220.892C97.9984 221.724 98.1944 222.34 98.5864 222.74C98.9864 223.14 99.5304 223.34 100.218 223.34C100.906 223.34 101.442 223.144 101.826 222.752C102.218 222.352 102.414 221.732 102.414 220.892V215.612H103.254V220.88C103.254 221.944 102.97 222.744 102.402 223.28C101.842 223.816 101.11 224.084 100.206 224.084C99.3024 224.084 98.5664 223.816 97.9984 223.28C97.4384 222.744 97.1584 221.944 97.1584 220.88V215.612H97.9984ZM108.848 223.34C109.544 223.34 110.136 223.184 110.624 222.872C111.12 222.552 111.488 222.112 111.728 221.552H112.712C112.432 222.288 111.992 222.876 111.392 223.316C110.8 223.748 110.092 223.996 109.268 224.06V224.804C109.74 224.788 110.112 224.876 110.384 225.068C110.664 225.268 110.804 225.552 110.804 225.92C110.804 226.28 110.676 226.564 110.42 226.772C110.164 226.988 109.824 227.096 109.4 227.096H108.2V226.532H109.232C109.528 226.532 109.744 226.48 109.88 226.376C110.024 226.28 110.096 226.128 110.096 225.92C110.096 225.536 109.808 225.344 109.232 225.344H108.68V224.072C107.936 224.048 107.264 223.852 106.664 223.484C106.064 223.108 105.592 222.604 105.248 221.972C104.912 221.332 104.744 220.608 104.744 219.8C104.744 218.976 104.924 218.24 105.284 217.592C105.644 216.936 106.136 216.428 106.76 216.068C107.384 215.7 108.08 215.516 108.848 215.516C109.784 215.516 110.584 215.74 111.248 216.188C111.92 216.628 112.408 217.252 112.712 218.06H111.728C111.488 217.492 111.12 217.048 110.624 216.728C110.136 216.408 109.544 216.248 108.848 216.248C108.232 216.248 107.676 216.392 107.18 216.68C106.692 216.968 106.308 217.384 106.028 217.928C105.748 218.464 105.608 219.088 105.608 219.8C105.608 220.512 105.748 221.136 106.028 221.672C106.308 222.208 106.692 222.62 107.18 222.908C107.676 223.196 108.232 223.34 108.848 223.34ZM118.154 224.084C117.378 224.084 116.674 223.904 116.042 223.544C115.41 223.176 114.91 222.668 114.542 222.02C114.182 221.364 114.002 220.624 114.002 219.8C114.002 218.976 114.182 218.24 114.542 217.592C114.91 216.936 115.41 216.428 116.042 216.068C116.674 215.7 117.378 215.516 118.154 215.516C118.938 215.516 119.646 215.7 120.278 216.068C120.91 216.428 121.406 216.936 121.766 217.592C122.126 218.24 122.306 218.976 122.306 219.8C122.306 220.624 122.126 221.364 121.766 222.02C121.406 222.668 120.91 223.176 120.278 223.544C119.646 223.904 118.938 224.084 118.154 224.084ZM118.154 223.352C118.778 223.352 119.338 223.208 119.834 222.92C120.33 222.632 120.722 222.22 121.01 221.684C121.298 221.14 121.442 220.512 121.442 219.8C121.442 219.088 121.298 218.464 121.01 217.928C120.722 217.392 120.33 216.98 119.834 216.692C119.338 216.404 118.778 216.26 118.154 216.26C117.53 216.26 116.97 216.404 116.474 216.692C115.978 216.98 115.586 217.392 115.298 217.928C115.01 218.464 114.866 219.088 114.866 219.8C114.866 220.512 115.01 221.14 115.298 221.684C115.586 222.22 115.978 222.632 116.474 222.92C116.97 223.208 117.53 223.352 118.154 223.352ZM116.63 215C116.678 214.64 116.794 214.364 116.978 214.172C117.162 213.98 117.398 213.884 117.686 213.884C117.83 213.884 117.954 213.912 118.058 213.968C118.162 214.016 118.286 214.088 118.43 214.184C118.55 214.272 118.654 214.34 118.742 214.388C118.83 214.428 118.926 214.448 119.03 214.448C119.166 214.448 119.282 214.404 119.378 214.316C119.474 214.22 119.534 214.084 119.558 213.908H120.062C120.03 214.26 119.914 214.536 119.714 214.736C119.522 214.928 119.282 215.024 118.994 215.024C118.842 215.024 118.71 215 118.598 214.952C118.494 214.896 118.37 214.816 118.226 214.712C118.114 214.624 118.014 214.56 117.926 214.52C117.846 214.48 117.754 214.46 117.65 214.46C117.362 214.46 117.194 214.64 117.146 215H116.63ZM124.683 216.296V219.428H127.863V220.124H124.683V223.304H128.223V224H123.843V215.6H128.223V216.296H124.683ZM132.422 224.084C131.87 224.084 131.382 223.988 130.958 223.796C130.542 223.604 130.214 223.336 129.974 222.992C129.734 222.648 129.606 222.264 129.59 221.84H130.478C130.518 222.248 130.698 222.608 131.018 222.92C131.338 223.224 131.806 223.376 132.422 223.376C132.99 223.376 133.438 223.232 133.766 222.944C134.102 222.648 134.27 222.276 134.27 221.828C134.27 221.468 134.178 221.18 133.994 220.964C133.81 220.74 133.582 220.576 133.31 220.472C133.038 220.36 132.662 220.24 132.182 220.112C131.622 219.96 131.178 219.812 130.85 219.668C130.522 219.524 130.242 219.3 130.01 218.996C129.778 218.692 129.662 218.28 129.662 217.76C129.662 217.328 129.774 216.944 129.998 216.608C130.222 216.264 130.538 215.996 130.946 215.804C131.354 215.612 131.822 215.516 132.35 215.516C133.126 215.516 133.75 215.708 134.222 216.092C134.702 216.468 134.978 216.956 135.05 217.556H134.138C134.082 217.212 133.894 216.908 133.574 216.644C133.254 216.372 132.822 216.236 132.278 216.236C131.774 216.236 131.354 216.372 131.018 216.644C130.682 216.908 130.514 217.272 130.514 217.736C130.514 218.088 130.606 218.372 130.79 218.588C130.974 218.804 131.202 218.968 131.474 219.08C131.754 219.192 132.13 219.312 132.602 219.44C133.146 219.592 133.586 219.744 133.922 219.896C134.258 220.04 134.542 220.264 134.774 220.568C135.006 220.872 135.122 221.28 135.122 221.792C135.122 222.184 135.018 222.556 134.81 222.908C134.602 223.26 134.294 223.544 133.886 223.76C133.478 223.976 132.99 224.084 132.422 224.084Z" fill="white"/>
<path d="M3.029 5.874V15H0.806V5.874H3.029ZM12.804 15H10.581L6.86298 9.371V15H4.63998V5.874H6.86298L10.581 11.529V5.874H12.804V15ZM20.3564 5.874V7.655H16.6384V9.579H19.4204V11.308H16.6384V15H14.4154V5.874H20.3564ZM25.8408 15.091C24.9828 15.091 24.1941 14.8917 23.4748 14.493C22.7641 14.0943 22.1964 13.5397 21.7718 12.829C21.3557 12.1097 21.1477 11.3037 21.1477 10.411C21.1477 9.51833 21.3557 8.71667 21.7718 8.006C22.1964 7.29533 22.7641 6.74067 23.4748 6.342C24.1941 5.94333 24.9828 5.744 25.8408 5.744C26.6988 5.744 27.4831 5.94333 28.1938 6.342C28.9131 6.74067 29.4764 7.29533 29.8838 8.006C30.2998 8.71667 30.5078 9.51833 30.5078 10.411C30.5078 11.3037 30.2998 12.1097 29.8838 12.829C29.4678 13.5397 28.9044 14.0943 28.1938 14.493C27.4831 14.8917 26.6988 15.091 25.8408 15.091ZM25.8408 13.063C26.5688 13.063 27.1494 12.8203 27.5827 12.335C28.0248 11.8497 28.2458 11.2083 28.2458 10.411C28.2458 9.605 28.0248 8.96367 27.5827 8.487C27.1494 8.00167 26.5688 7.759 25.8408 7.759C25.1041 7.759 24.5148 7.99733 24.0728 8.474C23.6394 8.95067 23.4228 9.59633 23.4228 10.411C23.4228 11.217 23.6394 11.8627 24.0728 12.348C24.5148 12.8247 25.1041 13.063 25.8408 13.063ZM36.3985 15L34.5005 11.555H33.9675V15H31.7445V5.874H35.4755C36.1948 5.874 36.8058 5.99967 37.3085 6.251C37.8198 6.50233 38.2011 6.849 38.4525 7.291C38.7038 7.72433 38.8295 8.20967 38.8295 8.747C38.8295 9.35367 38.6561 9.89533 38.3095 10.372C37.9715 10.8487 37.4688 11.1867 36.8015 11.386L38.9075 15H36.3985ZM33.9675 9.982H35.3455C35.7528 9.982 36.0561 9.88233 36.2555 9.683C36.4635 9.48367 36.5675 9.202 36.5675 8.838C36.5675 8.49133 36.4635 8.21833 36.2555 8.019C36.0561 7.81967 35.7528 7.72 35.3455 7.72H33.9675V9.982ZM50.5599 5.874V15H48.3369V9.527L46.2959 15H44.5019L42.4479 9.514V15H40.2249V5.874H42.8509L45.4119 12.192L47.9469 5.874H50.5599ZM57.8395 13.388H54.4335L53.8875 15H51.5605L54.8625 5.874H57.4365L60.7385 15H58.3855L57.8395 13.388ZM57.2675 11.672L56.1365 8.331L55.0185 11.672H57.2675ZM65.9295 13.05C66.3542 13.05 66.7312 12.9503 67.0605 12.751C67.3985 12.5517 67.6585 12.2613 67.8405 11.88H70.2845C70.0505 12.7553 69.6128 13.4703 68.9715 14.025C68.3388 14.571 67.5675 14.9047 66.6575 15.026V15.533C67.1082 15.533 67.5025 15.6543 67.8405 15.897C68.1785 16.1483 68.3475 16.521 68.3475 17.015C68.3475 17.509 68.1698 17.8817 67.8145 18.133C67.4592 18.393 67.0345 18.523 66.5405 18.523H64.5385V17.301H66.2415C66.4148 17.301 66.5448 17.275 66.6315 17.223C66.7182 17.171 66.7615 17.0843 66.7615 16.963C66.7615 16.8417 66.7182 16.755 66.6315 16.703C66.5448 16.6597 66.4148 16.638 66.2415 16.638H65.3185V15.026C64.5385 14.9393 63.8495 14.6923 63.2515 14.285C62.6535 13.869 62.1898 13.3273 61.8605 12.66C61.5312 11.9927 61.3665 11.2473 61.3665 10.424C61.3665 9.52267 61.5615 8.721 61.9515 8.019C62.3415 7.30833 62.8832 6.758 63.5765 6.368C64.2785 5.96933 65.0715 5.77 65.9555 5.77C67.0388 5.77 67.9662 6.056 68.7375 6.628C69.5088 7.2 70.0245 7.98 70.2845 8.968H67.8405C67.6585 8.58667 67.3985 8.29633 67.0605 8.097C66.7312 7.89767 66.3542 7.798 65.9295 7.798C65.2448 7.798 64.6902 8.03633 64.2655 8.513C63.8408 8.98967 63.6285 9.62667 63.6285 10.424C63.6285 11.2213 63.8408 11.8583 64.2655 12.335C64.6902 12.8117 65.2448 13.05 65.9295 13.05ZM75.9618 15.091C75.1038 15.091 74.3152 14.8917 73.5958 14.493C72.8852 14.0943 72.3175 13.5397 71.8928 12.829C71.4768 12.1097 71.2688 11.3037 71.2688 10.411C71.2688 9.51833 71.4768 8.71667 71.8928 8.006C72.3175 7.29533 72.8852 6.74067 73.5958 6.342C74.3152 5.94333 75.1038 5.744 75.9618 5.744C76.8198 5.744 77.6042 5.94333 78.3148 6.342C79.0342 6.74067 79.5975 7.29533 80.0048 8.006C80.4208 8.71667 80.6288 9.51833 80.6288 10.411C80.6288 11.3037 80.4208 12.1097 80.0048 12.829C79.5888 13.5397 79.0255 14.0943 78.3148 14.493C77.6042 14.8917 76.8198 15.091 75.9618 15.091ZM75.9618 13.063C76.6898 13.063 77.2705 12.8203 77.7038 12.335C78.1458 11.8497 78.3668 11.2083 78.3668 10.411C78.3668 9.605 78.1458 8.96367 77.7038 8.487C77.2705 8.00167 76.6898 7.759 75.9618 7.759C75.2252 7.759 74.6358 7.99733 74.1938 8.474C73.7605 8.95067 73.5438 9.59633 73.5438 10.411C73.5438 11.217 73.7605 11.8627 74.1938 12.348C74.6358 12.8247 75.2252 13.063 75.9618 13.063ZM73.3488 5.237C73.5568 3.95433 74.1548 3.313 75.1428 3.313C75.3335 3.313 75.4982 3.34333 75.6368 3.404C75.7842 3.456 75.9618 3.53833 76.1698 3.651C76.3258 3.73767 76.4515 3.80267 76.5468 3.846C76.6422 3.88067 76.7418 3.898 76.8458 3.898C77.1665 3.898 77.3528 3.703 77.4048 3.313H78.5488C78.3408 4.59567 77.7428 5.237 76.7548 5.237C76.5642 5.237 76.3952 5.211 76.2478 5.159C76.1092 5.09833 75.9358 5.01167 75.7278 4.899C75.5718 4.81233 75.4462 4.75167 75.3508 4.717C75.2555 4.67367 75.1558 4.652 75.0518 4.652C74.7312 4.652 74.5405 4.847 74.4798 5.237H73.3488ZM84.0886 7.655V9.501H87.0656V11.217H84.0886V13.219H87.4556V15H81.8656V5.874H87.4556V7.655H84.0886ZM92.2008 15.091C91.5334 15.091 90.9354 14.9827 90.4068 14.766C89.8781 14.5493 89.4534 14.2287 89.1328 13.804C88.8208 13.3793 88.6561 12.868 88.6388 12.27H91.0048C91.0394 12.608 91.1564 12.868 91.3558 13.05C91.5551 13.2233 91.8151 13.31 92.1358 13.31C92.4651 13.31 92.7251 13.2363 92.9158 13.089C93.1064 12.933 93.2018 12.7207 93.2018 12.452C93.2018 12.2267 93.1238 12.0403 92.9678 11.893C92.8204 11.7457 92.6341 11.6243 92.4088 11.529C92.1921 11.4337 91.8801 11.3253 91.4728 11.204C90.8834 11.022 90.4024 10.84 90.0298 10.658C89.6571 10.476 89.3364 10.2073 89.0678 9.852C88.7991 9.49667 88.6648 9.033 88.6648 8.461C88.6648 7.61167 88.9724 6.94867 89.5878 6.472C90.2031 5.98667 91.0048 5.744 91.9928 5.744C92.9981 5.744 93.8084 5.98667 94.4238 6.472C95.0391 6.94867 95.3684 7.616 95.4118 8.474H93.0068C92.9894 8.17933 92.8811 7.94967 92.6818 7.785C92.4824 7.61167 92.2268 7.525 91.9148 7.525C91.6461 7.525 91.4294 7.59867 91.2648 7.746C91.1001 7.88467 91.0178 8.08833 91.0178 8.357C91.0178 8.65167 91.1564 8.88133 91.4338 9.046C91.7111 9.21067 92.1444 9.38833 92.7338 9.579C93.3231 9.77833 93.7998 9.969 94.1638 10.151C94.5364 10.333 94.8571 10.5973 95.1258 10.944C95.3944 11.2907 95.5288 11.737 95.5288 12.283C95.5288 12.803 95.3944 13.2753 95.1258 13.7C94.8658 14.1247 94.4844 14.4627 93.9818 14.714C93.4791 14.9653 92.8854 15.091 92.2008 15.091ZM101.836 5.874V11.334C101.836 11.88 101.97 12.3003 102.239 12.595C102.507 12.8897 102.902 13.037 103.422 13.037C103.942 13.037 104.34 12.8897 104.618 12.595C104.895 12.3003 105.034 11.88 105.034 11.334V5.874H107.257V11.321C107.257 12.1357 107.083 12.8247 106.737 13.388C106.39 13.9513 105.922 14.376 105.333 14.662C104.752 14.948 104.102 15.091 103.383 15.091C102.663 15.091 102.018 14.9523 101.446 14.675C100.882 14.389 100.436 13.9643 100.107 13.401C99.7774 12.829 99.6127 12.1357 99.6127 11.321V5.874H101.836ZM104.943 4.041L101.81 5.354V3.82L104.943 2.312V4.041ZM115.383 5.874V7.655H112.965V15H110.742V7.655H108.324V5.874H115.383ZM118.721 7.655V9.501H121.698V11.217H118.721V13.219H122.088V15H116.498V5.874H122.088V7.655H118.721ZM125.755 5.874V15H123.532V5.874H125.755ZM130.668 15.091C130 15.091 129.402 14.9827 128.874 14.766C128.345 14.5493 127.92 14.2287 127.6 13.804C127.288 13.3793 127.123 12.868 127.106 12.27H129.472C129.506 12.608 129.623 12.868 129.823 13.05C130.022 13.2233 130.282 13.31 130.603 13.31C130.932 13.31 131.192 13.2363 131.383 13.089C131.573 12.933 131.669 12.7207 131.669 12.452C131.669 12.2267 131.591 12.0403 131.435 11.893C131.287 11.7457 131.101 11.6243 130.876 11.529C130.659 11.4337 130.347 11.3253 129.94 11.204C129.35 11.022 128.869 10.84 128.497 10.658C128.124 10.476 127.803 10.2073 127.535 9.852C127.266 9.49667 127.132 9.033 127.132 8.461C127.132 7.61167 127.439 6.94867 128.055 6.472C128.67 5.98667 129.472 5.744 130.46 5.744C131.465 5.744 132.275 5.98667 132.891 6.472C133.506 6.94867 133.835 7.616 133.879 8.474H131.474C131.456 8.17933 131.348 7.94967 131.149 7.785C130.949 7.61167 130.694 7.525 130.382 7.525C130.113 7.525 129.896 7.59867 129.732 7.746C129.567 7.88467 129.485 8.08833 129.485 8.357C129.485 8.65167 129.623 8.88133 129.901 9.046C130.178 9.21067 130.611 9.38833 131.201 9.579C131.79 9.77833 132.267 9.969 132.631 10.151C133.003 10.333 133.324 10.5973 133.593 10.944C133.861 11.2907 133.996 11.737 133.996 12.283C133.996 12.803 133.861 13.2753 133.593 13.7C133.333 14.1247 132.951 14.4627 132.449 14.714C131.946 14.9653 131.352 15.091 130.668 15.091Z" fill="white"/>
</svg>
