<svg width="1250" height="331" viewBox="0 0 1250 331" fill="none" xmlns="http://www.w3.org/2000/svg">
<path d="M483.7 33H478.57L469.99 20.01V33H464.86V11.94H469.99L478.57 24.99V11.94H483.7V33ZM486.399 24.6C486.399 22.88 486.719 21.37 487.359 20.07C488.019 18.77 488.909 17.77 490.029 17.07C491.149 16.37 492.399 16.02 493.779 16.02C494.959 16.02 495.989 16.26 496.869 16.74C497.769 17.22 498.459 17.85 498.939 18.63V16.26H504.069V33H498.939V30.63C498.439 31.41 497.739 32.04 496.839 32.52C495.959 33 494.929 33.24 493.749 33.24C492.389 33.24 491.149 32.89 490.029 32.19C488.909 31.47 488.019 30.46 487.359 29.16C486.719 27.84 486.399 26.32 486.399 24.6ZM498.939 24.63C498.939 23.35 498.579 22.34 497.859 21.6C497.159 20.86 496.299 20.49 495.279 20.49C494.259 20.49 493.389 20.86 492.669 21.6C491.969 22.32 491.619 23.32 491.619 24.6C491.619 25.88 491.969 26.9 492.669 27.66C493.389 28.4 494.259 28.77 495.279 28.77C496.299 28.77 497.159 28.4 497.859 27.66C498.579 26.92 498.939 25.91 498.939 24.63ZM515.31 28.2L518.94 16.26H524.4L518.46 33H512.13L506.19 16.26H511.68L515.31 28.2ZM542.339 24.36C542.339 24.84 542.309 25.34 542.249 25.86H530.639C530.719 26.9 531.049 27.7 531.629 28.26C532.229 28.8 532.959 29.07 533.819 29.07C535.099 29.07 535.989 28.53 536.489 27.45H541.949C541.669 28.55 541.159 29.54 540.419 30.42C539.699 31.3 538.789 31.99 537.689 32.49C536.589 32.99 535.359 33.24 533.999 33.24C532.359 33.24 530.899 32.89 529.619 32.19C528.339 31.49 527.339 30.49 526.619 29.19C525.899 27.89 525.539 26.37 525.539 24.63C525.539 22.89 525.889 21.37 526.589 20.07C527.309 18.77 528.309 17.77 529.589 17.07C530.869 16.37 532.339 16.02 533.999 16.02C535.619 16.02 537.059 16.36 538.319 17.04C539.579 17.72 540.559 18.69 541.259 19.95C541.979 21.21 542.339 22.68 542.339 24.36ZM537.089 23.01C537.089 22.13 536.789 21.43 536.189 20.91C535.589 20.39 534.839 20.13 533.939 20.13C533.079 20.13 532.349 20.38 531.749 20.88C531.169 21.38 530.809 22.09 530.669 23.01H537.089ZM551.406 16.02C552.586 16.02 553.616 16.26 554.496 16.74C555.396 17.22 556.086 17.85 556.566 18.63V16.26H561.696V32.97C561.696 34.51 561.386 35.9 560.766 37.14C560.166 38.4 559.236 39.4 557.976 40.14C556.736 40.88 555.186 41.25 553.326 41.25C550.846 41.25 548.836 40.66 547.296 39.48C545.756 38.32 544.876 36.74 544.656 34.74H549.726C549.886 35.38 550.266 35.88 550.866 36.24C551.466 36.62 552.206 36.81 553.086 36.81C554.146 36.81 554.986 36.5 555.606 35.88C556.246 35.28 556.566 34.31 556.566 32.97V30.6C556.066 31.38 555.376 32.02 554.496 32.52C553.616 33 552.586 33.24 551.406 33.24C550.026 33.24 548.776 32.89 547.656 32.19C546.536 31.47 545.646 30.46 544.986 29.16C544.346 27.84 544.026 26.32 544.026 24.6C544.026 22.88 544.346 21.37 544.986 20.07C545.646 18.77 546.536 17.77 547.656 17.07C548.776 16.37 550.026 16.02 551.406 16.02ZM556.566 24.63C556.566 23.35 556.206 22.34 555.486 21.6C554.786 20.86 553.926 20.49 552.906 20.49C551.886 20.49 551.016 20.86 550.296 21.6C549.596 22.32 549.246 23.32 549.246 24.6C549.246 25.88 549.596 26.9 550.296 27.66C551.016 28.4 551.886 28.77 552.906 28.77C553.926 28.77 554.786 28.4 555.486 27.66C556.206 26.92 556.566 25.91 556.566 24.63ZM581.937 16.26V33H576.807V30.72C576.287 31.46 575.577 32.06 574.677 32.52C573.797 32.96 572.817 33.18 571.737 33.18C570.457 33.18 569.327 32.9 568.347 32.34C567.367 31.76 566.607 30.93 566.067 29.85C565.527 28.77 565.257 27.5 565.257 26.04V16.26H570.357V25.35C570.357 26.47 570.647 27.34 571.227 27.96C571.807 28.58 572.587 28.89 573.567 28.89C574.567 28.89 575.357 28.58 575.937 27.96C576.517 27.34 576.807 26.47 576.807 25.35V16.26H581.937ZM601.402 24.36C601.402 24.84 601.372 25.34 601.312 25.86H589.702C589.782 26.9 590.112 27.7 590.692 28.26C591.292 28.8 592.022 29.07 592.882 29.07C594.162 29.07 595.052 28.53 595.552 27.45H601.012C600.732 28.55 600.222 29.54 599.482 30.42C598.762 31.3 597.852 31.99 596.752 32.49C595.652 32.99 594.422 33.24 593.062 33.24C591.422 33.24 589.962 32.89 588.682 32.19C587.402 31.49 586.402 30.49 585.682 29.19C584.962 27.89 584.602 26.37 584.602 24.63C584.602 22.89 584.952 21.37 585.652 20.07C586.372 18.77 587.372 17.77 588.652 17.07C589.932 16.37 591.402 16.02 593.062 16.02C594.682 16.02 596.122 16.36 597.382 17.04C598.642 17.72 599.622 18.69 600.322 19.95C601.042 21.21 601.402 22.68 601.402 24.36ZM596.152 23.01C596.152 22.13 595.852 21.43 595.252 20.91C594.652 20.39 593.902 20.13 593.002 20.13C592.142 20.13 591.412 20.38 590.812 20.88C590.232 21.38 589.872 22.09 589.732 23.01H596.152ZM615.595 18.63C616.095 17.85 616.785 17.22 617.665 16.74C618.545 16.26 619.575 16.02 620.755 16.02C622.135 16.02 623.385 16.37 624.505 17.07C625.625 17.77 626.505 18.77 627.145 20.07C627.805 21.37 628.135 22.88 628.135 24.6C628.135 26.32 627.805 27.84 627.145 29.16C626.505 30.46 625.625 31.47 624.505 32.19C623.385 32.89 622.135 33.24 620.755 33.24C619.595 33.24 618.565 33 617.665 32.52C616.785 32.04 616.095 31.42 615.595 30.66V40.98H610.465V16.26H615.595V18.63ZM622.915 24.6C622.915 23.32 622.555 22.32 621.835 21.6C621.135 20.86 620.265 20.49 619.225 20.49C618.205 20.49 617.335 20.86 616.615 21.6C615.915 22.34 615.565 23.35 615.565 24.63C615.565 25.91 615.915 26.92 616.615 27.66C617.335 28.4 618.205 28.77 619.225 28.77C620.245 28.77 621.115 28.4 621.835 27.66C622.555 26.9 622.915 25.88 622.915 24.6ZM638.447 33.24C636.807 33.24 635.327 32.89 634.007 32.19C632.707 31.49 631.677 30.49 630.917 29.19C630.177 27.89 629.807 26.37 629.807 24.63C629.807 22.91 630.187 21.4 630.947 20.1C631.707 18.78 632.747 17.77 634.067 17.07C635.387 16.37 636.867 16.02 638.507 16.02C640.147 16.02 641.627 16.37 642.947 17.07C644.267 17.77 645.307 18.78 646.067 20.1C646.827 21.4 647.207 22.91 647.207 24.63C647.207 26.35 646.817 27.87 646.037 29.19C645.277 30.49 644.227 31.49 642.887 32.19C641.567 32.89 640.087 33.24 638.447 33.24ZM638.447 28.8C639.427 28.8 640.257 28.44 640.937 27.72C641.637 27 641.987 25.97 641.987 24.63C641.987 23.29 641.647 22.26 640.967 21.54C640.307 20.82 639.487 20.46 638.507 20.46C637.507 20.46 636.677 20.82 636.017 21.54C635.357 22.24 635.027 23.27 635.027 24.63C635.027 25.97 635.347 27 635.987 27.72C636.647 28.44 637.467 28.8 638.447 28.8ZM655.058 19.05C655.658 18.13 656.408 17.41 657.308 16.89C658.208 16.35 659.208 16.08 660.308 16.08V21.51H658.898C657.618 21.51 656.658 21.79 656.018 22.35C655.378 22.89 655.058 23.85 655.058 25.23V33H649.928V16.26H655.058V19.05ZM690.478 16.08C692.558 16.08 694.208 16.71 695.428 17.97C696.668 19.23 697.288 20.98 697.288 23.22V33H692.188V23.91C692.188 22.83 691.898 22 691.318 21.42C690.758 20.82 689.978 20.52 688.978 20.52C687.978 20.52 687.188 20.82 686.608 21.42C686.048 22 685.768 22.83 685.768 23.91V33H680.668V23.91C680.668 22.83 680.378 22 679.798 21.42C679.238 20.82 678.458 20.52 677.458 20.52C676.458 20.52 675.668 20.82 675.088 21.42C674.528 22 674.248 22.83 674.248 23.91V33H669.118V16.26H674.248V18.36C674.768 17.66 675.448 17.11 676.288 16.71C677.128 16.29 678.078 16.08 679.138 16.08C680.398 16.08 681.518 16.35 682.498 16.89C683.498 17.43 684.278 18.2 684.838 19.2C685.418 18.28 686.208 17.53 687.208 16.95C688.208 16.37 689.298 16.08 690.478 16.08ZM699.856 24.6C699.856 22.88 700.176 21.37 700.816 20.07C701.476 18.77 702.366 17.77 703.486 17.07C704.606 16.37 705.856 16.02 707.236 16.02C708.416 16.02 709.446 16.26 710.326 16.74C711.226 17.22 711.916 17.85 712.396 18.63V16.26H717.526V33H712.396V30.63C711.896 31.41 711.196 32.04 710.296 32.52C709.416 33 708.386 33.24 707.206 33.24C705.846 33.24 704.606 32.89 703.486 32.19C702.366 31.47 701.476 30.46 700.816 29.16C700.176 27.84 699.856 26.32 699.856 24.6ZM712.396 24.63C712.396 23.35 712.036 22.34 711.316 21.6C710.616 20.86 709.756 20.49 708.736 20.49C707.716 20.49 706.846 20.86 706.126 21.6C705.426 22.32 705.076 23.32 705.076 24.6C705.076 25.88 705.426 26.9 706.126 27.66C706.846 28.4 707.716 28.77 708.736 28.77C709.756 28.77 710.616 28.4 711.316 27.66C712.036 26.92 712.396 25.91 712.396 24.63ZM726.367 19.05C726.967 18.13 727.717 17.41 728.617 16.89C729.517 16.35 730.517 16.08 731.617 16.08V21.51H730.207C728.927 21.51 727.967 21.79 727.327 22.35C726.687 22.89 726.367 23.85 726.367 25.23V33H721.237V16.26H726.367V19.05ZM733.049 24.63C733.049 22.89 733.399 21.37 734.099 20.07C734.819 18.77 735.809 17.77 737.069 17.07C738.349 16.37 739.809 16.02 741.449 16.02C743.549 16.02 745.299 16.57 746.699 17.67C748.119 18.77 749.049 20.32 749.489 22.32H744.029C743.569 21.04 742.679 20.4 741.359 20.4C740.419 20.4 739.669 20.77 739.109 21.51C738.549 22.23 738.269 23.27 738.269 24.63C738.269 25.99 738.549 27.04 739.109 27.78C739.669 28.5 740.419 28.86 741.359 28.86C742.679 28.86 743.569 28.22 744.029 26.94H749.489C749.049 28.9 748.119 30.44 746.699 31.56C745.279 32.68 743.529 33.24 741.449 33.24C739.809 33.24 738.349 32.89 737.069 32.19C735.809 31.49 734.819 30.49 734.099 29.19C733.399 27.89 733.049 26.37 733.049 24.63ZM751.213 24.6C751.213 22.88 751.533 21.37 752.173 20.07C752.833 18.77 753.723 17.77 754.843 17.07C755.963 16.37 757.213 16.02 758.593 16.02C759.773 16.02 760.803 16.26 761.683 16.74C762.583 17.22 763.273 17.85 763.753 18.63V16.26H768.883V33H763.753V30.63C763.253 31.41 762.553 32.04 761.653 32.52C760.773 33 759.743 33.24 758.563 33.24C757.203 33.24 755.963 32.89 754.843 32.19C753.723 31.47 752.833 30.46 752.173 29.16C751.533 27.84 751.213 26.32 751.213 24.6ZM763.753 24.63C763.753 23.35 763.393 22.34 762.673 21.6C761.973 20.86 761.113 20.49 760.093 20.49C759.073 20.49 758.203 20.86 757.483 21.6C756.783 22.32 756.433 23.32 756.433 24.6C756.433 25.88 756.783 26.9 757.483 27.66C758.203 28.4 759.073 28.77 760.093 28.77C761.113 28.77 761.973 28.4 762.673 27.66C763.393 26.92 763.753 25.91 763.753 24.63ZM779.404 33.24C777.944 33.24 776.644 32.99 775.504 32.49C774.364 31.99 773.464 31.31 772.804 30.45C772.144 29.57 771.774 28.59 771.694 27.51H776.764C776.824 28.09 777.094 28.56 777.574 28.92C778.054 29.28 778.644 29.46 779.344 29.46C779.984 29.46 780.474 29.34 780.814 29.1C781.174 28.84 781.354 28.51 781.354 28.11C781.354 27.63 781.104 27.28 780.604 27.06C780.104 26.82 779.294 26.56 778.174 26.28C776.974 26 775.974 25.71 775.174 25.41C774.374 25.09 773.684 24.6 773.104 23.94C772.524 23.26 772.234 22.35 772.234 21.21C772.234 20.25 772.494 19.38 773.014 18.6C773.554 17.8 774.334 17.17 775.354 16.71C776.394 16.25 777.624 16.02 779.044 16.02C781.144 16.02 782.794 16.54 783.994 17.58C785.214 18.62 785.914 20 786.094 21.72H781.354C781.274 21.14 781.014 20.68 780.574 20.34C780.154 20 779.594 19.83 778.894 19.83C778.294 19.83 777.834 19.95 777.514 20.19C777.194 20.41 777.034 20.72 777.034 21.12C777.034 21.6 777.284 21.96 777.784 22.2C778.304 22.44 779.104 22.68 780.184 22.92C781.424 23.24 782.434 23.56 783.214 23.88C783.994 24.18 784.674 24.68 785.254 25.38C785.854 26.06 786.164 26.98 786.184 28.14C786.184 29.12 785.904 30 785.344 30.78C784.804 31.54 784.014 32.14 782.974 32.58C781.954 33.02 780.764 33.24 779.404 33.24Z" fill="#F71963"/>
<g clip-path="url(#clip0_1_1410)">
<g filter="url(#filter0_d_1_1410)">
<circle cx="866.5" cy="210.5" r="105.5" fill="white"/>
</g>
<g filter="url(#filter1_d_1_1410)">
<circle cx="1117.5" cy="210.5" r="105.5" fill="white"/>
</g>
<g filter="url(#filter2_d_1_1410)">
<circle cx="615.5" cy="210.5" r="105.5" fill="white"/>
</g>
<g filter="url(#filter3_d_1_1410)">
<circle cx="364.5" cy="210.5" r="105.5" fill="white"/>
</g>
<g filter="url(#filter4_d_1_1410)">
<circle cx="1368.5" cy="210.5" r="105.5" fill="white"/>
</g>
<g filter="url(#filter5_d_1_1410)">
<circle cx="113.5" cy="210.5" r="105.5" fill="white"/>
</g>
<path d="M94.693 179H40.0581C39.0894 179 38.137 179.251 37.2936 179.728C36.4502 180.206 35.7444 180.893 35.2446 181.725C34.7449 182.556 34.4682 183.502 34.4414 184.472C34.4146 185.442 34.6387 186.403 35.0918 187.26L40.5561 197.625H30.6484C30.0194 197.624 29.4009 197.786 28.8531 198.096C28.3053 198.406 27.8468 198.852 27.5223 199.391C27.1978 199.931 27.0183 200.546 27.0013 201.175C26.9843 201.805 27.1304 202.429 27.4254 202.985L45.0038 236.308C45.3135 236.895 45.777 237.385 46.3443 237.728C46.9116 238.07 47.5614 238.251 48.2237 238.251C48.886 238.251 49.5357 238.07 50.1031 237.728C50.6704 237.385 51.1339 236.895 51.4436 236.308L56.2185 227.306L62.2076 238.663C62.6845 239.568 63.3987 240.325 64.2732 240.854C65.1477 241.383 66.1496 241.663 67.1712 241.664C68.1927 241.665 69.1953 241.388 70.0711 240.861C70.947 240.334 71.663 239.579 72.1421 238.675L99.5275 187.058C99.9718 186.223 100.193 185.286 100.168 184.34C100.144 183.393 99.875 182.47 99.3881 181.658C98.9013 180.847 98.213 180.175 97.3902 179.71C96.5674 179.244 95.6381 178.999 94.693 179ZM70.152 201.058L58.3445 223.321C58.1383 223.711 57.8299 224.038 57.4524 224.265C57.0749 224.493 56.6426 224.613 56.202 224.613C55.7614 224.613 55.3291 224.493 54.9516 224.265C54.5741 224.038 54.2657 223.711 54.0595 223.321L42.3653 201.154C42.1695 200.785 42.0724 200.371 42.0834 199.953C42.0945 199.534 42.2132 199.126 42.4281 198.767C42.643 198.408 42.9468 198.111 43.3101 197.905C43.6734 197.698 44.0838 197.589 44.5016 197.588H68.0712C68.4783 197.588 68.8784 197.694 69.2327 197.894C69.587 198.095 69.8834 198.384 70.0931 198.734C70.3028 199.083 70.4186 199.481 70.4293 199.889C70.4399 200.296 70.3451 200.7 70.154 201.06L70.152 201.058Z" fill="#F71963"/>
<path d="M152.806 202.945H146.838V223.461C146.837 223.648 146.763 223.827 146.631 223.959C146.499 224.091 146.32 224.165 146.134 224.166H141.526C141.339 224.165 141.161 224.091 141.029 223.959C140.897 223.827 140.822 223.648 140.822 223.461V202.945H134.81C134.72 202.949 134.629 202.934 134.545 202.902C134.46 202.87 134.382 202.822 134.317 202.759C134.251 202.697 134.199 202.622 134.163 202.539C134.126 202.455 134.107 202.366 134.106 202.275V198.647C134.107 198.556 134.126 198.467 134.163 198.384C134.199 198.301 134.251 198.226 134.317 198.163C134.382 198.101 134.46 198.052 134.545 198.02C134.629 197.988 134.72 197.974 134.81 197.977H152.813C152.999 197.969 153.181 198.034 153.32 198.16C153.458 198.285 153.541 198.46 153.551 198.647V202.277C153.541 202.465 153.456 202.64 153.317 202.765C153.177 202.891 152.993 202.955 152.806 202.945Z" fill="#F71963"/>
<path d="M171.991 224.017C169.639 224.353 167.264 224.506 164.888 224.475C160.35 224.475 156.339 223.312 156.339 216.899V205.194C156.339 198.781 160.385 197.653 164.923 197.653C167.287 197.622 169.65 197.775 171.991 198.111C172.483 198.181 172.695 198.358 172.695 198.816V202.098C172.694 202.285 172.62 202.464 172.488 202.596C172.356 202.728 172.177 202.802 171.991 202.803H164.581C162.935 202.803 162.33 203.366 162.33 205.2V208.408H171.719C171.906 208.408 172.084 208.483 172.216 208.615C172.348 208.747 172.422 208.926 172.423 209.113V212.452C172.422 212.639 172.348 212.818 172.216 212.95C172.084 213.082 171.906 213.157 171.719 213.157H162.33V216.893C162.33 218.726 162.927 219.29 164.581 219.29H171.991C172.177 219.291 172.356 219.365 172.488 219.497C172.62 219.63 172.694 219.809 172.695 219.995V223.273C172.695 223.735 172.483 223.947 171.991 224.017Z" fill="#F71963"/>
<path d="M198.537 224.158H192.951C192.764 224.173 192.576 224.13 192.413 224.036C192.25 223.942 192.119 223.801 192.037 223.631L187.188 215.919L182.794 223.462C182.547 223.884 182.303 224.167 181.918 224.167H176.711C176.645 224.175 176.579 224.17 176.516 224.151C176.452 224.132 176.394 224.1 176.344 224.057C176.294 224.014 176.254 223.96 176.226 223.9C176.199 223.84 176.184 223.775 176.184 223.709C176.191 223.623 176.214 223.539 176.254 223.462L183.869 210.732L176.169 198.644C176.131 198.581 176.107 198.511 176.099 198.438C176.112 198.308 176.173 198.189 176.271 198.103C176.37 198.018 176.497 197.974 176.626 197.98H182.29C182.677 197.98 182.959 198.332 183.167 198.65L187.668 205.768L192.025 198.65C192.103 198.473 192.224 198.319 192.377 198.202C192.531 198.085 192.711 198.008 192.902 197.98H198.109C198.194 197.962 198.282 197.97 198.362 198.002C198.443 198.035 198.512 198.09 198.561 198.162C198.61 198.234 198.636 198.318 198.637 198.405C198.638 198.492 198.613 198.577 198.566 198.65L190.903 210.812L198.895 223.468C198.957 223.575 198.994 223.696 199 223.82C198.994 224.018 198.819 224.158 198.537 224.158Z" fill="#F71963"/>
<path d="M125.665 198.045C125.539 198.046 125.418 198.09 125.321 198.17C125.224 198.25 125.158 198.361 125.134 198.484L120.028 217.417C119.958 217.804 119.853 217.945 119.536 217.945C119.219 217.945 119.114 217.798 119.044 217.417L113.932 198.48C113.907 198.357 113.841 198.246 113.744 198.166C113.648 198.086 113.526 198.042 113.401 198.041H108.375C108.293 198.041 108.212 198.06 108.138 198.095C108.065 198.131 108 198.183 107.949 198.247C107.898 198.311 107.863 198.386 107.845 198.466C107.827 198.546 107.827 198.629 107.846 198.709C107.846 198.709 114.084 220.422 114.152 220.635C114.486 221.796 115.205 222.808 116.191 223.503C117.178 224.198 118.371 224.536 119.575 224.459C120.771 224.506 121.95 224.158 122.929 223.469C123.909 222.779 124.635 221.786 124.996 220.643C125.095 220.35 131.195 198.709 131.195 198.709C131.213 198.629 131.214 198.547 131.195 198.467C131.177 198.387 131.142 198.313 131.091 198.249C131.04 198.185 130.975 198.133 130.902 198.097C130.828 198.062 130.748 198.043 130.666 198.043L125.665 198.045Z" fill="#F71963"/>
<path d="M94.693 179H40.0581C39.0894 179 38.137 179.251 37.2936 179.728C36.4502 180.206 35.7444 180.893 35.2446 181.725C34.7449 182.556 34.4682 183.502 34.4414 184.472C34.4146 185.442 34.6387 186.403 35.0918 187.26L40.5561 197.625H30.6484C30.0194 197.624 29.4009 197.786 28.8531 198.096C28.3053 198.406 27.8468 198.852 27.5223 199.391C27.1978 199.931 27.0183 200.546 27.0013 201.175C26.9843 201.805 27.1304 202.429 27.4254 202.985L45.0038 236.308C45.3135 236.895 45.777 237.385 46.3443 237.728C46.9116 238.07 47.5614 238.251 48.2237 238.251C48.886 238.251 49.5357 238.07 50.1031 237.728C50.6704 237.385 51.1339 236.895 51.4436 236.308L56.2185 227.306L62.2076 238.663C62.6845 239.568 63.3987 240.325 64.2732 240.854C65.1477 241.383 66.1496 241.663 67.1712 241.664C68.1927 241.665 69.1953 241.388 70.0711 240.861C70.947 240.334 71.663 239.579 72.1421 238.675L99.5275 187.058C99.9718 186.223 100.193 185.286 100.168 184.34C100.144 183.393 99.875 182.47 99.3881 181.658C98.9013 180.847 98.213 180.175 97.3902 179.71C96.5674 179.244 95.6381 178.999 94.693 179ZM70.152 201.058L58.3445 223.321C58.1383 223.711 57.8299 224.038 57.4524 224.265C57.0749 224.493 56.6426 224.613 56.202 224.613C55.7614 224.613 55.3291 224.493 54.9516 224.265C54.5741 224.038 54.2657 223.711 54.0595 223.321L42.3653 201.154C42.1695 200.785 42.0724 200.371 42.0834 199.953C42.0945 199.534 42.2132 199.126 42.4281 198.767C42.643 198.408 42.9468 198.111 43.3101 197.905C43.6734 197.698 44.0838 197.589 44.5016 197.588H68.0712C68.4783 197.588 68.8784 197.694 69.2327 197.894C69.587 198.095 69.8834 198.384 70.0931 198.734C70.3028 199.083 70.4186 199.481 70.4293 199.889C70.4399 200.296 70.3451 200.7 70.154 201.06L70.152 201.058Z" fill="#F71963"/>
<path d="M345.693 179H291.058C290.089 179 289.137 179.251 288.294 179.728C287.45 180.206 286.744 180.893 286.245 181.725C285.745 182.556 285.468 183.502 285.441 184.472C285.415 185.442 285.639 186.403 286.092 187.26L291.556 197.625H281.648C281.019 197.624 280.401 197.786 279.853 198.096C279.305 198.406 278.847 198.852 278.522 199.391C278.198 199.931 278.018 200.546 278.001 201.175C277.984 201.805 278.13 202.429 278.425 202.985L296.004 236.308C296.314 236.895 296.777 237.385 297.344 237.728C297.912 238.07 298.561 238.251 299.224 238.251C299.886 238.251 300.536 238.07 301.103 237.728C301.67 237.385 302.134 236.895 302.444 236.308L307.218 227.306L313.208 238.663C313.685 239.568 314.399 240.325 315.273 240.854C316.148 241.383 317.15 241.663 318.171 241.664C319.193 241.665 320.195 241.388 321.071 240.861C321.947 240.334 322.663 239.579 323.142 238.675L350.528 187.058C350.972 186.223 351.193 185.286 351.168 184.34C351.144 183.393 350.875 182.47 350.388 181.658C349.901 180.847 349.213 180.175 348.39 179.71C347.567 179.244 346.638 178.999 345.693 179ZM321.152 201.058L309.345 223.321C309.138 223.711 308.83 224.038 308.452 224.265C308.075 224.493 307.643 224.613 307.202 224.613C306.761 224.613 306.329 224.493 305.952 224.265C305.574 224.038 305.266 223.711 305.059 223.321L293.365 201.154C293.17 200.785 293.072 200.371 293.083 199.953C293.094 199.534 293.213 199.126 293.428 198.767C293.643 198.408 293.947 198.111 294.31 197.905C294.673 197.698 295.084 197.589 295.502 197.588H319.071C319.478 197.588 319.878 197.694 320.233 197.894C320.587 198.095 320.883 198.384 321.093 198.734C321.303 199.083 321.419 199.481 321.429 199.889C321.44 200.296 321.345 200.7 321.154 201.06L321.152 201.058Z" fill="#F71963"/>
<path d="M403.806 202.945H397.838V223.461C397.837 223.648 397.763 223.827 397.631 223.959C397.499 224.091 397.32 224.165 397.134 224.166H392.526C392.339 224.165 392.161 224.091 392.029 223.959C391.897 223.827 391.822 223.648 391.822 223.461V202.945H385.81C385.72 202.949 385.629 202.934 385.545 202.902C385.46 202.87 385.382 202.822 385.317 202.759C385.251 202.697 385.199 202.622 385.163 202.539C385.126 202.455 385.107 202.366 385.106 202.275V198.647C385.107 198.556 385.126 198.467 385.163 198.384C385.199 198.301 385.251 198.226 385.317 198.163C385.382 198.101 385.46 198.052 385.545 198.02C385.629 197.988 385.72 197.974 385.81 197.977H403.813C403.999 197.969 404.181 198.034 404.32 198.16C404.458 198.285 404.541 198.46 404.551 198.647V202.277C404.541 202.465 404.456 202.64 404.317 202.765C404.177 202.891 403.993 202.955 403.806 202.945Z" fill="#F71963"/>
<path d="M422.991 224.017C420.639 224.353 418.264 224.506 415.888 224.475C411.35 224.475 407.339 223.312 407.339 216.899V205.194C407.339 198.781 411.385 197.653 415.923 197.653C418.287 197.622 420.65 197.775 422.991 198.111C423.483 198.181 423.695 198.358 423.695 198.816V202.098C423.694 202.285 423.62 202.464 423.488 202.596C423.356 202.728 423.177 202.802 422.991 202.803H415.581C413.935 202.803 413.33 203.366 413.33 205.2V208.408H422.719C422.906 208.408 423.084 208.483 423.216 208.615C423.348 208.747 423.422 208.926 423.423 209.113V212.452C423.422 212.639 423.348 212.818 423.216 212.95C423.084 213.082 422.906 213.157 422.719 213.157H413.33V216.893C413.33 218.726 413.927 219.29 415.581 219.29H422.991C423.177 219.291 423.356 219.365 423.488 219.497C423.62 219.63 423.694 219.809 423.695 219.995V223.273C423.695 223.735 423.483 223.947 422.991 224.017Z" fill="#F71963"/>
<path d="M449.537 224.158H443.951C443.764 224.173 443.576 224.13 443.413 224.036C443.25 223.942 443.119 223.801 443.037 223.631L438.188 215.919L433.794 223.462C433.547 223.884 433.303 224.167 432.918 224.167H427.711C427.645 224.175 427.579 224.17 427.516 224.151C427.452 224.132 427.394 224.1 427.344 224.057C427.294 224.014 427.254 223.96 427.226 223.9C427.199 223.84 427.184 223.775 427.184 223.709C427.191 223.623 427.214 223.539 427.254 223.462L434.869 210.732L427.169 198.644C427.131 198.581 427.107 198.511 427.099 198.438C427.112 198.308 427.173 198.189 427.271 198.103C427.37 198.018 427.497 197.974 427.626 197.98H433.29C433.677 197.98 433.959 198.332 434.167 198.65L438.668 205.768L443.025 198.65C443.103 198.473 443.224 198.319 443.377 198.202C443.531 198.085 443.711 198.008 443.902 197.98H449.109C449.194 197.962 449.282 197.97 449.362 198.002C449.443 198.035 449.512 198.09 449.561 198.162C449.61 198.234 449.636 198.318 449.637 198.405C449.638 198.492 449.613 198.577 449.566 198.65L441.903 210.812L449.895 223.468C449.957 223.575 449.994 223.696 450 223.82C449.994 224.018 449.819 224.158 449.537 224.158Z" fill="#F71963"/>
<path d="M376.665 198.045C376.539 198.046 376.418 198.09 376.321 198.17C376.224 198.25 376.158 198.361 376.134 198.484L371.028 217.417C370.958 217.804 370.853 217.945 370.536 217.945C370.219 217.945 370.114 217.798 370.044 217.417L364.932 198.48C364.907 198.357 364.841 198.246 364.744 198.166C364.648 198.086 364.526 198.042 364.401 198.041H359.375C359.293 198.041 359.212 198.06 359.138 198.095C359.065 198.131 359 198.183 358.949 198.247C358.898 198.311 358.863 198.386 358.845 198.466C358.827 198.546 358.827 198.629 358.846 198.709C358.846 198.709 365.084 220.422 365.152 220.635C365.486 221.796 366.205 222.808 367.191 223.503C368.178 224.198 369.371 224.536 370.575 224.459C371.771 224.506 372.95 224.158 373.929 223.469C374.909 222.779 375.635 221.786 375.996 220.643C376.095 220.35 382.195 198.709 382.195 198.709C382.213 198.629 382.214 198.547 382.195 198.467C382.177 198.387 382.142 198.313 382.091 198.249C382.04 198.185 381.975 198.133 381.902 198.097C381.828 198.062 381.748 198.043 381.666 198.043L376.665 198.045Z" fill="#F71963"/>
<path d="M345.693 179H291.058C290.089 179 289.137 179.251 288.294 179.728C287.45 180.206 286.744 180.893 286.245 181.725C285.745 182.556 285.468 183.502 285.441 184.472C285.415 185.442 285.639 186.403 286.092 187.26L291.556 197.625H281.648C281.019 197.624 280.401 197.786 279.853 198.096C279.305 198.406 278.847 198.852 278.522 199.391C278.198 199.931 278.018 200.546 278.001 201.175C277.984 201.805 278.13 202.429 278.425 202.985L296.004 236.308C296.314 236.895 296.777 237.385 297.344 237.728C297.912 238.07 298.561 238.251 299.224 238.251C299.886 238.251 300.536 238.07 301.103 237.728C301.67 237.385 302.134 236.895 302.444 236.308L307.218 227.306L313.208 238.663C313.685 239.568 314.399 240.325 315.273 240.854C316.148 241.383 317.15 241.663 318.171 241.664C319.193 241.665 320.195 241.388 321.071 240.861C321.947 240.334 322.663 239.579 323.142 238.675L350.528 187.058C350.972 186.223 351.193 185.286 351.168 184.34C351.144 183.393 350.875 182.47 350.388 181.658C349.901 180.847 349.213 180.175 348.39 179.71C347.567 179.244 346.638 178.999 345.693 179ZM321.152 201.058L309.345 223.321C309.138 223.711 308.83 224.038 308.452 224.265C308.075 224.493 307.643 224.613 307.202 224.613C306.761 224.613 306.329 224.493 305.952 224.265C305.574 224.038 305.266 223.711 305.059 223.321L293.365 201.154C293.17 200.785 293.072 200.371 293.083 199.953C293.094 199.534 293.213 199.126 293.428 198.767C293.643 198.408 293.947 198.111 294.31 197.905C294.673 197.698 295.084 197.589 295.502 197.588H319.071C319.478 197.588 319.878 197.694 320.233 197.894C320.587 198.095 320.883 198.384 321.093 198.734C321.303 199.083 321.419 199.481 321.429 199.889C321.44 200.296 321.345 200.7 321.154 201.06L321.152 201.058Z" fill="#F71963"/>
<path d="M597.693 179H543.058C542.089 179 541.137 179.251 540.294 179.728C539.45 180.206 538.744 180.893 538.245 181.725C537.745 182.556 537.468 183.502 537.441 184.472C537.415 185.442 537.639 186.403 538.092 187.26L543.556 197.625H533.648C533.019 197.624 532.401 197.786 531.853 198.096C531.305 198.406 530.847 198.852 530.522 199.391C530.198 199.931 530.018 200.546 530.001 201.175C529.984 201.805 530.13 202.429 530.425 202.985L548.004 236.308C548.314 236.895 548.777 237.385 549.344 237.728C549.912 238.07 550.561 238.251 551.224 238.251C551.886 238.251 552.536 238.07 553.103 237.728C553.67 237.385 554.134 236.895 554.444 236.308L559.218 227.306L565.208 238.663C565.685 239.568 566.399 240.325 567.273 240.854C568.148 241.383 569.15 241.663 570.171 241.664C571.193 241.665 572.195 241.388 573.071 240.861C573.947 240.334 574.663 239.579 575.142 238.675L602.528 187.058C602.972 186.223 603.193 185.286 603.168 184.34C603.144 183.393 602.875 182.47 602.388 181.658C601.901 180.847 601.213 180.175 600.39 179.71C599.567 179.244 598.638 178.999 597.693 179ZM573.152 201.058L561.345 223.321C561.138 223.711 560.83 224.038 560.452 224.265C560.075 224.493 559.643 224.613 559.202 224.613C558.761 224.613 558.329 224.493 557.952 224.265C557.574 224.038 557.266 223.711 557.059 223.321L545.365 201.154C545.17 200.785 545.072 200.371 545.083 199.953C545.094 199.534 545.213 199.126 545.428 198.767C545.643 198.408 545.947 198.111 546.31 197.905C546.673 197.698 547.084 197.589 547.502 197.588H571.071C571.478 197.588 571.878 197.694 572.233 197.894C572.587 198.095 572.883 198.384 573.093 198.734C573.303 199.083 573.419 199.481 573.429 199.889C573.44 200.296 573.345 200.7 573.154 201.06L573.152 201.058Z" fill="#F71963"/>
<path d="M655.806 202.945H649.838V223.461C649.837 223.648 649.763 223.827 649.631 223.959C649.499 224.091 649.32 224.165 649.134 224.166H644.526C644.339 224.165 644.161 224.091 644.029 223.959C643.897 223.827 643.822 223.648 643.822 223.461V202.945H637.81C637.72 202.949 637.629 202.934 637.545 202.902C637.46 202.87 637.382 202.822 637.317 202.759C637.251 202.697 637.199 202.622 637.163 202.539C637.126 202.455 637.107 202.366 637.106 202.275V198.647C637.107 198.556 637.126 198.467 637.163 198.384C637.199 198.301 637.251 198.226 637.317 198.163C637.382 198.101 637.46 198.052 637.545 198.02C637.629 197.988 637.72 197.974 637.81 197.977H655.813C655.999 197.969 656.181 198.034 656.32 198.16C656.458 198.285 656.541 198.46 656.551 198.647V202.277C656.541 202.465 656.456 202.64 656.317 202.765C656.177 202.891 655.993 202.955 655.806 202.945Z" fill="#F71963"/>
<path d="M674.991 224.017C672.638 224.353 670.264 224.506 667.888 224.475C663.35 224.475 659.339 223.312 659.339 216.899V205.194C659.339 198.781 663.385 197.653 667.923 197.653C670.287 197.622 672.65 197.775 674.991 198.111C675.483 198.181 675.694 198.358 675.694 198.816V202.098C675.694 202.285 675.62 202.464 675.488 202.596C675.356 202.728 675.177 202.802 674.991 202.803H667.581C665.935 202.803 665.33 203.366 665.33 205.2V208.408H674.719C674.905 208.408 675.084 208.483 675.216 208.615C675.348 208.747 675.422 208.926 675.423 209.113V212.452C675.422 212.639 675.348 212.818 675.216 212.95C675.084 213.082 674.905 213.157 674.719 213.157H665.33V216.893C665.33 218.726 665.927 219.29 667.581 219.29H674.991C675.177 219.291 675.356 219.365 675.488 219.497C675.62 219.63 675.694 219.809 675.694 219.995V223.273C675.694 223.735 675.483 223.947 674.991 224.017Z" fill="#F71963"/>
<path d="M701.537 224.158H695.951C695.764 224.173 695.576 224.13 695.413 224.036C695.25 223.942 695.119 223.801 695.037 223.631L690.188 215.919L685.794 223.462C685.547 223.884 685.303 224.167 684.918 224.167H679.711C679.645 224.175 679.579 224.17 679.516 224.151C679.452 224.132 679.394 224.1 679.344 224.057C679.294 224.014 679.254 223.96 679.226 223.9C679.199 223.84 679.184 223.775 679.184 223.709C679.191 223.623 679.214 223.539 679.254 223.462L686.869 210.732L679.169 198.644C679.131 198.581 679.107 198.511 679.099 198.438C679.112 198.308 679.173 198.189 679.271 198.103C679.37 198.018 679.497 197.974 679.626 197.98H685.29C685.677 197.98 685.959 198.332 686.167 198.65L690.668 205.768L695.025 198.65C695.103 198.473 695.224 198.319 695.377 198.202C695.531 198.085 695.711 198.008 695.902 197.98H701.109C701.194 197.962 701.282 197.97 701.362 198.002C701.443 198.035 701.512 198.09 701.561 198.162C701.61 198.234 701.636 198.318 701.637 198.405C701.638 198.492 701.613 198.577 701.566 198.65L693.903 210.812L701.895 223.468C701.957 223.575 701.994 223.696 702 223.82C701.994 224.018 701.819 224.158 701.537 224.158Z" fill="#F71963"/>
<path d="M628.665 198.045C628.54 198.046 628.418 198.09 628.321 198.17C628.225 198.25 628.158 198.361 628.134 198.484L623.028 217.417C622.958 217.804 622.853 217.945 622.536 217.945C622.219 217.945 622.114 217.798 622.044 217.417L616.932 198.48C616.908 198.357 616.841 198.246 616.744 198.166C616.648 198.086 616.526 198.042 616.401 198.041H611.375C611.293 198.041 611.212 198.06 611.139 198.095C611.065 198.131 611 198.183 610.949 198.247C610.899 198.311 610.863 198.386 610.845 198.466C610.827 198.546 610.827 198.629 610.846 198.709C610.846 198.709 617.084 220.422 617.152 220.635C617.486 221.796 618.205 222.808 619.192 223.503C620.178 224.198 621.372 224.536 622.575 224.459C623.771 224.506 624.95 224.158 625.93 223.469C626.909 222.779 627.635 221.786 627.996 220.643C628.095 220.35 634.195 198.709 634.195 198.709C634.214 198.629 634.214 198.547 634.196 198.467C634.177 198.387 634.142 198.313 634.091 198.249C634.04 198.185 633.975 198.133 633.902 198.097C633.829 198.062 633.748 198.043 633.666 198.043L628.665 198.045Z" fill="#F71963"/>
<path d="M597.693 179H543.058C542.089 179 541.137 179.251 540.294 179.728C539.45 180.206 538.744 180.893 538.245 181.725C537.745 182.556 537.468 183.502 537.441 184.472C537.415 185.442 537.639 186.403 538.092 187.26L543.556 197.625H533.648C533.019 197.624 532.401 197.786 531.853 198.096C531.305 198.406 530.847 198.852 530.522 199.391C530.198 199.931 530.018 200.546 530.001 201.175C529.984 201.805 530.13 202.429 530.425 202.985L548.004 236.308C548.314 236.895 548.777 237.385 549.344 237.728C549.912 238.07 550.561 238.251 551.224 238.251C551.886 238.251 552.536 238.07 553.103 237.728C553.67 237.385 554.134 236.895 554.444 236.308L559.218 227.306L565.208 238.663C565.685 239.568 566.399 240.325 567.273 240.854C568.148 241.383 569.15 241.663 570.171 241.664C571.193 241.665 572.195 241.388 573.071 240.861C573.947 240.334 574.663 239.579 575.142 238.675L602.528 187.058C602.972 186.223 603.193 185.286 603.168 184.34C603.144 183.393 602.875 182.47 602.388 181.658C601.901 180.847 601.213 180.175 600.39 179.71C599.567 179.244 598.638 178.999 597.693 179ZM573.152 201.058L561.345 223.321C561.138 223.711 560.83 224.038 560.452 224.265C560.075 224.493 559.643 224.613 559.202 224.613C558.761 224.613 558.329 224.493 557.952 224.265C557.574 224.038 557.266 223.711 557.059 223.321L545.365 201.154C545.17 200.785 545.072 200.371 545.083 199.953C545.094 199.534 545.213 199.126 545.428 198.767C545.643 198.408 545.947 198.111 546.31 197.905C546.673 197.698 547.084 197.589 547.502 197.588H571.071C571.478 197.588 571.878 197.694 572.233 197.894C572.587 198.095 572.883 198.384 573.093 198.734C573.303 199.083 573.419 199.481 573.429 199.889C573.44 200.296 573.345 200.7 573.154 201.06L573.152 201.058Z" fill="#F71963"/>
<path d="M848.693 179H794.058C793.089 179 792.137 179.251 791.294 179.728C790.45 180.206 789.744 180.893 789.245 181.725C788.745 182.556 788.468 183.502 788.441 184.472C788.415 185.442 788.639 186.403 789.092 187.26L794.556 197.625H784.648C784.019 197.624 783.401 197.786 782.853 198.096C782.305 198.406 781.847 198.852 781.522 199.391C781.198 199.931 781.018 200.546 781.001 201.175C780.984 201.805 781.13 202.429 781.425 202.985L799.004 236.308C799.314 236.895 799.777 237.385 800.344 237.728C800.912 238.07 801.561 238.251 802.224 238.251C802.886 238.251 803.536 238.07 804.103 237.728C804.67 237.385 805.134 236.895 805.444 236.308L810.218 227.306L816.208 238.663C816.685 239.568 817.399 240.325 818.273 240.854C819.148 241.383 820.15 241.663 821.171 241.664C822.193 241.665 823.195 241.388 824.071 240.861C824.947 240.334 825.663 239.579 826.142 238.675L853.528 187.058C853.972 186.223 854.193 185.286 854.168 184.34C854.144 183.393 853.875 182.47 853.388 181.658C852.901 180.847 852.213 180.175 851.39 179.71C850.567 179.244 849.638 178.999 848.693 179ZM824.152 201.058L812.345 223.321C812.138 223.711 811.83 224.038 811.452 224.265C811.075 224.493 810.643 224.613 810.202 224.613C809.761 224.613 809.329 224.493 808.952 224.265C808.574 224.038 808.266 223.711 808.059 223.321L796.365 201.154C796.17 200.785 796.072 200.371 796.083 199.953C796.094 199.534 796.213 199.126 796.428 198.767C796.643 198.408 796.947 198.111 797.31 197.905C797.673 197.698 798.084 197.589 798.502 197.588H822.071C822.478 197.588 822.878 197.694 823.233 197.894C823.587 198.095 823.883 198.384 824.093 198.734C824.303 199.083 824.419 199.481 824.429 199.889C824.44 200.296 824.345 200.7 824.154 201.06L824.152 201.058Z" fill="#F71963"/>
<path d="M906.806 202.945H900.838V223.461C900.837 223.648 900.763 223.827 900.631 223.959C900.499 224.091 900.32 224.165 900.134 224.166H895.526C895.339 224.165 895.161 224.091 895.029 223.959C894.897 223.827 894.822 223.648 894.822 223.461V202.945H888.81C888.72 202.949 888.629 202.934 888.545 202.902C888.46 202.87 888.382 202.822 888.317 202.759C888.251 202.697 888.199 202.622 888.163 202.539C888.126 202.455 888.107 202.366 888.106 202.275V198.647C888.107 198.556 888.126 198.467 888.163 198.384C888.199 198.301 888.251 198.226 888.317 198.163C888.382 198.101 888.46 198.052 888.545 198.02C888.629 197.988 888.72 197.974 888.81 197.977H906.813C906.999 197.969 907.181 198.034 907.32 198.16C907.458 198.285 907.541 198.46 907.551 198.647V202.277C907.541 202.465 907.456 202.64 907.317 202.765C907.177 202.891 906.993 202.955 906.806 202.945Z" fill="#F71963"/>
<path d="M925.991 224.017C923.638 224.353 921.264 224.506 918.888 224.475C914.35 224.475 910.339 223.312 910.339 216.899V205.194C910.339 198.781 914.385 197.653 918.923 197.653C921.287 197.622 923.65 197.775 925.991 198.111C926.483 198.181 926.694 198.358 926.694 198.816V202.098C926.694 202.285 926.62 202.464 926.488 202.596C926.356 202.728 926.177 202.802 925.991 202.803H918.581C916.935 202.803 916.33 203.366 916.33 205.2V208.408H925.719C925.905 208.408 926.084 208.483 926.216 208.615C926.348 208.747 926.422 208.926 926.423 209.113V212.452C926.422 212.639 926.348 212.818 926.216 212.95C926.084 213.082 925.905 213.157 925.719 213.157H916.33V216.893C916.33 218.726 916.927 219.29 918.581 219.29H925.991C926.177 219.291 926.356 219.365 926.488 219.497C926.62 219.63 926.694 219.809 926.694 219.995V223.273C926.694 223.735 926.483 223.947 925.991 224.017Z" fill="#F71963"/>
<path d="M952.537 224.158H946.951C946.764 224.173 946.576 224.13 946.413 224.036C946.25 223.942 946.119 223.801 946.037 223.631L941.188 215.919L936.794 223.462C936.547 223.884 936.303 224.167 935.918 224.167H930.711C930.645 224.175 930.579 224.17 930.516 224.151C930.452 224.132 930.394 224.1 930.344 224.057C930.294 224.014 930.254 223.96 930.226 223.9C930.199 223.84 930.184 223.775 930.184 223.709C930.191 223.623 930.214 223.539 930.254 223.462L937.869 210.732L930.169 198.644C930.131 198.581 930.107 198.511 930.099 198.438C930.112 198.308 930.173 198.189 930.271 198.103C930.37 198.018 930.497 197.974 930.626 197.98H936.29C936.677 197.98 936.959 198.332 937.167 198.65L941.668 205.768L946.025 198.65C946.103 198.473 946.224 198.319 946.377 198.202C946.531 198.085 946.711 198.008 946.902 197.98H952.109C952.194 197.962 952.282 197.97 952.362 198.002C952.443 198.035 952.512 198.09 952.561 198.162C952.61 198.234 952.636 198.318 952.637 198.405C952.638 198.492 952.613 198.577 952.566 198.65L944.903 210.812L952.895 223.468C952.957 223.575 952.994 223.696 953 223.82C952.994 224.018 952.819 224.158 952.537 224.158Z" fill="#F71963"/>
<path d="M879.665 198.045C879.54 198.046 879.418 198.09 879.321 198.17C879.225 198.25 879.158 198.361 879.134 198.484L874.028 217.417C873.958 217.804 873.853 217.945 873.536 217.945C873.219 217.945 873.114 217.798 873.044 217.417L867.932 198.48C867.908 198.357 867.841 198.246 867.744 198.166C867.648 198.086 867.526 198.042 867.401 198.041H862.375C862.293 198.041 862.212 198.06 862.139 198.095C862.065 198.131 862 198.183 861.949 198.247C861.899 198.311 861.863 198.386 861.845 198.466C861.827 198.546 861.827 198.629 861.846 198.709C861.846 198.709 868.084 220.422 868.152 220.635C868.486 221.796 869.205 222.808 870.192 223.503C871.178 224.198 872.372 224.536 873.575 224.459C874.771 224.506 875.95 224.158 876.93 223.469C877.909 222.779 878.635 221.786 878.996 220.643C879.095 220.35 885.195 198.709 885.195 198.709C885.214 198.629 885.214 198.547 885.196 198.467C885.177 198.387 885.142 198.313 885.091 198.249C885.04 198.185 884.975 198.133 884.902 198.097C884.829 198.062 884.748 198.043 884.666 198.043L879.665 198.045Z" fill="#F71963"/>
<path d="M848.693 179H794.058C793.089 179 792.137 179.251 791.294 179.728C790.45 180.206 789.744 180.893 789.245 181.725C788.745 182.556 788.468 183.502 788.441 184.472C788.415 185.442 788.639 186.403 789.092 187.26L794.556 197.625H784.648C784.019 197.624 783.401 197.786 782.853 198.096C782.305 198.406 781.847 198.852 781.522 199.391C781.198 199.931 781.018 200.546 781.001 201.175C780.984 201.805 781.13 202.429 781.425 202.985L799.004 236.308C799.314 236.895 799.777 237.385 800.344 237.728C800.912 238.07 801.561 238.251 802.224 238.251C802.886 238.251 803.536 238.07 804.103 237.728C804.67 237.385 805.134 236.895 805.444 236.308L810.218 227.306L816.208 238.663C816.685 239.568 817.399 240.325 818.273 240.854C819.148 241.383 820.15 241.663 821.171 241.664C822.193 241.665 823.195 241.388 824.071 240.861C824.947 240.334 825.663 239.579 826.142 238.675L853.528 187.058C853.972 186.223 854.193 185.286 854.168 184.34C854.144 183.393 853.875 182.47 853.388 181.658C852.901 180.847 852.213 180.175 851.39 179.71C850.567 179.244 849.638 178.999 848.693 179ZM824.152 201.058L812.345 223.321C812.138 223.711 811.83 224.038 811.452 224.265C811.075 224.493 810.643 224.613 810.202 224.613C809.761 224.613 809.329 224.493 808.952 224.265C808.574 224.038 808.266 223.711 808.059 223.321L796.365 201.154C796.17 200.785 796.072 200.371 796.083 199.953C796.094 199.534 796.213 199.126 796.428 198.767C796.643 198.408 796.947 198.111 797.31 197.905C797.673 197.698 798.084 197.589 798.502 197.588H822.071C822.478 197.588 822.878 197.694 823.233 197.894C823.587 198.095 823.883 198.384 824.093 198.734C824.303 199.083 824.419 199.481 824.429 199.889C824.44 200.296 824.345 200.7 824.154 201.06L824.152 201.058Z" fill="#F71963"/>
<path d="M1099.69 179H1045.06C1044.09 179 1043.14 179.251 1042.29 179.728C1041.45 180.206 1040.74 180.893 1040.24 181.725C1039.74 182.556 1039.47 183.502 1039.44 184.472C1039.41 185.442 1039.64 186.403 1040.09 187.26L1045.56 197.625H1035.65C1035.02 197.624 1034.4 197.786 1033.85 198.096C1033.31 198.406 1032.85 198.852 1032.52 199.391C1032.2 199.931 1032.02 200.546 1032 201.175C1031.98 201.805 1032.13 202.429 1032.43 202.985L1050 236.308C1050.31 236.895 1050.78 237.385 1051.34 237.728C1051.91 238.07 1052.56 238.251 1053.22 238.251C1053.89 238.251 1054.54 238.07 1055.1 237.728C1055.67 237.385 1056.13 236.895 1056.44 236.308L1061.22 227.306L1067.21 238.663C1067.68 239.568 1068.4 240.325 1069.27 240.854C1070.15 241.383 1071.15 241.663 1072.17 241.664C1073.19 241.665 1074.2 241.388 1075.07 240.861C1075.95 240.334 1076.66 239.579 1077.14 238.675L1104.53 187.058C1104.97 186.223 1105.19 185.286 1105.17 184.34C1105.14 183.393 1104.87 182.47 1104.39 181.658C1103.9 180.847 1103.21 180.175 1102.39 179.71C1101.57 179.244 1100.64 178.999 1099.69 179ZM1075.15 201.058L1063.34 223.321C1063.14 223.711 1062.83 224.038 1062.45 224.265C1062.07 224.493 1061.64 224.613 1061.2 224.613C1060.76 224.613 1060.33 224.493 1059.95 224.265C1059.57 224.038 1059.27 223.711 1059.06 223.321L1047.37 201.154C1047.17 200.785 1047.07 200.371 1047.08 199.953C1047.09 199.534 1047.21 199.126 1047.43 198.767C1047.64 198.408 1047.95 198.111 1048.31 197.905C1048.67 197.698 1049.08 197.589 1049.5 197.588H1073.07C1073.48 197.588 1073.88 197.694 1074.23 197.894C1074.59 198.095 1074.88 198.384 1075.09 198.734C1075.3 199.083 1075.42 199.481 1075.43 199.889C1075.44 200.296 1075.35 200.7 1075.15 201.06L1075.15 201.058Z" fill="#F71963"/>
<path d="M1157.81 202.945H1151.84V223.461C1151.84 223.648 1151.76 223.827 1151.63 223.959C1151.5 224.091 1151.32 224.165 1151.13 224.166H1146.53C1146.34 224.165 1146.16 224.091 1146.03 223.959C1145.9 223.827 1145.82 223.648 1145.82 223.461V202.945H1139.81C1139.72 202.949 1139.63 202.934 1139.54 202.902C1139.46 202.87 1139.38 202.822 1139.32 202.759C1139.25 202.697 1139.2 202.622 1139.16 202.539C1139.13 202.455 1139.11 202.366 1139.11 202.275V198.647C1139.11 198.556 1139.13 198.467 1139.16 198.384C1139.2 198.301 1139.25 198.226 1139.32 198.163C1139.38 198.101 1139.46 198.052 1139.54 198.02C1139.63 197.988 1139.72 197.974 1139.81 197.977H1157.81C1158 197.969 1158.18 198.034 1158.32 198.16C1158.46 198.285 1158.54 198.46 1158.55 198.647V202.277C1158.54 202.465 1158.46 202.64 1158.32 202.765C1158.18 202.891 1157.99 202.955 1157.81 202.945Z" fill="#F71963"/>
<path d="M1176.99 224.017C1174.64 224.353 1172.26 224.506 1169.89 224.475C1165.35 224.475 1161.34 223.312 1161.34 216.899V205.194C1161.34 198.781 1165.38 197.653 1169.92 197.653C1172.29 197.622 1174.65 197.775 1176.99 198.111C1177.48 198.181 1177.69 198.358 1177.69 198.816V202.098C1177.69 202.285 1177.62 202.464 1177.49 202.596C1177.36 202.728 1177.18 202.802 1176.99 202.803H1169.58C1167.93 202.803 1167.33 203.366 1167.33 205.2V208.408H1176.72C1176.91 208.408 1177.08 208.483 1177.22 208.615C1177.35 208.747 1177.42 208.926 1177.42 209.113V212.452C1177.42 212.639 1177.35 212.818 1177.22 212.95C1177.08 213.082 1176.91 213.157 1176.72 213.157H1167.33V216.893C1167.33 218.726 1167.93 219.29 1169.58 219.29H1176.99C1177.18 219.291 1177.36 219.365 1177.49 219.497C1177.62 219.63 1177.69 219.809 1177.69 219.995V223.273C1177.69 223.735 1177.48 223.947 1176.99 224.017Z" fill="#F71963"/>
<path d="M1203.54 224.158H1197.95C1197.76 224.173 1197.58 224.13 1197.41 224.036C1197.25 223.942 1197.12 223.801 1197.04 223.631L1192.19 215.919L1187.79 223.462C1187.55 223.884 1187.3 224.167 1186.92 224.167H1181.71C1181.65 224.175 1181.58 224.17 1181.52 224.151C1181.45 224.132 1181.39 224.1 1181.34 224.057C1181.29 224.014 1181.25 223.96 1181.23 223.9C1181.2 223.84 1181.18 223.775 1181.18 223.709C1181.19 223.623 1181.21 223.539 1181.25 223.462L1188.87 210.732L1181.17 198.644C1181.13 198.581 1181.11 198.511 1181.1 198.438C1181.11 198.308 1181.17 198.189 1181.27 198.103C1181.37 198.018 1181.5 197.974 1181.63 197.98H1187.29C1187.68 197.98 1187.96 198.332 1188.17 198.65L1192.67 205.768L1197.03 198.65C1197.1 198.473 1197.22 198.319 1197.38 198.202C1197.53 198.085 1197.71 198.008 1197.9 197.98H1203.11C1203.19 197.962 1203.28 197.97 1203.36 198.002C1203.44 198.035 1203.51 198.09 1203.56 198.162C1203.61 198.234 1203.64 198.318 1203.64 198.405C1203.64 198.492 1203.61 198.577 1203.57 198.65L1195.9 210.812L1203.89 223.468C1203.96 223.575 1203.99 223.696 1204 223.82C1203.99 224.018 1203.82 224.158 1203.54 224.158Z" fill="#F71963"/>
<path d="M1130.67 198.045C1130.54 198.046 1130.42 198.09 1130.32 198.17C1130.22 198.25 1130.16 198.361 1130.13 198.484L1125.03 217.417C1124.96 217.804 1124.85 217.945 1124.54 217.945C1124.22 217.945 1124.11 217.798 1124.04 217.417L1118.93 198.48C1118.91 198.357 1118.84 198.246 1118.74 198.166C1118.65 198.086 1118.53 198.042 1118.4 198.041H1113.37C1113.29 198.041 1113.21 198.06 1113.14 198.095C1113.06 198.131 1113 198.183 1112.95 198.247C1112.9 198.311 1112.86 198.386 1112.84 198.466C1112.83 198.546 1112.83 198.629 1112.85 198.709C1112.85 198.709 1119.08 220.422 1119.15 220.635C1119.49 221.796 1120.21 222.808 1121.19 223.503C1122.18 224.198 1123.37 224.536 1124.58 224.459C1125.77 224.506 1126.95 224.158 1127.93 223.469C1128.91 222.779 1129.64 221.786 1130 220.643C1130.09 220.35 1136.2 198.709 1136.2 198.709C1136.21 198.629 1136.21 198.547 1136.2 198.467C1136.18 198.387 1136.14 198.313 1136.09 198.249C1136.04 198.185 1135.98 198.133 1135.9 198.097C1135.83 198.062 1135.75 198.043 1135.67 198.043L1130.67 198.045Z" fill="#F71963"/>
<path d="M1099.69 179H1045.06C1044.09 179 1043.14 179.251 1042.29 179.728C1041.45 180.206 1040.74 180.893 1040.24 181.725C1039.74 182.556 1039.47 183.502 1039.44 184.472C1039.41 185.442 1039.64 186.403 1040.09 187.26L1045.56 197.625H1035.65C1035.02 197.624 1034.4 197.786 1033.85 198.096C1033.31 198.406 1032.85 198.852 1032.52 199.391C1032.2 199.931 1032.02 200.546 1032 201.175C1031.98 201.805 1032.13 202.429 1032.43 202.985L1050 236.308C1050.31 236.895 1050.78 237.385 1051.34 237.728C1051.91 238.07 1052.56 238.251 1053.22 238.251C1053.89 238.251 1054.54 238.07 1055.1 237.728C1055.67 237.385 1056.13 236.895 1056.44 236.308L1061.22 227.306L1067.21 238.663C1067.68 239.568 1068.4 240.325 1069.27 240.854C1070.15 241.383 1071.15 241.663 1072.17 241.664C1073.19 241.665 1074.2 241.388 1075.07 240.861C1075.95 240.334 1076.66 239.579 1077.14 238.675L1104.53 187.058C1104.97 186.223 1105.19 185.286 1105.17 184.34C1105.14 183.393 1104.87 182.47 1104.39 181.658C1103.9 180.847 1103.21 180.175 1102.39 179.71C1101.57 179.244 1100.64 178.999 1099.69 179ZM1075.15 201.058L1063.34 223.321C1063.14 223.711 1062.83 224.038 1062.45 224.265C1062.07 224.493 1061.64 224.613 1061.2 224.613C1060.76 224.613 1060.33 224.493 1059.95 224.265C1059.57 224.038 1059.27 223.711 1059.06 223.321L1047.37 201.154C1047.17 200.785 1047.07 200.371 1047.08 199.953C1047.09 199.534 1047.21 199.126 1047.43 198.767C1047.64 198.408 1047.95 198.111 1048.31 197.905C1048.67 197.698 1049.08 197.589 1049.5 197.588H1073.07C1073.48 197.588 1073.88 197.694 1074.23 197.894C1074.59 198.095 1074.88 198.384 1075.09 198.734C1075.3 199.083 1075.42 199.481 1075.43 199.889C1075.44 200.296 1075.35 200.7 1075.15 201.06L1075.15 201.058Z" fill="#F71963"/>
</g>
<g filter="url(#filter6_d_1_1410)">
<circle cx="1180" cy="214" r="28" fill="white"/>
</g>
<path d="M1183.01 213.851L1183.35 213.5L1183.01 213.149L1174.7 204.703L1176.66 202.712L1187.3 213.5L1176.66 224.288L1174.7 222.297L1183.01 213.851Z" fill="#0080BF" stroke="white"/>
<defs>
<filter id="filter0_d_1_1410" x="741" y="92" width="251" height="251" filterUnits="userSpaceOnUse" color-interpolation-filters="sRGB">
<feFlood flood-opacity="0" result="BackgroundImageFix"/>
<feColorMatrix in="SourceAlpha" type="matrix" values="0 0 0 0 0 0 0 0 0 0 0 0 0 0 0 0 0 0 127 0" result="hardAlpha"/>
<feOffset dy="7"/>
<feGaussianBlur stdDeviation="10"/>
<feColorMatrix type="matrix" values="0 0 0 0 0 0 0 0 0 0 0 0 0 0 0 0 0 0 0.13 0"/>
<feBlend mode="normal" in2="BackgroundImageFix" result="effect1_dropShadow_1_1410"/>
<feBlend mode="normal" in="SourceGraphic" in2="effect1_dropShadow_1_1410" result="shape"/>
</filter>
<filter id="filter1_d_1_1410" x="992" y="92" width="251" height="251" filterUnits="userSpaceOnUse" color-interpolation-filters="sRGB">
<feFlood flood-opacity="0" result="BackgroundImageFix"/>
<feColorMatrix in="SourceAlpha" type="matrix" values="0 0 0 0 0 0 0 0 0 0 0 0 0 0 0 0 0 0 127 0" result="hardAlpha"/>
<feOffset dy="7"/>
<feGaussianBlur stdDeviation="10"/>
<feColorMatrix type="matrix" values="0 0 0 0 0 0 0 0 0 0 0 0 0 0 0 0 0 0 0.13 0"/>
<feBlend mode="normal" in2="BackgroundImageFix" result="effect1_dropShadow_1_1410"/>
<feBlend mode="normal" in="SourceGraphic" in2="effect1_dropShadow_1_1410" result="shape"/>
</filter>
<filter id="filter2_d_1_1410" x="490" y="92" width="251" height="251" filterUnits="userSpaceOnUse" color-interpolation-filters="sRGB">
<feFlood flood-opacity="0" result="BackgroundImageFix"/>
<feColorMatrix in="SourceAlpha" type="matrix" values="0 0 0 0 0 0 0 0 0 0 0 0 0 0 0 0 0 0 127 0" result="hardAlpha"/>
<feOffset dy="7"/>
<feGaussianBlur stdDeviation="10"/>
<feColorMatrix type="matrix" values="0 0 0 0 0 0 0 0 0 0 0 0 0 0 0 0 0 0 0.13 0"/>
<feBlend mode="normal" in2="BackgroundImageFix" result="effect1_dropShadow_1_1410"/>
<feBlend mode="normal" in="SourceGraphic" in2="effect1_dropShadow_1_1410" result="shape"/>
</filter>
<filter id="filter3_d_1_1410" x="239" y="92" width="251" height="251" filterUnits="userSpaceOnUse" color-interpolation-filters="sRGB">
<feFlood flood-opacity="0" result="BackgroundImageFix"/>
<feColorMatrix in="SourceAlpha" type="matrix" values="0 0 0 0 0 0 0 0 0 0 0 0 0 0 0 0 0 0 127 0" result="hardAlpha"/>
<feOffset dy="7"/>
<feGaussianBlur stdDeviation="10"/>
<feColorMatrix type="matrix" values="0 0 0 0 0 0 0 0 0 0 0 0 0 0 0 0 0 0 0.13 0"/>
<feBlend mode="normal" in2="BackgroundImageFix" result="effect1_dropShadow_1_1410"/>
<feBlend mode="normal" in="SourceGraphic" in2="effect1_dropShadow_1_1410" result="shape"/>
</filter>
<filter id="filter4_d_1_1410" x="1243" y="92" width="251" height="251" filterUnits="userSpaceOnUse" color-interpolation-filters="sRGB">
<feFlood flood-opacity="0" result="BackgroundImageFix"/>
<feColorMatrix in="SourceAlpha" type="matrix" values="0 0 0 0 0 0 0 0 0 0 0 0 0 0 0 0 0 0 127 0" result="hardAlpha"/>
<feOffset dy="7"/>
<feGaussianBlur stdDeviation="10"/>
<feColorMatrix type="matrix" values="0 0 0 0 0 0 0 0 0 0 0 0 0 0 0 0 0 0 0.13 0"/>
<feBlend mode="normal" in2="BackgroundImageFix" result="effect1_dropShadow_1_1410"/>
<feBlend mode="normal" in="SourceGraphic" in2="effect1_dropShadow_1_1410" result="shape"/>
</filter>
<filter id="filter5_d_1_1410" x="-12" y="92" width="251" height="251" filterUnits="userSpaceOnUse" color-interpolation-filters="sRGB">
<feFlood flood-opacity="0" result="BackgroundImageFix"/>
<feColorMatrix in="SourceAlpha" type="matrix" values="0 0 0 0 0 0 0 0 0 0 0 0 0 0 0 0 0 0 127 0" result="hardAlpha"/>
<feOffset dy="7"/>
<feGaussianBlur stdDeviation="10"/>
<feColorMatrix type="matrix" values="0 0 0 0 0 0 0 0 0 0 0 0 0 0 0 0 0 0 0.13 0"/>
<feBlend mode="normal" in2="BackgroundImageFix" result="effect1_dropShadow_1_1410"/>
<feBlend mode="normal" in="SourceGraphic" in2="effect1_dropShadow_1_1410" result="shape"/>
</filter>
<filter id="filter6_d_1_1410" x="1142" y="180" width="76" height="76" filterUnits="userSpaceOnUse" color-interpolation-filters="sRGB">
<feFlood flood-opacity="0" result="BackgroundImageFix"/>
<feColorMatrix in="SourceAlpha" type="matrix" values="0 0 0 0 0 0 0 0 0 0 0 0 0 0 0 0 0 0 127 0" result="hardAlpha"/>
<feOffset dy="4"/>
<feGaussianBlur stdDeviation="5"/>
<feColorMatrix type="matrix" values="0 0 0 0 0 0 0 0 0 0 0 0 0 0 0 0 0 0 0.18 0"/>
<feBlend mode="normal" in2="BackgroundImageFix" result="effect1_dropShadow_1_1410"/>
<feBlend mode="normal" in="SourceGraphic" in2="effect1_dropShadow_1_1410" result="shape"/>
</filter>
<clipPath id="clip0_1_1410">
<rect width="1250" height="234" fill="white" transform="translate(0 97)"/>
</clipPath>
</defs>
</svg>
