<svg width="1138" height="72" viewBox="0 0 1138 72" fill="none" xmlns="http://www.w3.org/2000/svg">
<path d="M411.91 18.72C411.91 19.94 411.63 21.06 411.07 22.08C410.51 23.08 409.65 23.89 408.49 24.51C407.33 25.13 405.89 25.44 404.17 25.44H400.99V33H395.86V11.94H404.17C405.85 11.94 407.27 12.23 408.43 12.81C409.59 13.39 410.46 14.19 411.04 15.21C411.62 16.23 411.91 17.4 411.91 18.72ZM403.78 21.36C404.76 21.36 405.49 21.13 405.97 20.67C406.45 20.21 406.69 19.56 406.69 18.72C406.69 17.88 406.45 17.23 405.97 16.77C405.49 16.31 404.76 16.08 403.78 16.08H400.99V21.36H403.78ZM419.711 19.05C420.311 18.13 421.061 17.41 421.961 16.89C422.861 16.35 423.861 16.08 424.961 16.08V21.51H423.551C422.271 21.51 421.311 21.79 420.671 22.35C420.031 22.89 419.711 23.85 419.711 25.23V33H414.581V16.26H419.711V19.05ZM435.033 33.24C433.393 33.24 431.913 32.89 430.593 32.19C429.293 31.49 428.263 30.49 427.503 29.19C426.763 27.89 426.393 26.37 426.393 24.63C426.393 22.91 426.773 21.4 427.533 20.1C428.293 18.78 429.333 17.77 430.653 17.07C431.973 16.37 433.453 16.02 435.093 16.02C436.733 16.02 438.213 16.37 439.533 17.07C440.853 17.77 441.893 18.78 442.653 20.1C443.413 21.4 443.793 22.91 443.793 24.63C443.793 26.35 443.403 27.87 442.623 29.19C441.863 30.49 440.813 31.49 439.473 32.19C438.153 32.89 436.673 33.24 435.033 33.24ZM435.033 28.8C436.013 28.8 436.843 28.44 437.523 27.72C438.223 27 438.573 25.97 438.573 24.63C438.573 23.29 438.233 22.26 437.553 21.54C436.893 20.82 436.073 20.46 435.093 20.46C434.093 20.46 433.263 20.82 432.603 21.54C431.943 22.24 431.613 23.27 431.613 24.63C431.613 25.97 431.933 27 432.573 27.72C433.233 28.44 434.053 28.8 435.033 28.8ZM445.494 24.6C445.494 22.88 445.814 21.37 446.454 20.07C447.114 18.77 448.004 17.77 449.124 17.07C450.244 16.37 451.494 16.02 452.874 16.02C453.974 16.02 454.974 16.25 455.874 16.71C456.794 17.17 457.514 17.79 458.034 18.57V10.8H463.164V33H458.034V30.6C457.554 31.4 456.864 32.04 455.964 32.52C455.084 33 454.054 33.24 452.874 33.24C451.494 33.24 450.244 32.89 449.124 32.19C448.004 31.47 447.114 30.46 446.454 29.16C445.814 27.84 445.494 26.32 445.494 24.6ZM458.034 24.63C458.034 23.35 457.674 22.34 456.954 21.6C456.254 20.86 455.394 20.49 454.374 20.49C453.354 20.49 452.484 20.86 451.764 21.6C451.064 22.32 450.714 23.32 450.714 24.6C450.714 25.88 451.064 26.9 451.764 27.66C452.484 28.4 453.354 28.77 454.374 28.77C455.394 28.77 456.254 28.4 456.954 27.66C457.674 26.92 458.034 25.91 458.034 24.63ZM483.406 16.26V33H478.276V30.72C477.756 31.46 477.046 32.06 476.146 32.52C475.266 32.96 474.286 33.18 473.206 33.18C471.926 33.18 470.796 32.9 469.816 32.34C468.836 31.76 468.076 30.93 467.536 29.85C466.996 28.77 466.726 27.5 466.726 26.04V16.26H471.826V25.35C471.826 26.47 472.116 27.34 472.696 27.96C473.276 28.58 474.056 28.89 475.036 28.89C476.036 28.89 476.826 28.58 477.406 27.96C477.986 27.34 478.276 26.47 478.276 25.35V16.26H483.406ZM496.42 28.65V33H493.81C491.95 33 490.5 32.55 489.46 31.65C488.42 30.73 487.9 29.24 487.9 27.18V20.52H485.86V16.26H487.9V12.18H493.03V16.26H496.39V20.52H493.03V27.24C493.03 27.74 493.15 28.1 493.39 28.32C493.63 28.54 494.03 28.65 494.59 28.65H496.42ZM506.898 33.24C505.258 33.24 503.778 32.89 502.458 32.19C501.158 31.49 500.128 30.49 499.368 29.19C498.628 27.89 498.258 26.37 498.258 24.63C498.258 22.91 498.638 21.4 499.398 20.1C500.158 18.78 501.198 17.77 502.518 17.07C503.838 16.37 505.318 16.02 506.958 16.02C508.598 16.02 510.078 16.37 511.398 17.07C512.718 17.77 513.758 18.78 514.518 20.1C515.278 21.4 515.658 22.91 515.658 24.63C515.658 26.35 515.268 27.87 514.488 29.19C513.728 30.49 512.678 31.49 511.338 32.19C510.018 32.89 508.538 33.24 506.898 33.24ZM506.898 28.8C507.878 28.8 508.708 28.44 509.388 27.72C510.088 27 510.438 25.97 510.438 24.63C510.438 23.29 510.098 22.26 509.418 21.54C508.758 20.82 507.938 20.46 506.958 20.46C505.958 20.46 505.128 20.82 504.468 21.54C503.808 22.24 503.478 23.27 503.478 24.63C503.478 25.97 503.798 27 504.438 27.72C505.098 28.44 505.918 28.8 506.898 28.8ZM525.19 33.24C523.73 33.24 522.43 32.99 521.29 32.49C520.15 31.99 519.25 31.31 518.59 30.45C517.93 29.57 517.56 28.59 517.48 27.51H522.55C522.61 28.09 522.88 28.56 523.36 28.92C523.84 29.28 524.43 29.46 525.13 29.46C525.77 29.46 526.26 29.34 526.6 29.1C526.96 28.84 527.14 28.51 527.14 28.11C527.14 27.63 526.89 27.28 526.39 27.06C525.89 26.82 525.08 26.56 523.96 26.28C522.76 26 521.76 25.71 520.96 25.41C520.16 25.09 519.47 24.6 518.89 23.94C518.31 23.26 518.02 22.35 518.02 21.21C518.02 20.25 518.28 19.38 518.8 18.6C519.34 17.8 520.12 17.17 521.14 16.71C522.18 16.25 523.41 16.02 524.83 16.02C526.93 16.02 528.58 16.54 529.78 17.58C531 18.62 531.7 20 531.88 21.72H527.14C527.06 21.14 526.8 20.68 526.36 20.34C525.94 20 525.38 19.83 524.68 19.83C524.08 19.83 523.62 19.95 523.3 20.19C522.98 20.41 522.82 20.72 522.82 21.12C522.82 21.6 523.07 21.96 523.57 22.2C524.09 22.44 524.89 22.68 525.97 22.92C527.21 23.24 528.22 23.56 529 23.88C529.78 24.18 530.46 24.68 531.04 25.38C531.64 26.06 531.95 26.98 531.97 28.14C531.97 29.12 531.69 30 531.13 30.78C530.59 31.54 529.8 32.14 528.76 32.58C527.74 33.02 526.55 33.24 525.19 33.24ZM546.595 19.05C547.195 18.13 547.945 17.41 548.845 16.89C549.745 16.35 550.745 16.08 551.845 16.08V21.51H550.435C549.155 21.51 548.195 21.79 547.555 22.35C546.915 22.89 546.595 23.85 546.595 25.23V33H541.465V16.26H546.595V19.05ZM570.077 24.36C570.077 24.84 570.048 25.34 569.988 25.86H558.378C558.458 26.9 558.788 27.7 559.368 28.26C559.968 28.8 560.698 29.07 561.558 29.07C562.838 29.07 563.728 28.53 564.228 27.45H569.688C569.408 28.55 568.898 29.54 568.158 30.42C567.438 31.3 566.528 31.99 565.428 32.49C564.328 32.99 563.098 33.24 561.738 33.24C560.098 33.24 558.638 32.89 557.358 32.19C556.078 31.49 555.078 30.49 554.358 29.19C553.638 27.89 553.278 26.37 553.278 24.63C553.278 22.89 553.628 21.37 554.328 20.07C555.048 18.77 556.048 17.77 557.328 17.07C558.608 16.37 560.078 16.02 561.738 16.02C563.358 16.02 564.798 16.36 566.058 17.04C567.318 17.72 568.298 18.69 568.998 19.95C569.718 21.21 570.077 22.68 570.077 24.36ZM564.828 23.01C564.828 22.13 564.528 21.43 563.928 20.91C563.328 20.39 562.578 20.13 561.678 20.13C560.818 20.13 560.088 20.38 559.488 20.88C558.908 21.38 558.548 22.09 558.408 23.01H564.828ZM577.914 10.8V33H572.784V10.8H577.914ZM580.611 24.6C580.611 22.88 580.931 21.37 581.571 20.07C582.231 18.77 583.121 17.77 584.241 17.07C585.361 16.37 586.611 16.02 587.991 16.02C589.171 16.02 590.201 16.26 591.081 16.74C591.981 17.22 592.671 17.85 593.151 18.63V16.26H598.281V33H593.151V30.63C592.651 31.41 591.951 32.04 591.051 32.52C590.171 33 589.141 33.24 587.961 33.24C586.601 33.24 585.361 32.89 584.241 32.19C583.121 31.47 582.231 30.46 581.571 29.16C580.931 27.84 580.611 26.32 580.611 24.6ZM593.151 24.63C593.151 23.35 592.791 22.34 592.071 21.6C591.371 20.86 590.511 20.49 589.491 20.49C588.471 20.49 587.601 20.86 586.881 21.6C586.181 22.32 585.831 23.32 585.831 24.6C585.831 25.88 586.181 26.9 586.881 27.66C587.601 28.4 588.471 28.77 589.491 28.77C590.511 28.77 591.371 28.4 592.071 27.66C592.791 26.92 593.151 25.91 593.151 24.63ZM600.973 24.63C600.973 22.89 601.323 21.37 602.023 20.07C602.743 18.77 603.733 17.77 604.993 17.07C606.273 16.37 607.733 16.02 609.373 16.02C611.473 16.02 613.223 16.57 614.623 17.67C616.043 18.77 616.973 20.32 617.413 22.32H611.953C611.493 21.04 610.603 20.4 609.283 20.4C608.343 20.4 607.593 20.77 607.033 21.51C606.473 22.23 606.193 23.27 606.193 24.63C606.193 25.99 606.473 27.04 607.033 27.78C607.593 28.5 608.343 28.86 609.283 28.86C610.603 28.86 611.493 28.22 611.953 26.94H617.413C616.973 28.9 616.043 30.44 614.623 31.56C613.203 32.68 611.453 33.24 609.373 33.24C607.733 33.24 606.273 32.89 604.993 32.19C603.733 31.49 602.743 30.49 602.023 29.19C601.323 27.89 600.973 26.37 600.973 24.63ZM622.737 14.52C621.837 14.52 621.097 14.26 620.517 13.74C619.957 13.2 619.677 12.54 619.677 11.76C619.677 10.96 619.957 10.3 620.517 9.78C621.097 9.24 621.837 8.97 622.737 8.97C623.617 8.97 624.337 9.24 624.897 9.78C625.477 10.3 625.767 10.96 625.767 11.76C625.767 12.54 625.477 13.2 624.897 13.74C624.337 14.26 623.617 14.52 622.737 14.52ZM625.287 16.26V33H620.157V16.26H625.287ZM636.625 33.24C634.985 33.24 633.505 32.89 632.185 32.19C630.885 31.49 629.855 30.49 629.095 29.19C628.355 27.89 627.985 26.37 627.985 24.63C627.985 22.91 628.365 21.4 629.125 20.1C629.885 18.78 630.925 17.77 632.245 17.07C633.565 16.37 635.045 16.02 636.685 16.02C638.325 16.02 639.805 16.37 641.125 17.07C642.445 17.77 643.485 18.78 644.245 20.1C645.005 21.4 645.385 22.91 645.385 24.63C645.385 26.35 644.995 27.87 644.215 29.19C643.455 30.49 642.405 31.49 641.065 32.19C639.745 32.89 638.265 33.24 636.625 33.24ZM636.625 28.8C637.605 28.8 638.435 28.44 639.115 27.72C639.815 27 640.165 25.97 640.165 24.63C640.165 23.29 639.825 22.26 639.145 21.54C638.485 20.82 637.665 20.46 636.685 20.46C635.685 20.46 634.855 20.82 634.195 21.54C633.535 22.24 633.205 23.27 633.205 24.63C633.205 25.97 633.525 27 634.165 27.72C634.825 28.44 635.645 28.8 636.625 28.8ZM658.306 16.08C660.266 16.08 661.826 16.72 662.986 18C664.166 19.26 664.756 21 664.756 23.22V33H659.656V23.91C659.656 22.79 659.366 21.92 658.786 21.3C658.206 20.68 657.426 20.37 656.446 20.37C655.466 20.37 654.686 20.68 654.106 21.3C653.526 21.92 653.236 22.79 653.236 23.91V33H648.106V16.26H653.236V18.48C653.756 17.74 654.456 17.16 655.336 16.74C656.216 16.3 657.206 16.08 658.306 16.08ZM667.301 24.6C667.301 22.88 667.621 21.37 668.261 20.07C668.921 18.77 669.811 17.77 670.931 17.07C672.051 16.37 673.301 16.02 674.681 16.02C675.861 16.02 676.891 16.26 677.771 16.74C678.671 17.22 679.361 17.85 679.841 18.63V16.26H684.971V33H679.841V30.63C679.341 31.41 678.641 32.04 677.741 32.52C676.861 33 675.831 33.24 674.651 33.24C673.291 33.24 672.051 32.89 670.931 32.19C669.811 31.47 668.921 30.46 668.261 29.16C667.621 27.84 667.301 26.32 667.301 24.6ZM679.841 24.63C679.841 23.35 679.481 22.34 678.761 21.6C678.061 20.86 677.201 20.49 676.181 20.49C675.161 20.49 674.291 20.86 673.571 21.6C672.871 22.32 672.521 23.32 672.521 24.6C672.521 25.88 672.871 26.9 673.571 27.66C674.291 28.4 675.161 28.77 676.181 28.77C677.201 28.77 678.061 28.4 678.761 27.66C679.481 26.92 679.841 25.91 679.841 24.63ZM687.662 24.6C687.662 22.88 687.982 21.37 688.622 20.07C689.282 18.77 690.172 17.77 691.292 17.07C692.412 16.37 693.662 16.02 695.042 16.02C696.142 16.02 697.142 16.25 698.042 16.71C698.962 17.17 699.682 17.79 700.202 18.57V10.8H705.332V33H700.202V30.6C699.722 31.4 699.032 32.04 698.132 32.52C697.252 33 696.222 33.24 695.042 33.24C693.662 33.24 692.412 32.89 691.292 32.19C690.172 31.47 689.282 30.46 688.622 29.16C687.982 27.84 687.662 26.32 687.662 24.6ZM700.202 24.63C700.202 23.35 699.842 22.34 699.122 21.6C698.422 20.86 697.562 20.49 696.542 20.49C695.522 20.49 694.652 20.86 693.932 21.6C693.232 22.32 692.882 23.32 692.882 24.6C692.882 25.88 693.232 26.9 693.932 27.66C694.652 28.4 695.522 28.77 696.542 28.77C697.562 28.77 698.422 28.4 699.122 27.66C699.842 26.92 700.202 25.91 700.202 24.63ZM716.664 33.24C715.024 33.24 713.544 32.89 712.224 32.19C710.924 31.49 709.894 30.49 709.134 29.19C708.394 27.89 708.024 26.37 708.024 24.63C708.024 22.91 708.404 21.4 709.164 20.1C709.924 18.78 710.964 17.77 712.284 17.07C713.604 16.37 715.084 16.02 716.724 16.02C718.364 16.02 719.844 16.37 721.164 17.07C722.484 17.77 723.524 18.78 724.284 20.1C725.044 21.4 725.424 22.91 725.424 24.63C725.424 26.35 725.034 27.87 724.254 29.19C723.494 30.49 722.444 31.49 721.104 32.19C719.784 32.89 718.304 33.24 716.664 33.24ZM716.664 28.8C717.644 28.8 718.474 28.44 719.154 27.72C719.854 27 720.204 25.97 720.204 24.63C720.204 23.29 719.864 22.26 719.184 21.54C718.524 20.82 717.704 20.46 716.724 20.46C715.724 20.46 714.894 20.82 714.234 21.54C713.574 22.24 713.244 23.27 713.244 24.63C713.244 25.97 713.564 27 714.204 27.72C714.864 28.44 715.684 28.8 716.664 28.8ZM734.955 33.24C733.495 33.24 732.195 32.99 731.055 32.49C729.915 31.99 729.015 31.31 728.355 30.45C727.695 29.57 727.325 28.59 727.245 27.51H732.315C732.375 28.09 732.645 28.56 733.125 28.92C733.605 29.28 734.195 29.46 734.895 29.46C735.535 29.46 736.025 29.34 736.365 29.1C736.725 28.84 736.905 28.51 736.905 28.11C736.905 27.63 736.655 27.28 736.155 27.06C735.655 26.82 734.845 26.56 733.725 26.28C732.525 26 731.525 25.71 730.725 25.41C729.925 25.09 729.235 24.6 728.655 23.94C728.075 23.26 727.785 22.35 727.785 21.21C727.785 20.25 728.045 19.38 728.565 18.6C729.105 17.8 729.885 17.17 730.905 16.71C731.945 16.25 733.175 16.02 734.595 16.02C736.695 16.02 738.345 16.54 739.545 17.58C740.765 18.62 741.465 20 741.645 21.72H736.905C736.825 21.14 736.565 20.68 736.125 20.34C735.705 20 735.145 19.83 734.445 19.83C733.845 19.83 733.385 19.95 733.065 20.19C732.745 20.41 732.585 20.72 732.585 21.12C732.585 21.6 732.835 21.96 733.335 22.2C733.855 22.44 734.655 22.68 735.735 22.92C736.975 23.24 737.985 23.56 738.765 23.88C739.545 24.18 740.225 24.68 740.805 25.38C741.405 26.06 741.715 26.98 741.735 28.14C741.735 29.12 741.455 30 740.895 30.78C740.355 31.54 739.565 32.14 738.525 32.58C737.505 33.02 736.315 33.24 734.955 33.24Z" fill="#F71963"/>
<line x1="778" y1="17.5" x2="1138" y2="17.5" stroke="#DEDEDE"/>
<line y1="17.5" x2="360" y2="17.5" stroke="#DEDEDE"/>
<path d="M543.047 55.47L539.312 66H536.102L532.367 55.47H535.097L537.707 63.42L540.332 55.47H543.047ZM552.009 61.68C552.009 61.92 551.994 62.17 551.964 62.43H546.159C546.199 62.95 546.364 63.35 546.654 63.63C546.954 63.9 547.319 64.035 547.749 64.035C548.389 64.035 548.834 63.765 549.084 63.225H551.814C551.674 63.775 551.419 64.27 551.049 64.71C550.689 65.15 550.234 65.495 549.684 65.745C549.134 65.995 548.519 66.12 547.839 66.12C547.019 66.12 546.289 65.945 545.649 65.595C545.009 65.245 544.509 64.745 544.149 64.095C543.789 63.445 543.609 62.685 543.609 61.815C543.609 60.945 543.784 60.185 544.134 59.535C544.494 58.885 544.994 58.385 545.634 58.035C546.274 57.685 547.009 57.51 547.839 57.51C548.649 57.51 549.369 57.68 549.999 58.02C550.629 58.36 551.119 58.845 551.469 59.475C551.829 60.105 552.009 60.84 552.009 61.68ZM549.384 61.005C549.384 60.565 549.234 60.215 548.934 59.955C548.634 59.695 548.259 59.565 547.809 59.565C547.379 59.565 547.014 59.69 546.714 59.94C546.424 60.19 546.244 60.545 546.174 61.005H549.384ZM555.928 59.025C556.228 58.565 556.603 58.205 557.053 57.945C557.503 57.675 558.003 57.54 558.553 57.54V60.255H557.848C557.208 60.255 556.728 60.395 556.408 60.675C556.088 60.945 555.928 61.425 555.928 62.115V66H553.363V57.63H555.928V59.025ZM567.622 63.825V66H566.317C565.387 66 564.662 65.775 564.142 65.325C563.622 64.865 563.362 64.12 563.362 63.09V59.76H562.342V57.63H563.362V55.59H565.927V57.63H567.607V59.76H565.927V63.12C565.927 63.37 565.987 63.55 566.107 63.66C566.227 63.77 566.427 63.825 566.707 63.825H567.622ZM572.861 66.12C572.041 66.12 571.301 65.945 570.641 65.595C569.991 65.245 569.476 64.745 569.096 64.095C568.726 63.445 568.541 62.685 568.541 61.815C568.541 60.955 568.731 60.2 569.111 59.55C569.491 58.89 570.011 58.385 570.671 58.035C571.331 57.685 572.071 57.51 572.891 57.51C573.711 57.51 574.451 57.685 575.111 58.035C575.771 58.385 576.291 58.89 576.671 59.55C577.051 60.2 577.241 60.955 577.241 61.815C577.241 62.675 577.046 63.435 576.656 64.095C576.276 64.745 575.751 65.245 575.081 65.595C574.421 65.945 573.681 66.12 572.861 66.12ZM572.861 63.9C573.351 63.9 573.766 63.72 574.106 63.36C574.456 63 574.631 62.485 574.631 61.815C574.631 61.145 574.461 60.63 574.121 60.27C573.791 59.91 573.381 59.73 572.891 59.73C572.391 59.73 571.976 59.91 571.646 60.27C571.316 60.62 571.151 61.135 571.151 61.815C571.151 62.485 571.311 63 571.631 63.36C571.961 63.72 572.371 63.9 572.861 63.9ZM578.092 61.8C578.092 60.94 578.252 60.185 578.572 59.535C578.902 58.885 579.347 58.385 579.907 58.035C580.467 57.685 581.092 57.51 581.782 57.51C582.332 57.51 582.832 57.625 583.282 57.855C583.742 58.085 584.102 58.395 584.362 58.785V54.9H586.927V66H584.362V64.8C584.122 65.2 583.777 65.52 583.327 65.76C582.887 66 582.372 66.12 581.782 66.12C581.092 66.12 580.467 65.945 579.907 65.595C579.347 65.235 578.902 64.73 578.572 64.08C578.252 63.42 578.092 62.66 578.092 61.8ZM584.362 61.815C584.362 61.175 584.182 60.67 583.822 60.3C583.472 59.93 583.042 59.745 582.532 59.745C582.022 59.745 581.587 59.93 581.227 60.3C580.877 60.66 580.702 61.16 580.702 61.8C580.702 62.44 580.877 62.95 581.227 63.33C581.587 63.7 582.022 63.885 582.532 63.885C583.042 63.885 583.472 63.7 583.822 63.33C584.182 62.96 584.362 62.455 584.362 61.815ZM592.593 66.12C591.773 66.12 591.033 65.945 590.373 65.595C589.723 65.245 589.208 64.745 588.828 64.095C588.458 63.445 588.273 62.685 588.273 61.815C588.273 60.955 588.463 60.2 588.843 59.55C589.223 58.89 589.743 58.385 590.403 58.035C591.063 57.685 591.803 57.51 592.623 57.51C593.443 57.51 594.183 57.685 594.843 58.035C595.503 58.385 596.023 58.89 596.403 59.55C596.783 60.2 596.973 60.955 596.973 61.815C596.973 62.675 596.778 63.435 596.388 64.095C596.008 64.745 595.483 65.245 594.813 65.595C594.153 65.945 593.413 66.12 592.593 66.12ZM592.593 63.9C593.083 63.9 593.498 63.72 593.838 63.36C594.188 63 594.363 62.485 594.363 61.815C594.363 61.145 594.193 60.63 593.853 60.27C593.523 59.91 593.113 59.73 592.623 59.73C592.123 59.73 591.708 59.91 591.378 60.27C591.048 60.62 590.883 61.135 590.883 61.815C590.883 62.485 591.043 63 591.363 63.36C591.693 63.72 592.103 63.9 592.593 63.9ZM601.738 66.12C601.008 66.12 600.358 65.995 599.788 65.745C599.218 65.495 598.768 65.155 598.438 64.725C598.108 64.285 597.923 63.795 597.883 63.255H600.418C600.448 63.545 600.583 63.78 600.823 63.96C601.063 64.14 601.358 64.23 601.708 64.23C602.028 64.23 602.273 64.17 602.443 64.05C602.623 63.92 602.713 63.755 602.713 63.555C602.713 63.315 602.588 63.14 602.338 63.03C602.088 62.91 601.683 62.78 601.123 62.64C600.523 62.5 600.023 62.355 599.623 62.205C599.223 62.045 598.878 61.8 598.588 61.47C598.298 61.13 598.153 60.675 598.153 60.105C598.153 59.625 598.283 59.19 598.543 58.8C598.813 58.4 599.203 58.085 599.713 57.855C600.233 57.625 600.848 57.51 601.558 57.51C602.608 57.51 603.433 57.77 604.033 58.29C604.643 58.81 604.993 59.5 605.083 60.36H602.713C602.673 60.07 602.543 59.84 602.323 59.67C602.113 59.5 601.833 59.415 601.483 59.415C601.183 59.415 600.953 59.475 600.793 59.595C600.633 59.705 600.553 59.86 600.553 60.06C600.553 60.3 600.678 60.48 600.928 60.6C601.188 60.72 601.588 60.84 602.128 60.96C602.748 61.12 603.253 61.28 603.643 61.44C604.033 61.59 604.373 61.84 604.663 62.19C604.963 62.53 605.118 62.99 605.128 63.57C605.128 64.06 604.988 64.5 604.708 64.89C604.438 65.27 604.043 65.57 603.523 65.79C603.013 66.01 602.418 66.12 601.738 66.12Z" fill="#3F3F40"/>
</svg>
