<svg width="149" height="224" viewBox="0 0 149 224" fill="none" xmlns="http://www.w3.org/2000/svg">
<path d="M7.108 15.091C6.44067 15.091 5.84267 14.9827 5.314 14.766C4.78533 14.5493 4.36067 14.2287 4.04 13.804C3.728 13.3793 3.56333 12.868 3.546 12.27H5.912C5.94667 12.608 6.06367 12.868 6.263 13.05C6.46233 13.2233 6.72233 13.31 7.043 13.31C7.37233 13.31 7.63233 13.2363 7.823 13.089C8.01367 12.933 8.109 12.7207 8.109 12.452C8.109 12.2267 8.031 12.0403 7.875 11.893C7.72767 11.7457 7.54133 11.6243 7.316 11.529C7.09933 11.4337 6.78733 11.3253 6.38 11.204C5.79067 11.022 5.30967 10.84 4.937 10.658C4.56433 10.476 4.24367 10.2073 3.975 9.852C3.70633 9.49667 3.572 9.033 3.572 8.461C3.572 7.61167 3.87967 6.94867 4.495 6.472C5.11033 5.98667 5.912 5.744 6.9 5.744C7.90533 5.744 8.71567 5.98667 9.331 6.472C9.94633 6.94867 10.2757 7.616 10.319 8.474H7.914C7.89667 8.17933 7.78833 7.94967 7.589 7.785C7.38967 7.61167 7.134 7.525 6.822 7.525C6.55333 7.525 6.33667 7.59867 6.172 7.746C6.00733 7.88467 5.925 8.08833 5.925 8.357C5.925 8.65167 6.06367 8.88133 6.341 9.046C6.61833 9.21067 7.05167 9.38833 7.641 9.579C8.23033 9.77833 8.707 9.969 9.071 10.151C9.44367 10.333 9.76433 10.5973 10.033 10.944C10.3017 11.2907 10.436 11.737 10.436 12.283C10.436 12.803 10.3017 13.2753 10.033 13.7C9.773 14.1247 9.39167 14.4627 8.889 14.714C8.38633 14.9653 7.79267 15.091 7.108 15.091ZM15.106 15.104C14.3954 15.104 13.754 14.9523 13.182 14.649C12.6187 14.3457 12.1724 13.9123 11.843 13.349C11.5224 12.7857 11.362 12.127 11.362 11.373C11.362 10.6277 11.5267 9.97333 11.856 9.41C12.1854 8.838 12.636 8.40033 13.208 8.097C13.78 7.79367 14.4214 7.642 15.132 7.642C15.8427 7.642 16.484 7.79367 17.056 8.097C17.628 8.40033 18.0787 8.838 18.408 9.41C18.7374 9.97333 18.902 10.6277 18.902 11.373C18.902 12.1183 18.733 12.777 18.395 13.349C18.0657 13.9123 17.6107 14.3457 17.03 14.649C16.458 14.9523 15.8167 15.104 15.106 15.104ZM15.106 13.18C15.5307 13.18 15.8904 13.024 16.185 12.712C16.4884 12.4 16.64 11.9537 16.64 11.373C16.64 10.7923 16.4927 10.346 16.198 10.034C15.912 9.722 15.5567 9.566 15.132 9.566C14.6987 9.566 14.339 9.722 14.053 10.034C13.767 10.3373 13.624 10.7837 13.624 11.373C13.624 11.9537 13.7627 12.4 14.04 12.712C14.326 13.024 14.6814 13.18 15.106 13.18ZM22.3044 8.773C22.5124 8.435 22.8114 8.162 23.2014 7.954C23.5914 7.746 24.0377 7.642 24.5404 7.642C25.1384 7.642 25.6801 7.79367 26.1654 8.097C26.6507 8.40033 27.0321 8.83367 27.3094 9.397C27.5954 9.96033 27.7384 10.6147 27.7384 11.36C27.7384 12.1053 27.5954 12.764 27.3094 13.336C27.0321 13.8993 26.6507 14.337 26.1654 14.649C25.6801 14.9523 25.1384 15.104 24.5404 15.104C24.0291 15.104 23.5827 15.0043 23.2014 14.805C22.8201 14.597 22.5211 14.324 22.3044 13.986V15H20.0814V5.38H22.3044V8.773ZM25.4764 11.36C25.4764 10.8053 25.3204 10.372 25.0084 10.06C24.7051 9.73933 24.3281 9.579 23.8774 9.579C23.4354 9.579 23.0584 9.73933 22.7464 10.06C22.4431 10.3807 22.2914 10.8183 22.2914 11.373C22.2914 11.9277 22.4431 12.3653 22.7464 12.686C23.0584 13.0067 23.4354 13.167 23.8774 13.167C24.3194 13.167 24.6964 13.0067 25.0084 12.686C25.3204 12.3567 25.4764 11.9147 25.4764 11.36ZM31.1276 8.955C31.3876 8.55633 31.7126 8.24433 32.1026 8.019C32.4926 7.785 32.926 7.668 33.4026 7.668V10.021H32.7916C32.237 10.021 31.821 10.1423 31.5436 10.385C31.2663 10.619 31.1276 11.035 31.1276 11.633V15H28.9046V7.746H31.1276V8.955ZM41.3032 11.256C41.3032 11.464 41.2902 11.6807 41.2642 11.906H36.2332C36.2678 12.3567 36.4108 12.7033 36.6622 12.946C36.9222 13.18 37.2385 13.297 37.6112 13.297C38.1658 13.297 38.5515 13.063 38.7682 12.595H41.1342C41.0128 13.0717 40.7918 13.5007 40.4712 13.882C40.1592 14.2633 39.7648 14.5623 39.2882 14.779C38.8115 14.9957 38.2785 15.104 37.6892 15.104C36.9785 15.104 36.3458 14.9523 35.7912 14.649C35.2365 14.3457 34.8032 13.9123 34.4912 13.349C34.1792 12.7857 34.0232 12.127 34.0232 11.373C34.0232 10.619 34.1748 9.96033 34.4782 9.397C34.7902 8.83367 35.2235 8.40033 35.7782 8.097C36.3328 7.79367 36.9698 7.642 37.6892 7.642C38.3912 7.642 39.0152 7.78933 39.5612 8.084C40.1072 8.37867 40.5318 8.799 40.8352 9.345C41.1472 9.891 41.3032 10.528 41.3032 11.256ZM39.0282 10.671C39.0282 10.2897 38.8982 9.98633 38.6382 9.761C38.3782 9.53567 38.0532 9.423 37.6632 9.423C37.2905 9.423 36.9742 9.53133 36.7142 9.748C36.4628 9.96467 36.3068 10.2723 36.2462 10.671H39.0282ZM49.6508 7.668C50.5001 7.668 51.1761 7.94533 51.6788 8.5C52.1901 9.046 52.4458 9.8 52.4458 10.762V15H50.2358V11.061C50.2358 10.5757 50.1101 10.1987 49.8588 9.93C49.6075 9.66133 49.2695 9.527 48.8448 9.527C48.4201 9.527 48.0821 9.66133 47.8308 9.93C47.5795 10.1987 47.4538 10.5757 47.4538 11.061V15H45.2308V7.746H47.4538V8.708C47.6791 8.38733 47.9825 8.136 48.3638 7.954C48.7451 7.76333 49.1741 7.668 49.6508 7.668ZM57.2926 15.104C56.5819 15.104 55.9406 14.9523 55.3686 14.649C54.8052 14.3457 54.3589 13.9123 54.0296 13.349C53.7089 12.7857 53.5486 12.127 53.5486 11.373C53.5486 10.6277 53.7132 9.97333 54.0426 9.41C54.3719 8.838 54.8226 8.40033 55.3946 8.097C55.9666 7.79367 56.6079 7.642 57.3186 7.642C58.0292 7.642 58.6706 7.79367 59.2426 8.097C59.8146 8.40033 60.2652 8.838 60.5946 9.41C60.9239 9.97333 61.0886 10.6277 61.0886 11.373C61.0886 12.1183 60.9196 12.777 60.5816 13.349C60.2522 13.9123 59.7972 14.3457 59.2166 14.649C58.6446 14.9523 58.0032 15.104 57.2926 15.104ZM57.2926 13.18C57.7172 13.18 58.0769 13.024 58.3716 12.712C58.6749 12.4 58.8266 11.9537 58.8266 11.373C58.8266 10.7923 58.6792 10.346 58.3846 10.034C58.0986 9.722 57.7432 9.566 57.3186 9.566C56.8852 9.566 56.5256 9.722 56.2396 10.034C55.9536 10.3373 55.8106 10.7837 55.8106 11.373C55.8106 11.9537 55.9492 12.4 56.2266 12.712C56.5126 13.024 56.8679 13.18 57.2926 13.18ZM59.0086 5.887L55.8756 7.2V5.666L59.0086 4.158V5.887ZM65.2189 15.104C64.5862 15.104 64.0229 14.9957 63.5289 14.779C63.0349 14.5623 62.6449 14.2677 62.3589 13.895C62.0729 13.5137 61.9126 13.089 61.8779 12.621H64.0749C64.1009 12.8723 64.2179 13.076 64.4259 13.232C64.6339 13.388 64.8896 13.466 65.1929 13.466C65.4702 13.466 65.6826 13.414 65.8299 13.31C65.9859 13.1973 66.0639 13.0543 66.0639 12.881C66.0639 12.673 65.9556 12.5213 65.7389 12.426C65.5222 12.322 65.1712 12.2093 64.6859 12.088C64.1659 11.9667 63.7326 11.841 63.3859 11.711C63.0392 11.5723 62.7402 11.36 62.4889 11.074C62.2376 10.7793 62.1119 10.385 62.1119 9.891C62.1119 9.475 62.2246 9.098 62.4499 8.76C62.6839 8.41333 63.0219 8.14033 63.4639 7.941C63.9146 7.74167 64.4476 7.642 65.0629 7.642C65.9729 7.642 66.6879 7.86733 67.2079 8.318C67.7366 8.76867 68.0399 9.36667 68.1179 10.112H66.0639C66.0292 9.86067 65.9166 9.66133 65.7259 9.514C65.5439 9.36667 65.3012 9.293 64.9979 9.293C64.7379 9.293 64.5386 9.345 64.3999 9.449C64.2612 9.54433 64.1919 9.67867 64.1919 9.852C64.1919 10.06 64.3002 10.216 64.5169 10.32C64.7422 10.424 65.0889 10.528 65.5569 10.632C66.0942 10.7707 66.5319 10.9093 66.8699 11.048C67.2079 11.178 67.5026 11.3947 67.7539 11.698C68.0139 11.9927 68.1482 12.3913 68.1569 12.894C68.1569 13.3187 68.0356 13.7 67.7929 14.038C67.5589 14.3673 67.2166 14.6273 66.7659 14.818C66.3239 15.0087 65.8082 15.104 65.2189 15.104Z" fill="white"/>
<path d="M3.576 59.8C3.576 58.976 3.756 58.24 4.116 57.592C4.476 56.936 4.968 56.428 5.592 56.068C6.216 55.7 6.912 55.516 7.68 55.516C8.616 55.516 9.416 55.74 10.08 56.188C10.752 56.628 11.24 57.252 11.544 58.06H10.56C10.32 57.492 9.952 57.048 9.456 56.728C8.968 56.408 8.376 56.248 7.68 56.248C7.064 56.248 6.508 56.392 6.012 56.68C5.524 56.968 5.14 57.384 4.86 57.928C4.58 58.464 4.44 59.088 4.44 59.8C4.44 60.512 4.58 61.136 4.86 61.672C5.14 62.208 5.524 62.62 6.012 62.908C6.508 63.196 7.064 63.34 7.68 63.34C8.376 63.34 8.968 63.184 9.456 62.872C9.952 62.552 10.32 62.112 10.56 61.552H11.544C11.24 62.352 10.752 62.972 10.08 63.412C9.408 63.852 8.608 64.072 7.68 64.072C6.912 64.072 6.216 63.892 5.592 63.532C4.968 63.164 4.476 62.656 4.116 62.008C3.756 61.36 3.576 60.624 3.576 59.8ZM16.9858 64.084C16.2098 64.084 15.5058 63.904 14.8738 63.544C14.2418 63.176 13.7418 62.668 13.3738 62.02C13.0138 61.364 12.8338 60.624 12.8338 59.8C12.8338 58.976 13.0138 58.24 13.3738 57.592C13.7418 56.936 14.2418 56.428 14.8738 56.068C15.5058 55.7 16.2098 55.516 16.9858 55.516C17.7698 55.516 18.4778 55.7 19.1098 56.068C19.7418 56.428 20.2378 56.936 20.5978 57.592C20.9578 58.24 21.1378 58.976 21.1378 59.8C21.1378 60.624 20.9578 61.364 20.5978 62.02C20.2378 62.668 19.7418 63.176 19.1098 63.544C18.4778 63.904 17.7698 64.084 16.9858 64.084ZM16.9858 63.352C17.6098 63.352 18.1698 63.208 18.6658 62.92C19.1618 62.632 19.5538 62.22 19.8418 61.684C20.1298 61.14 20.2738 60.512 20.2738 59.8C20.2738 59.088 20.1298 58.464 19.8418 57.928C19.5538 57.392 19.1618 56.98 18.6658 56.692C18.1698 56.404 17.6098 56.26 16.9858 56.26C16.3618 56.26 15.8018 56.404 15.3058 56.692C14.8098 56.98 14.4178 57.392 14.1298 57.928C13.8418 58.464 13.6978 59.088 13.6978 59.8C13.6978 60.512 13.8418 61.14 14.1298 61.684C14.4178 62.22 14.8098 62.632 15.3058 62.92C15.8018 63.208 16.3618 63.352 16.9858 63.352ZM28.9988 64H28.1588L23.5148 56.944V64H22.6748V55.612H23.5148L28.1588 62.656V55.612H28.9988V64ZM37.1294 55.612V64H36.2894V60.076H31.7414V64H30.9014V55.612H31.7414V59.38H36.2894V55.612H37.1294ZM39.8859 56.296V59.428H43.0659V60.124H39.8859V63.304H43.4259V64H39.0459V55.6H43.4259V56.296H39.8859ZM48.8011 63.34C49.4971 63.34 50.0891 63.184 50.5771 62.872C51.0731 62.552 51.4411 62.112 51.6811 61.552H52.6651C52.3851 62.288 51.9451 62.876 51.3451 63.316C50.7531 63.748 50.0451 63.996 49.2211 64.06V64.804C49.6931 64.788 50.0651 64.876 50.3371 65.068C50.6171 65.268 50.7571 65.552 50.7571 65.92C50.7571 66.28 50.6291 66.564 50.3731 66.772C50.1171 66.988 49.7771 67.096 49.3531 67.096H48.1531V66.532H49.1851C49.4811 66.532 49.6971 66.48 49.8331 66.376C49.9771 66.28 50.0491 66.128 50.0491 65.92C50.0491 65.536 49.7611 65.344 49.1851 65.344H48.6331V64.072C47.8891 64.048 47.2171 63.852 46.6171 63.484C46.0171 63.108 45.5451 62.604 45.2011 61.972C44.8651 61.332 44.6971 60.608 44.6971 59.8C44.6971 58.976 44.8771 58.24 45.2371 57.592C45.5971 56.936 46.0891 56.428 46.7131 56.068C47.3371 55.7 48.0331 55.516 48.8011 55.516C49.7371 55.516 50.5371 55.74 51.2011 56.188C51.8731 56.628 52.3611 57.252 52.6651 58.06H51.6811C51.4411 57.492 51.0731 57.048 50.5771 56.728C50.0891 56.408 49.4971 56.248 48.8011 56.248C48.1851 56.248 47.6291 56.392 47.1331 56.68C46.6451 56.968 46.2611 57.384 45.9811 57.928C45.7011 58.464 45.5611 59.088 45.5611 59.8C45.5611 60.512 45.7011 61.136 45.9811 61.672C46.2611 62.208 46.6451 62.62 47.1331 62.908C47.6291 63.196 48.1851 63.34 48.8011 63.34ZM59.1989 62.008H55.3829L54.6509 64H53.7629L56.8229 55.72H57.7709L60.8189 64H59.9309L59.1989 62.008ZM58.9469 61.312L57.2909 56.776L55.6349 61.312H58.9469ZM3.576 91.8C3.576 90.976 3.756 90.24 4.116 89.592C4.476 88.936 4.968 88.428 5.592 88.068C6.216 87.7 6.912 87.516 7.68 87.516C8.616 87.516 9.416 87.74 10.08 88.188C10.752 88.628 11.24 89.252 11.544 90.06H10.56C10.32 89.492 9.952 89.048 9.456 88.728C8.968 88.408 8.376 88.248 7.68 88.248C7.064 88.248 6.508 88.392 6.012 88.68C5.524 88.968 5.14 89.384 4.86 89.928C4.58 90.464 4.44 91.088 4.44 91.8C4.44 92.512 4.58 93.136 4.86 93.672C5.14 94.208 5.524 94.62 6.012 94.908C6.508 95.196 7.064 95.34 7.68 95.34C8.376 95.34 8.968 95.184 9.456 94.872C9.952 94.552 10.32 94.112 10.56 93.552H11.544C11.24 94.352 10.752 94.972 10.08 95.412C9.408 95.852 8.608 96.072 7.68 96.072C6.912 96.072 6.216 95.892 5.592 95.532C4.968 95.164 4.476 94.656 4.116 94.008C3.756 93.36 3.576 92.624 3.576 91.8ZM16.9858 96.084C16.2098 96.084 15.5058 95.904 14.8738 95.544C14.2418 95.176 13.7418 94.668 13.3738 94.02C13.0138 93.364 12.8338 92.624 12.8338 91.8C12.8338 90.976 13.0138 90.24 13.3738 89.592C13.7418 88.936 14.2418 88.428 14.8738 88.068C15.5058 87.7 16.2098 87.516 16.9858 87.516C17.7698 87.516 18.4778 87.7 19.1098 88.068C19.7418 88.428 20.2378 88.936 20.5978 89.592C20.9578 90.24 21.1378 90.976 21.1378 91.8C21.1378 92.624 20.9578 93.364 20.5978 94.02C20.2378 94.668 19.7418 95.176 19.1098 95.544C18.4778 95.904 17.7698 96.084 16.9858 96.084ZM16.9858 95.352C17.6098 95.352 18.1698 95.208 18.6658 94.92C19.1618 94.632 19.5538 94.22 19.8418 93.684C20.1298 93.14 20.2738 92.512 20.2738 91.8C20.2738 91.088 20.1298 90.464 19.8418 89.928C19.5538 89.392 19.1618 88.98 18.6658 88.692C18.1698 88.404 17.6098 88.26 16.9858 88.26C16.3618 88.26 15.8018 88.404 15.3058 88.692C14.8098 88.98 14.4178 89.392 14.1298 89.928C13.8418 90.464 13.6978 91.088 13.6978 91.8C13.6978 92.512 13.8418 93.14 14.1298 93.684C14.4178 94.22 14.8098 94.632 15.3058 94.92C15.8018 95.208 16.3618 95.352 16.9858 95.352ZM30.8708 87.72V96H30.0308V89.388L27.0788 96H26.4668L23.5148 89.412V96H22.6748V87.72H23.5628L26.7668 94.896L29.9708 87.72H30.8708ZM36.5444 96.084C35.7684 96.084 35.0644 95.904 34.4324 95.544C33.8004 95.176 33.3004 94.668 32.9324 94.02C32.5724 93.364 32.3924 92.624 32.3924 91.8C32.3924 90.976 32.5724 90.24 32.9324 89.592C33.3004 88.936 33.8004 88.428 34.4324 88.068C35.0644 87.7 35.7684 87.516 36.5444 87.516C37.3284 87.516 38.0364 87.7 38.6684 88.068C39.3004 88.428 39.7964 88.936 40.1564 89.592C40.5164 90.24 40.6964 90.976 40.6964 91.8C40.6964 92.624 40.5164 93.364 40.1564 94.02C39.7964 94.668 39.3004 95.176 38.6684 95.544C38.0364 95.904 37.3284 96.084 36.5444 96.084ZM36.5444 95.352C37.1684 95.352 37.7284 95.208 38.2244 94.92C38.7204 94.632 39.1124 94.22 39.4004 93.684C39.6884 93.14 39.8324 92.512 39.8324 91.8C39.8324 91.088 39.6884 90.464 39.4004 89.928C39.1124 89.392 38.7204 88.98 38.2244 88.692C37.7284 88.404 37.1684 88.26 36.5444 88.26C35.9204 88.26 35.3604 88.404 34.8644 88.692C34.3684 88.98 33.9764 89.392 33.6884 89.928C33.4004 90.464 33.2564 91.088 33.2564 91.8C33.2564 92.512 33.4004 93.14 33.6884 93.684C33.9764 94.22 34.3684 94.632 34.8644 94.92C35.3604 95.208 35.9204 95.352 36.5444 95.352ZM45.1424 91.8C45.1424 90.976 45.3224 90.24 45.6824 89.592C46.0424 88.936 46.5344 88.428 47.1584 88.068C47.7824 87.7 48.4784 87.516 49.2464 87.516C50.1824 87.516 50.9824 87.74 51.6464 88.188C52.3184 88.628 52.8064 89.252 53.1104 90.06H52.1264C51.8864 89.492 51.5184 89.048 51.0224 88.728C50.5344 88.408 49.9424 88.248 49.2464 88.248C48.6304 88.248 48.0744 88.392 47.5784 88.68C47.0904 88.968 46.7064 89.384 46.4264 89.928C46.1464 90.464 46.0064 91.088 46.0064 91.8C46.0064 92.512 46.1464 93.136 46.4264 93.672C46.7064 94.208 47.0904 94.62 47.5784 94.908C48.0744 95.196 48.6304 95.34 49.2464 95.34C49.9424 95.34 50.5344 95.184 51.0224 94.872C51.5184 94.552 51.8864 94.112 52.1264 93.552H53.1104C52.8064 94.352 52.3184 94.972 51.6464 95.412C50.9744 95.852 50.1744 96.072 49.2464 96.072C48.4784 96.072 47.7824 95.892 47.1584 95.532C46.5344 95.164 46.0424 94.656 45.6824 94.008C45.3224 93.36 45.1424 92.624 45.1424 91.8ZM58.5522 96.084C57.7762 96.084 57.0722 95.904 56.4402 95.544C55.8082 95.176 55.3082 94.668 54.9402 94.02C54.5802 93.364 54.4002 92.624 54.4002 91.8C54.4002 90.976 54.5802 90.24 54.9402 89.592C55.3082 88.936 55.8082 88.428 56.4402 88.068C57.0722 87.7 57.7762 87.516 58.5522 87.516C59.3362 87.516 60.0442 87.7 60.6762 88.068C61.3082 88.428 61.8042 88.936 62.1642 89.592C62.5242 90.24 62.7042 90.976 62.7042 91.8C62.7042 92.624 62.5242 93.364 62.1642 94.02C61.8042 94.668 61.3082 95.176 60.6762 95.544C60.0442 95.904 59.3362 96.084 58.5522 96.084ZM58.5522 95.352C59.1762 95.352 59.7362 95.208 60.2322 94.92C60.7282 94.632 61.1202 94.22 61.4082 93.684C61.6962 93.14 61.8402 92.512 61.8402 91.8C61.8402 91.088 61.6962 90.464 61.4082 89.928C61.1202 89.392 60.7282 88.98 60.2322 88.692C59.7362 88.404 59.1762 88.26 58.5522 88.26C57.9282 88.26 57.3682 88.404 56.8722 88.692C56.3762 88.98 55.9842 89.392 55.6962 89.928C55.4082 90.464 55.2642 91.088 55.2642 91.8C55.2642 92.512 55.4082 93.14 55.6962 93.684C55.9842 94.22 56.3762 94.632 56.8722 94.92C57.3682 95.208 57.9282 95.352 58.5522 95.352ZM72.4373 87.72V96H71.5973V89.388L68.6453 96H68.0333L65.0813 89.412V96H64.2413V87.72H65.1293L68.3333 94.896L71.5373 87.72H72.4373ZM79.7068 90.024C79.7068 90.744 79.4708 91.324 78.9988 91.764C78.5268 92.204 77.8188 92.424 76.8748 92.424H75.1828V96H74.3428V87.612H76.8748C77.8108 87.612 78.5148 87.832 78.9868 88.272C79.4668 88.712 79.7068 89.296 79.7068 90.024ZM76.8748 91.704C78.1868 91.704 78.8428 91.144 78.8428 90.024C78.8428 89.464 78.6868 89.04 78.3748 88.752C78.0628 88.464 77.5628 88.32 76.8748 88.32H75.1828V91.704H76.8748ZM85.5803 96L83.5043 92.496H81.9563V96H81.1163V87.612H83.6363C84.5723 87.612 85.2803 87.836 85.7603 88.284C86.2483 88.732 86.4922 89.32 86.4922 90.048C86.4922 90.656 86.3163 91.176 85.9643 91.608C85.6203 92.032 85.1083 92.308 84.4283 92.436L86.5883 96H85.5803ZM81.9563 91.812H83.6483C84.3043 91.812 84.7963 91.652 85.1243 91.332C85.4603 91.012 85.6283 90.584 85.6283 90.048C85.6283 89.496 85.4683 89.072 85.1483 88.776C84.8283 88.472 84.3243 88.32 83.6363 88.32H81.9563V91.812ZM93.0192 94.008H89.2032L88.4712 96H87.5832L90.6432 87.72H91.5912L94.6392 96H93.7512L93.0192 94.008ZM92.7672 93.312L91.1112 88.776L89.4552 93.312H92.7672ZM100.451 96L98.3753 92.496H96.8273V96H95.9873V87.612H98.5073C99.4433 87.612 100.151 87.836 100.631 88.284C101.119 88.732 101.363 89.32 101.363 90.048C101.363 90.656 101.187 91.176 100.835 91.608C100.491 92.032 99.9793 92.308 99.2993 92.436L101.459 96H100.451ZM96.8273 91.812H98.5193C99.1753 91.812 99.6673 91.652 99.9953 91.332C100.331 91.012 100.499 90.584 100.499 90.048C100.499 89.496 100.339 89.072 100.019 88.776C99.6993 88.472 99.1953 88.32 98.5073 88.32H96.8273V91.812ZM4.8 119.612V128H3.96V119.612H4.8ZM13.0262 128H12.1862L7.54219 120.944V128H6.70219V119.612H7.54219L12.1862 126.656V119.612H13.0262V128ZM17.4128 119.612C18.3408 119.612 19.1368 119.78 19.8008 120.116C20.4648 120.452 20.9728 120.936 21.3248 121.568C21.6768 122.2 21.8528 122.952 21.8528 123.824C21.8528 124.688 21.6768 125.436 21.3248 126.068C20.9728 126.692 20.4648 127.172 19.8008 127.508C19.1368 127.836 18.3408 128 17.4128 128H14.9288V119.612H17.4128ZM17.4128 127.304C18.5808 127.304 19.4688 127 20.0768 126.392C20.6928 125.776 21.0008 124.92 21.0008 123.824C21.0008 122.72 20.6928 121.86 20.0768 121.244C19.4688 120.62 18.5808 120.308 17.4128 120.308H15.7688V127.304H17.4128ZM24.2414 119.612V128H23.4014V119.612H24.2414ZM25.7596 123.8C25.7596 122.976 25.9396 122.24 26.2996 121.592C26.6596 120.936 27.1516 120.428 27.7756 120.068C28.3996 119.7 29.0956 119.516 29.8636 119.516C30.7996 119.516 31.5996 119.74 32.2636 120.188C32.9356 120.628 33.4236 121.252 33.7276 122.06H32.7436C32.5036 121.492 32.1356 121.048 31.6396 120.728C31.1516 120.408 30.5596 120.248 29.8636 120.248C29.2476 120.248 28.6916 120.392 28.1956 120.68C27.7076 120.968 27.3236 121.384 27.0436 121.928C26.7636 122.464 26.6236 123.088 26.6236 123.8C26.6236 124.512 26.7636 125.136 27.0436 125.672C27.3236 126.208 27.7076 126.62 28.1956 126.908C28.6916 127.196 29.2476 127.34 29.8636 127.34C30.5596 127.34 31.1516 127.184 31.6396 126.872C32.1356 126.552 32.5036 126.112 32.7436 125.552H33.7276C33.4236 126.352 32.9356 126.972 32.2636 127.412C31.5916 127.852 30.7916 128.072 29.8636 128.072C29.0956 128.072 28.3996 127.892 27.7756 127.532C27.1516 127.164 26.6596 126.656 26.2996 126.008C25.9396 125.36 25.7596 124.624 25.7596 123.8ZM40.2614 126.008H36.4454L35.7134 128H34.8254L37.8854 119.72H38.8334L41.8814 128H40.9934L40.2614 126.008ZM40.0094 125.312L38.3534 120.776L36.6974 125.312H40.0094ZM46.9495 127.34C47.6455 127.34 48.2375 127.184 48.7255 126.872C49.2215 126.552 49.5895 126.112 49.8295 125.552H50.8135C50.5335 126.288 50.0935 126.876 49.4935 127.316C48.9015 127.748 48.1935 127.996 47.3695 128.06V128.804C47.8415 128.788 48.2135 128.876 48.4855 129.068C48.7655 129.268 48.9055 129.552 48.9055 129.92C48.9055 130.28 48.7775 130.564 48.5215 130.772C48.2655 130.988 47.9255 131.096 47.5015 131.096H46.3015V130.532H47.3335C47.6295 130.532 47.8455 130.48 47.9815 130.376C48.1255 130.28 48.1975 130.128 48.1975 129.92C48.1975 129.536 47.9095 129.344 47.3335 129.344H46.7815V128.072C46.0375 128.048 45.3655 127.852 44.7655 127.484C44.1655 127.108 43.6935 126.604 43.3495 125.972C43.0135 125.332 42.8455 124.608 42.8455 123.8C42.8455 122.976 43.0255 122.24 43.3855 121.592C43.7455 120.936 44.2375 120.428 44.8615 120.068C45.4855 119.7 46.1815 119.516 46.9495 119.516C47.8855 119.516 48.6855 119.74 49.3495 120.188C50.0215 120.628 50.5095 121.252 50.8135 122.06H49.8295C49.5895 121.492 49.2215 121.048 48.7255 120.728C48.2375 120.408 47.6455 120.248 46.9495 120.248C46.3335 120.248 45.7775 120.392 45.2815 120.68C44.7935 120.968 44.4095 121.384 44.1295 121.928C43.8495 122.464 43.7095 123.088 43.7095 123.8C43.7095 124.512 43.8495 125.136 44.1295 125.672C44.4095 126.208 44.7935 126.62 45.2815 126.908C45.7775 127.196 46.3335 127.34 46.9495 127.34ZM57.3473 126.008H53.5313L52.7993 128H51.9113L54.9713 119.72H55.9193L58.9673 128H58.0793L57.3473 126.008ZM57.0953 125.312L55.4393 120.776L53.7833 125.312H57.0953ZM53.8673 119C53.9153 118.64 54.0313 118.364 54.2153 118.172C54.3993 117.98 54.6353 117.884 54.9233 117.884C55.0673 117.884 55.1913 117.912 55.2953 117.968C55.3993 118.016 55.5233 118.088 55.6673 118.184C55.7873 118.272 55.8913 118.34 55.9793 118.388C56.0673 118.428 56.1633 118.448 56.2673 118.448C56.4033 118.448 56.5193 118.404 56.6153 118.316C56.7113 118.22 56.7713 118.084 56.7953 117.908H57.2993C57.2673 118.26 57.1513 118.536 56.9513 118.736C56.7593 118.928 56.5193 119.024 56.2313 119.024C56.0793 119.024 55.9473 119 55.8353 118.952C55.7313 118.896 55.6073 118.816 55.4633 118.712C55.3513 118.624 55.2513 118.56 55.1633 118.52C55.0833 118.48 54.9913 118.46 54.8873 118.46C54.5993 118.46 54.4313 118.64 54.3833 119H53.8673ZM64.0835 128.084C63.3075 128.084 62.6035 127.904 61.9715 127.544C61.3395 127.176 60.8395 126.668 60.4715 126.02C60.1115 125.364 59.9315 124.624 59.9315 123.8C59.9315 122.976 60.1115 122.24 60.4715 121.592C60.8395 120.936 61.3395 120.428 61.9715 120.068C62.6035 119.7 63.3075 119.516 64.0835 119.516C64.8675 119.516 65.5755 119.7 66.2075 120.068C66.8395 120.428 67.3355 120.936 67.6955 121.592C68.0555 122.24 68.2355 122.976 68.2355 123.8C68.2355 124.624 68.0555 125.364 67.6955 126.02C67.3355 126.668 66.8395 127.176 66.2075 127.544C65.5755 127.904 64.8675 128.084 64.0835 128.084ZM64.0835 127.352C64.7075 127.352 65.2675 127.208 65.7635 126.92C66.2595 126.632 66.6515 126.22 66.9395 125.684C67.2275 125.14 67.3715 124.512 67.3715 123.8C67.3715 123.088 67.2275 122.464 66.9395 121.928C66.6515 121.392 66.2595 120.98 65.7635 120.692C65.2675 120.404 64.7075 120.26 64.0835 120.26C63.4595 120.26 62.8995 120.404 62.4035 120.692C61.9075 120.98 61.5155 121.392 61.2275 121.928C60.9395 122.464 60.7955 123.088 60.7955 123.8C60.7955 124.512 60.9395 125.14 61.2275 125.684C61.5155 126.22 61.9075 126.632 62.4035 126.92C62.8995 127.208 63.4595 127.352 64.0835 127.352ZM73.9055 120.296V123.428H77.0855V124.124H73.9055V127.304H77.4455V128H73.0655V119.6H77.4455V120.296H73.9055ZM84.8776 119.612C85.8056 119.612 86.6016 119.78 87.2656 120.116C87.9296 120.452 88.4376 120.936 88.7896 121.568C89.1416 122.2 89.3176 122.952 89.3176 123.824C89.3176 124.688 89.1416 125.436 88.7896 126.068C88.4376 126.692 87.9296 127.172 87.2656 127.508C86.6016 127.836 85.8056 128 84.8776 128H82.3936V119.612H84.8776ZM84.8776 127.304C86.0456 127.304 86.9336 127 87.5416 126.392C88.1576 125.776 88.4656 124.92 88.4656 123.824C88.4656 122.72 88.1576 121.86 87.5416 121.244C86.9336 120.62 86.0456 120.308 84.8776 120.308H83.2336V127.304H84.8776ZM91.7063 120.296V123.428H94.8863V124.124H91.7063V127.304H95.2463V128H90.8663V119.6H95.2463V120.296H91.7063ZM99.4454 128.084C98.8934 128.084 98.4054 127.988 97.9814 127.796C97.5654 127.604 97.2374 127.336 96.9974 126.992C96.7574 126.648 96.6294 126.264 96.6134 125.84H97.5014C97.5414 126.248 97.7214 126.608 98.0414 126.92C98.3614 127.224 98.8294 127.376 99.4454 127.376C100.013 127.376 100.461 127.232 100.789 126.944C101.125 126.648 101.293 126.276 101.293 125.828C101.293 125.468 101.201 125.18 101.017 124.964C100.833 124.74 100.605 124.576 100.333 124.472C100.061 124.36 99.6854 124.24 99.2054 124.112C98.6454 123.96 98.2014 123.812 97.8734 123.668C97.5454 123.524 97.2654 123.3 97.0334 122.996C96.8014 122.692 96.6854 122.28 96.6854 121.76C96.6854 121.328 96.7974 120.944 97.0214 120.608C97.2454 120.264 97.5614 119.996 97.9694 119.804C98.3774 119.612 98.8454 119.516 99.3734 119.516C100.149 119.516 100.773 119.708 101.245 120.092C101.725 120.468 102.001 120.956 102.073 121.556H101.161C101.105 121.212 100.917 120.908 100.597 120.644C100.277 120.372 99.8454 120.236 99.3014 120.236C98.7974 120.236 98.3774 120.372 98.0414 120.644C97.7054 120.908 97.5374 121.272 97.5374 121.736C97.5374 122.088 97.6294 122.372 97.8134 122.588C97.9974 122.804 98.2254 122.968 98.4974 123.08C98.7774 123.192 99.1534 123.312 99.6254 123.44C100.169 123.592 100.609 123.744 100.945 123.896C101.281 124.04 101.565 124.264 101.797 124.568C102.029 124.872 102.145 125.28 102.145 125.792C102.145 126.184 102.041 126.556 101.833 126.908C101.625 127.26 101.317 127.544 100.909 127.76C100.501 127.976 100.013 128.084 99.4454 128.084ZM103.385 123.8C103.385 122.976 103.565 122.24 103.925 121.592C104.285 120.936 104.777 120.428 105.401 120.068C106.025 119.7 106.721 119.516 107.489 119.516C108.425 119.516 109.225 119.74 109.889 120.188C110.561 120.628 111.049 121.252 111.353 122.06H110.369C110.129 121.492 109.761 121.048 109.265 120.728C108.777 120.408 108.185 120.248 107.489 120.248C106.873 120.248 106.317 120.392 105.821 120.68C105.333 120.968 104.949 121.384 104.669 121.928C104.389 122.464 104.249 123.088 104.249 123.8C104.249 124.512 104.389 125.136 104.669 125.672C104.949 126.208 105.333 126.62 105.821 126.908C106.317 127.196 106.873 127.34 107.489 127.34C108.185 127.34 108.777 127.184 109.265 126.872C109.761 126.552 110.129 126.112 110.369 125.552H111.353C111.049 126.352 110.561 126.972 109.889 127.412C109.217 127.852 108.417 128.072 107.489 128.072C106.721 128.072 106.025 127.892 105.401 127.532C104.777 127.164 104.285 126.656 103.925 126.008C103.565 125.36 103.385 124.624 103.385 123.8ZM116.794 128.084C116.018 128.084 115.314 127.904 114.682 127.544C114.05 127.176 113.55 126.668 113.182 126.02C112.822 125.364 112.642 124.624 112.642 123.8C112.642 122.976 112.822 122.24 113.182 121.592C113.55 120.936 114.05 120.428 114.682 120.068C115.314 119.7 116.018 119.516 116.794 119.516C117.578 119.516 118.286 119.7 118.918 120.068C119.55 120.428 120.046 120.936 120.406 121.592C120.766 122.24 120.946 122.976 120.946 123.8C120.946 124.624 120.766 125.364 120.406 126.02C120.046 126.668 119.55 127.176 118.918 127.544C118.286 127.904 117.578 128.084 116.794 128.084ZM116.794 127.352C117.418 127.352 117.978 127.208 118.474 126.92C118.97 126.632 119.362 126.22 119.65 125.684C119.938 125.14 120.082 124.512 120.082 123.8C120.082 123.088 119.938 122.464 119.65 121.928C119.362 121.392 118.97 120.98 118.474 120.692C117.978 120.404 117.418 120.26 116.794 120.26C116.17 120.26 115.61 120.404 115.114 120.692C114.618 120.98 114.226 121.392 113.938 121.928C113.65 122.464 113.506 123.088 113.506 123.8C113.506 124.512 113.65 125.14 113.938 125.684C114.226 126.22 114.618 126.632 115.114 126.92C115.61 127.208 116.17 127.352 116.794 127.352ZM128.807 128H127.967L123.323 120.944V128H122.483V119.612H123.323L127.967 126.656V119.612H128.807V128ZM135.618 119.612V120.308H133.29V128H132.45V120.308H130.11V119.612H135.618ZM140.712 128.084C139.936 128.084 139.232 127.904 138.6 127.544C137.968 127.176 137.468 126.668 137.1 126.02C136.74 125.364 136.56 124.624 136.56 123.8C136.56 122.976 136.74 122.24 137.1 121.592C137.468 120.936 137.968 120.428 138.6 120.068C139.232 119.7 139.936 119.516 140.712 119.516C141.496 119.516 142.204 119.7 142.836 120.068C143.468 120.428 143.964 120.936 144.324 121.592C144.684 122.24 144.864 122.976 144.864 123.8C144.864 124.624 144.684 125.364 144.324 126.02C143.964 126.668 143.468 127.176 142.836 127.544C142.204 127.904 141.496 128.084 140.712 128.084ZM140.712 127.352C141.336 127.352 141.896 127.208 142.392 126.92C142.888 126.632 143.28 126.22 143.568 125.684C143.856 125.14 144 124.512 144 123.8C144 123.088 143.856 122.464 143.568 121.928C143.28 121.392 142.888 120.98 142.392 120.692C141.896 120.404 141.336 120.26 140.712 120.26C140.088 120.26 139.528 120.404 139.032 120.692C138.536 120.98 138.144 121.392 137.856 121.928C137.568 122.464 137.424 123.088 137.424 123.8C137.424 124.512 137.568 125.14 137.856 125.684C138.144 126.22 138.536 126.632 139.032 126.92C139.528 127.208 140.088 127.352 140.712 127.352Z" fill="white"/>
<g clip-path="url(#clip0_1_1486)">
<path d="M129.513 207.435L129.54 207.615C129.274 206.671 128.556 205.943 127.643 205.679L127.624 205.674C125.907 205.208 118.999 205.208 118.999 205.208C118.999 205.208 112.109 205.199 110.375 205.674C109.444 205.943 108.725 206.671 108.464 207.595L108.459 207.615C107.818 210.961 107.813 214.983 108.487 218.566L108.459 218.384C108.725 219.328 109.443 220.056 110.356 220.32L110.376 220.325C112.09 220.792 119 220.792 119 220.792C119 220.792 125.89 220.792 127.625 220.325C128.556 220.056 129.275 219.328 129.537 218.404L129.541 218.384C129.833 216.828 130 215.037 130 213.207C130 213.14 130 213.072 129.999 213.005C130 212.942 130 212.868 130 212.794C130 210.963 129.833 209.172 129.513 207.435ZM116.795 216.347V209.661L122.544 213.009L116.795 216.347Z" fill="white"/>
</g>
<g clip-path="url(#clip1_1_1486)">
<path d="M64.4878 207.352C61.3656 207.352 58.8379 209.88 58.8379 212.996C58.8379 216.116 61.3683 218.641 64.4878 218.641C67.6101 218.641 70.1378 216.113 70.1378 212.996C70.1378 209.877 67.6073 207.352 64.4878 207.352ZM64.4878 216.66C62.4611 216.66 60.8206 215.02 60.8206 212.996C60.8206 210.972 62.462 209.332 64.4878 209.332C66.5137 209.332 68.1551 210.972 68.1551 212.996C68.156 215.02 66.5146 216.66 64.4878 216.66Z" fill="white"/>
<path d="M69.0223 202.071C66.9965 201.976 61.9787 201.981 59.9511 202.071C58.1693 202.154 56.5976 202.584 55.3306 203.85C53.213 205.966 53.4836 208.817 53.4836 212.998C53.4836 217.277 53.2451 220.061 55.3306 222.145C57.4564 224.268 60.3511 223.99 64.4862 223.99C68.7287 223.99 70.1931 223.993 71.6932 223.413C73.7328 222.622 75.2723 220.8 75.4228 217.529C75.5182 215.504 75.5127 210.491 75.4228 208.466C75.2411 204.604 73.1667 202.262 69.0223 202.071ZM72.229 220.745C70.8408 222.132 68.915 222.008 64.4596 222.008C59.8722 222.008 58.0326 222.076 56.6903 220.731C55.1443 219.194 55.4241 216.726 55.4241 212.983C55.4241 207.918 54.9039 204.271 59.9914 204.011C61.1603 203.969 61.5044 203.956 64.4468 203.956L64.4881 203.983C69.3774 203.983 73.2135 203.472 73.4438 208.554C73.4961 209.713 73.508 210.061 73.508 212.997C73.5071 217.527 73.5933 219.376 72.229 220.745Z" fill="white"/>
<path d="M70.3608 208.448C71.0901 208.448 71.6813 207.857 71.6813 207.129C71.6813 206.4 71.0901 205.81 70.3608 205.81C69.6315 205.81 69.0403 206.4 69.0403 207.129C69.0403 207.857 69.6315 208.448 70.3608 208.448Z" fill="white"/>
</g>
<g clip-path="url(#clip2_1_1486)">
<path d="M14.3167 205.563H16.2775V202.151C15.9392 202.105 14.7758 202 13.4208 202C10.5936 202 8.65694 203.777 8.65694 207.042V210.047H5.53711V213.862H8.65694V223.46H12.482V213.863H15.4756L15.9509 210.048H12.4811V207.42C12.482 206.318 12.7791 205.563 14.3167 205.563Z" fill="white"/>
</g>
<defs>
<clipPath id="clip0_1_1486">
<rect width="22.0199" height="22" fill="white" transform="translate(107.98 202)"/>
</clipPath>
<clipPath id="clip1_1_1486">
<rect width="22.0199" height="22" fill="white" transform="translate(53.4731 202)"/>
</clipPath>
<clipPath id="clip2_1_1486">
<rect width="21.479" height="21.4596" fill="white" transform="translate(0 202)"/>
</clipPath>
</defs>
</svg>
